<?xml version="1.0" encoding="utf-8"?>
<!-- Generator: Adobe Illustrator 24.0.0, SVG Export Plug-In . SVG Version: 6.00 Build 0)  -->
<svg version="1.1" xmlns="http://www.w3.org/2000/svg" xmlns:xlink="http://www.w3.org/1999/xlink" x="0px" y="0px"
	 viewBox="0 0 1200 582" style="enable-background:new 0 0 1200 582;" xml:space="preserve">
<style type="text/css">
	.st0{display:none;}
	.st1{display:inline;fill:#1C164E;stroke:#000000;stroke-miterlimit:10;}
	.st2{fill:#6A5D26;}
	.st3{fill:#219A47;}
	.st4{fill:#348E4E;}
	.st5{fill:#1A7D3F;}
	.st6{fill:#156D38;}
	.st7{fill:#96853B;}
	.st8{fill:#307F46;}
	.st9{fill:#6B5C25;}
	.st10{fill:#246935;}

	.st11{fill:#EFE925;
	animation:colors 10s linear infinite;
	}

	.st12{fill:#D9D7C7;
	animation:moves 10s linear infinite;
	}
	.st13{fill:#D9D7C7;
	animation:moves2 10s linear infinite;
	
	}

	.st14{fill:#D9D7C7;
		animation:moves3 10s linear infinite;
	}

	@keyframes colors {
	0%{fill: #EFE925}
	30% {fill: #ccc87f;}
	50% {fill: #f9f9f2;}
	80% {fill: #ccc662;}
	100% {fill: #EFE925}
	}

	@keyframes moves {
  0% { transform: translate(0,0); }
    10% { transform: translate(0,0); }
    50% { transform: translate(-5%,0%); } 
    100% { transform: translate(0%,0%); }
	}

		@keyframes moves2 {
50% { transform:translate3d(0,10%,0) }
100% { transform:translate3d(0,0%,0) }
	}

		@keyframes moves3 {
  0% { transform: translate(0,0); }
    10% { transform: translate(0,0); }
    50% { transform: translate(5%,0%); } 
    100% { transform: translate(0%,0%); }
	}



</style>
<g id="Layer_2" class="st0">
	<rect y="-7.89" class="st1" width="1200" height="631.58"/>
</g>
<g id="Layer_1">
	<g>
		<rect x="334.83" y="478.07" class="st2" width="29.56" height="125.85"/>
		<g>
			<rect x="89.37" y="531.38" class="st2" width="14.43" height="61.46"/>
			<path class="st3" d="M154.7,578.96l-51.26-13.25c-4.49-1.16-9.2-1.16-13.69,0l-51.26,13.25l27.79-48.13l-12.89,3.33l21.6-37.42
				l0.76-1.31l-14.11,3.65l17.48-30.27l17.48-30.27l17.48,30.27l17.48,30.27l-14.11-3.65l0.76,1.31l21.6,37.42l-12.89-3.33
				L154.7,578.96z"/>
		</g>
		<rect x="161.38" y="515.69" class="st2" width="19.13" height="81.44"/>
		<rect x="221.83" y="442.87" class="st2" width="14.43" height="61.46"/>
		<path class="st4" d="M287.16,490.45L235.9,477.2c-4.49-1.16-9.2-1.16-13.69,0l-51.26,13.25l27.79-48.13l-12.89,3.33l21.6-37.42
			l0.76-1.31l-14.11,3.65l17.48-30.27l17.48-30.27l17.48,30.27l17.48,30.27l-14.11-3.65l0.76,1.31l21.6,37.42l-12.89-3.33
			L287.16,490.45z"/>
		<path class="st5" d="M247.94,578.73l-67.92-17.56c-5.95-1.54-12.19-1.54-18.14,0l-67.92,17.56l36.82-63.78l-17.08,4.41
			l28.62-49.58l1-1.74l-18.7,4.83l23.16-40.11l23.16-40.11l23.16,40.11l23.16,40.11l-18.7-4.83l1,1.74l28.62,49.58l-17.08-4.41
			L247.94,578.73z"/>
		<g>
			<rect x="252.97" y="531.38" class="st2" width="14.43" height="61.46"/>
			<path class="st3" d="M318.3,578.96l-51.26-13.25c-4.49-1.16-9.2-1.16-13.69,0l-51.26,13.25l27.79-48.13l-12.89,3.33l21.6-37.42
				l0.76-1.31l-14.11,3.65l17.48-30.27l17.48-30.27l17.48,30.27l17.48,30.27l-14.11-3.65l0.76,1.31l21.6,37.42l-12.89-3.33
				L318.3,578.96z"/>
		</g>
		<g>
			<rect x="425.03" y="531.38" class="st2" width="14.43" height="61.46"/>
			<path class="st3" d="M490.35,578.96l-51.26-13.25c-4.49-1.16-9.2-1.16-13.69,0l-51.26,13.25l27.79-48.13l-12.89,3.33l21.6-37.42
				l0.76-1.31l-14.11,3.65l17.48-30.27l17.48-30.27l17.48,30.27l17.48,30.27l-14.11-3.65l0.76,1.31l21.6,37.42l-12.89-3.33
				L490.35,578.96z"/>
		</g>
		<path class="st6" d="M468.58,575.49l-104.96-27.13c-9.19-2.38-18.83-2.38-28.03,0l-104.96,27.13l56.9-98.56l-26.39,6.82
			l44.23-76.61l1.55-2.69l-28.9,7.47l35.79-61.98l35.79-61.98l35.79,61.98l35.79,61.98l-28.9-7.47l1.55,2.69l44.23,76.61
			l-26.39-6.82L468.58,575.49z"/>
		<rect x="506.98" y="499" class="st7" width="26.01" height="110.76"/>
		<path class="st8" d="M624.7,584.75l-92.37-23.88c-8.09-2.09-16.58-2.09-24.67,0l-92.38,23.88l50.08-86.74l-23.23,6l38.93-67.43
			l1.36-2.37L457,440.79l31.5-54.55l31.5-54.55l31.5,54.55l31.5,54.55l-25.43-6.57l1.36,2.37l38.93,67.43l-23.23-6L624.7,584.75z"/>
	</g>
	<g>
		
			<rect x="1127.23" y="536.91" transform="matrix(-1 -4.490820e-11 4.490820e-11 -1 2270.5422 1142.2815)" class="st2" width="16.08" height="68.47"/>
		<path class="st3" d="M1070.54,589.91l57.1-14.76c5-1.29,10.25-1.29,15.25,0l57.11,14.76l-30.96-53.62l14.36,3.71l-24.07-41.68
			l-0.84-1.46l15.72,4.06l-19.47-33.72l-19.47-33.72l-19.47,33.72l-19.47,33.72l15.72-4.06l-0.84,1.46L1087.14,540l14.36-3.71
			L1070.54,589.91z"/>
	</g>
	
		<rect x="1041.78" y="519.42" transform="matrix(-1 -4.490598e-11 4.490598e-11 -1 2104.873 1129.5732)" class="st2" width="21.31" height="90.73"/>
	<g>
		
			<rect x="800.01" y="437.72" transform="matrix(-1 -4.490820e-11 4.490820e-11 -1 1616.0959 943.9081)" class="st2" width="16.08" height="68.47"/>
		<path class="st4" d="M743.32,490.72l57.1-14.76c5-1.29,10.25-1.29,15.25,0l57.11,14.76l-30.96-53.62l14.36,3.71l-24.07-41.68
			l-0.84-1.46l15.72,4.06l-19.47-33.72l-19.47-33.72l-19.47,33.72l-19.47,33.72l15.72-4.06l-0.84,1.46l-24.07,41.68l14.36-3.71
			L743.32,490.72z"/>
	</g>
	<path class="st5" d="M966.67,589.66l75.66-19.56c6.63-1.71,13.58-1.71,20.2,0l75.67,19.56l-41.02-71.05l19.02,4.92l-31.89-55.23
		l-1.12-1.94l20.83,5.38l-25.8-44.68l-25.8-44.68l-25.8,44.68l-25.8,44.68l20.83-5.38l-1.12,1.94l-31.89,55.23l19.03-4.92
		L966.67,589.66z"/>
	<g>
		
			<rect x="944.98" y="536.91" transform="matrix(-1 -4.479496e-11 4.479496e-11 -1 1906.0355 1142.2815)" class="st2" width="16.08" height="68.47"/>
		<path class="st3" d="M888.29,589.91l57.1-14.76c5-1.29,10.25-1.29,15.25,0l57.11,14.76l-30.96-53.62l14.36,3.71l-24.07-41.68
			l-0.84-1.46l15.72,4.06l-19.47-33.72l-19.47-33.72l-19.47,33.72l-19.47,33.72l15.72-4.06l-0.84,1.46L904.89,540l14.36-3.71
			L888.29,589.91z"/>
	</g>
	<g>
		
			<rect x="753.3" y="536.91" transform="matrix(-1 -4.490820e-11 4.490820e-11 -1 1522.6873 1142.2815)" class="st2" width="16.08" height="68.47"/>
		<path class="st3" d="M696.61,589.91l57.1-14.76c5-1.29,10.25-1.29,15.25,0l57.11,14.76l-30.96-53.62l14.36,3.71l-24.07-41.68
			l-0.84-1.46l15.72,4.06l-19.47-33.72l-19.47-33.72l-19.47,33.72l-19.47,33.72l15.72-4.06l-0.84,1.46L713.21,540l14.36-3.71
			L696.61,589.91z"/>
	</g>
	<g>
		
			<rect x="851.27" y="543.24" transform="matrix(-1 -4.490420e-11 4.490420e-11 -1 1719.8713 1160.3044)" class="st2" width="17.34" height="73.82"/>
		<g>
			<path class="st6" d="M790.15,600.39l61.57-15.91c5.39-1.39,11.05-1.39,16.44,0l61.57,15.91l-33.38-57.81l15.48,4l-25.95-44.94
				l-0.91-1.58l16.95,4.38l-20.99-36.36l-20.99-36.36l-21,36.36l-20.99,36.36l16.95-4.38l-0.91,1.58l-25.95,44.94l15.48-4
				L790.15,600.39z"/>
		</g>
	</g>
	
		<rect x="649.11" y="500.84" transform="matrix(-1 -4.488067e-11 4.488067e-11 -1 1327.1975 1125.0747)" class="st9" width="28.98" height="123.39"/>
	<path class="st10" d="M546.95,596.36l102.91-26.6c9.01-2.33,18.47-2.33,27.48,0l102.91,26.6l-55.79-96.63l25.87,6.69l-43.37-75.12
		l-1.52-2.64l28.33,7.32l-35.09-60.77l-35.09-60.77l-35.09,60.77l-35.09,60.77l28.33-7.32l-1.52,2.64l-43.37,75.12l25.88-6.69
		L546.95,596.36z"/>
	<path class="st11" d="M586.88,147.13c-10.39,26.56-34.28,47.02-64.51,51.66c-45.16,6.93-87.39-24.06-94.32-69.22
		s24.07-87.38,69.23-94.31c13.53-2.08,26.8-0.75,38.93,3.35c-3.89-0.09-7.84,0.15-11.81,0.76c-36.52,5.6-61.58,39.75-55.98,76.26
		c5.6,36.52,39.75,61.57,76.27,55.97C562.01,168.94,576.77,159.86,586.88,147.13z"/>
	<path class="st12" d="M403.76,135.53c0,15.74-38.61,28.5-86.24,28.5c-14.11,0-27.42-1.12-39.17-3.1
		c-11.2,2.24-23.42,3.47-36.21,3.47c-9.23,0-18.16-0.64-26.62-1.84c-12.63,3.49-27.84,5.54-44.21,5.54
		c-43.74,0-79.21-14.58-79.21-32.57c0-14.42,22.77-26.65,54.33-30.93c9.62-22.11,48.82-38.66,95.71-38.66
		c49.21,0,89.95,18.23,96.92,41.98c0.01,0,0.01,0,0.01,0C376.28,111.09,403.76,122.25,403.76,135.53z"/>
	<path class="st13" d="M732.6,202.1c0,19.78-26.44,35.81-59.06,35.81c-13.72,0-26.34-2.84-36.36-7.6
		c-14.31,4.26-31.29,6.95-49.56,7.39c-51.73,1.27-94.1-15.85-94.65-38.22c-0.32-13.14,13.85-25.17,36.08-33.11
		c4.02-22.65,35.37-40.29,73.44-40.29c38.05,0,69.38,17.61,73.43,40.24C707.44,167.08,732.6,182.81,732.6,202.1z"/>
	<path class="st14" d="M1060.56,181.07c0,24.77-27.71,44.85-61.9,44.85c-8.99,0-17.52-1.39-25.23-3.89
		c-10.28,3.7-22.63,5.86-35.91,5.86c-35.76,0-64.75-15.64-64.75-34.94c0-13.72,14.66-25.6,36-31.31c-0.21-1.36-0.31-2.74-0.31-4.14
		c0-21.8,25.61-39.48,57.2-39.48c21.22,0,39.75,7.98,49.62,19.83C1041.4,143.11,1060.56,160.47,1060.56,181.07z"/>
</g>
</svg>
