<?xml version="1.0" encoding="utf-8"?>
<!-- Generator: Adobe Illustrator 24.0.0, SVG Export Plug-In . SVG Version: 6.00 Build 0)  -->
<svg version="1.1" id="Layer_2" xmlns="http://www.w3.org/2000/svg" xmlns:xlink="http://www.w3.org/1999/xlink" x="0px" y="0px"
	 viewBox="0 0 1200 582" style="enable-background:new 0 0 1200 582;" xml:space="preserve">
<style type="text/css">
	.st0{fill:#FFFFFF;
		animation:snowfall2 5s linear infinite;
	}

	.st1{fill:#FFFFFF;
		animation:snowfall 10s linear infinite;
	}

	.st2{fill:#FFFFFF;
		animation:snowfall 20s linear infinite;
	}

	.st3{fill:#FFFFFF;
		animation:snowfall 30s linear infinite;
	

	}


	.st0:nth-child(2){ animation-delay: 2s;animation:snowfall 10s linear infinite;}
	.st0:nth-child(4){animation-delay: 2s;animation:snowfall 10s linear infinite;}
	.st0:nth-child(6){animation-delay: 2s;animation:snowfall 10s linear infinite;}
	.st0:nth-child(8){animation-delay: 3s;}
	.st0:nth-child(12){ animation-delay: 2s;animation:snowfall 10s linear infinite;}
	.st0:nth-child(14){animation-delay: 2s;animation:snowfall 10s linear infinite;}
	.st0:nth-child(16){animation-delay: 2s;animation:snowfall 10s linear infinite;}
	.st0:nth-child(18){animation-delay: 3s;}
	.st0:nth-child(22){ animation-delay: 2s;animation:snowfall 10s linear infinite;}
	.st0:nth-child(24){animation-delay: 2s;animation:snowfall 10s linear infinite;}
	.st0:nth-child(26){animation-delay: 2s;animation:snowfall 10s linear infinite;}
	.st0:nth-child(28){animation-delay: 3s;}
	.st0:nth-child(32){ animation-delay: 2s;animation:snowfall 10s linear infinite;}
	.st0:nth-child(34){animation-delay: 2s;animation:snowfall 10s linear infinite;}
	.st0:nth-child(36){animation-delay: 2s;animation:snowfall 10s linear infinite;}
	.st0:nth-child(38){animation-delay: 3s;}
	.st0:nth-child(42){ animation-delay: 2s;animation:snowfall 10s linear infinite;}
	.st0:nth-child(44){animation-delay: 2s;animation:snowfall 10s linear infinite;}
	.st0:nth-child(46){animation-delay: 2s;animation:snowfall 10s linear infinite;}
	.st0:nth-child(48){animation-delay: 3s;}
	.st0:nth-child(52){ animation-delay: 2s;animation:snowfall 10s linear infinite;}
	.st0:nth-child(54){animation-delay: 2s;animation:snowfall 10s linear infinite;}
	.st0:nth-child(56){animation-delay: 2s;animation:snowfall 10s linear infinite;}
	.st0:nth-child(58){animation-delay: 3s;}
	
	.st1:nth-child(2){ animation-delay: 2s;animation:snowfall 10s linear infinite;}
	.st1:nth-child(4){animation-delay: 2s;animation:snowfall 10s linear infinite;}
	.st1:nth-child(6){animation-delay: 2s;animation:snowfall 10s linear infinite;}
	.st1:nth-child(8){animation-delay: 3s;}
	.st1:nth-child(12){ animation-delay: 2s;animation:snowfall 10s linear infinite;}
	.st1:nth-child(14){animation-delay: 2s;animation:snowfall 10s linear infinite;}
	.st1:nth-child(16){animation-delay: 2s;animation:snowfall 10s linear infinite;}
	.st1:nth-child(18){animation-delay: 3s;}
	.st1:nth-child(22){ animation-delay: 2s;animation:snowfall 10s linear infinite;}
	.st1:nth-child(24){animation-delay: 2s;animation:snowfall 10s linear infinite;}
	.st1:nth-child(26){animation-delay: 2s;animation:snowfall 10s linear infinite;}
	.st1:nth-child(28){animation-delay: 3s;}
	.st1:nth-child(32){ animation-delay: 2s;animation:snowfall 10s linear infinite;}
	.st1:nth-child(34){animation-delay: 2s;animation:snowfall 10s linear infinite;}
	.st1:nth-child(36){animation-delay: 2s;animation:snowfall 10s linear infinite;}
	.st1:nth-child(38){animation-delay: 3s;}
	.st1:nth-child(42){ animation-delay: 2s;animation:snowfall 10s linear infinite;}
	.st1:nth-child(44){animation-delay: 2s;animation:snowfall 10s linear infinite;}
	.st1:nth-child(46){animation-delay: 2s;animation:snowfall 10s linear infinite;}
	.st1:nth-child(48){animation-delay: 3s;}
	.st1:nth-child(52){ animation-delay: 2s;animation:snowfall 10s linear infinite;}
	.st1:nth-child(54){animation-delay: 2s;animation:snowfall 10s linear infinite;}
	.st1:nth-child(56){animation-delay: 2s;animation:snowfall 10s linear infinite;}

	.st1:nth-child(58){animation-delay: 3s;}
	.st2:nth-child(2){ animation-delay: 2s;animation:snowfall 10s linear infinite;}
	.st2:nth-child(4){animation-delay: 2s;animation:snowfall 10s linear infinite;}
	.st2:nth-child(6){animation-delay: 2s;animation:snowfall 10s linear infinite;}
	.st2:nth-child(8){animation-delay: 3s;}
	.st2:nth-child(12){ animation-delay: 2s;animation:snowfall 10s linear infinite;}
	.st2:nth-child(14){animation-delay: 2s;animation:snowfall 10s linear infinite;}
	.st2:nth-child(16){animation-delay: 2s;animation:snowfall 10s linear infinite;}
	.st2:nth-child(18){animation-delay: 3s;}
	.st2:nth-child(22){ animation-delay: 2s;animation:snowfall 10s linear infinite;}
	.st2:nth-child(24){animation-delay: 2s;animation:snowfall 10s linear infinite;}
	.st2:nth-child(26){animation-delay: 2s;animation:snowfall 10s linear infinite;}
	.st2:nth-child(28){animation-delay: 3s;}
	.st2:nth-child(32){ animation-delay: 2s;animation:snowfall 10s linear infinite;}
	.st2:nth-child(34){animation-delay: 2s;animation:snowfall 10s linear infinite;}
	.st2:nth-child(36){animation-delay: 2s;animation:snowfall 10s linear infinite;}
	.st2:nth-child(38){animation-delay: 3s;}
	.st2:nth-child(42){ animation-delay: 2s;animation:snowfall 10s linear infinite;}
	.st2:nth-child(44){animation-delay: 2s;animation:snowfall 10s linear infinite;}
	.st2:nth-child(46){animation-delay: 2s;animation:snowfall 10s linear infinite;}
	.st2:nth-child(48){animation-delay: 3s;}
	.st2:nth-child(52){ animation-delay: 2s;animation:snowfall 10s linear infinite;}
	.st2:nth-child(54){animation-delay: 2s;animation:snowfall 10s linear infinite;}
	.st2:nth-child(56){animation-delay: 2s;animation:snowfall 10s linear infinite;}
	.st2:nth-child(58){animation-delay: 3s;}



	@keyframes snowfall {
		0% {transform: translate3d(0px, 5%, 0px);
		opacity:0; }
		90%{
			opacity:1;
		}
		100% {transform: translate3d(0px, 100%, 0px); 
				opacity:0;
		}
	}


	@keyframes snowfall2 {
		0% {transform: translate3d(0px, 5%, 0px);
		opacity:0; }
		90%{
			opacity:1;
		}
		100% {transform: translate3d(10%, 100%, 0px); 
				opacity:0;
		}
	}




	
</style>
<circle class="st0" cx="60.11" cy="49.06" r="6.32"/>
<circle class="st0" cx="265.61" cy="171.27" r="5.39"/>
<circle class="st0" cx="436" cy="513.04" r="6.32"/>
<circle class="st0" cx="615.23" cy="123.94" r="6.32"/>
<circle class="st0" cx="410.5" cy="62.45" r="6.32"/>
<circle class="st0" cx="616" cy="184.65" r="5.39"/>
<circle class="st0" cx="786.39" cy="526.43" r="6.32"/>
<circle class="st0" cx="965.63" cy="137.32" r="6.32"/>
<circle class="st0" cx="-18.78" cy="272.34" r="4.3"/>
<circle class="st0" cx="120.91" cy="355.41" r="3.67"/>
<circle class="st0" cx="236.74" cy="587.73" r="4.3"/>
<circle class="st0" cx="358.57" cy="323.23" r="4.3"/>
<circle class="st0" cx="219.4" cy="281.44" r="4.3"/>
<circle class="st0" cx="359.09" cy="364.5" r="3.67"/>
<circle class="st0" cx="474.92" cy="596.83" r="4.3"/>
<circle class="st0" cx="596.76" cy="332.33" r="4.3"/>
<circle class="st0" cx="594.07" cy="64.18" r="6.32"/>
<circle class="st0" cx="799.57" cy="186.38" r="5.39"/>
<circle class="st0" cx="969.97" cy="528.16" r="6.32"/>
<circle class="st0" cx="1149.2" cy="139.05" r="6.32"/>
<circle class="st0" cx="944.47" cy="77.56" r="6.32"/>
<circle class="st0" cx="1149.97" cy="199.76" r="5.39"/>
<circle class="st0" cx="1320.36" cy="541.54" r="6.32"/>
<circle class="st0" cx="1499.59" cy="152.43" r="6.32"/>
<circle class="st0" cx="515.18" cy="287.45" r="4.3"/>
<circle class="st0" cx="654.87" cy="370.52" r="3.67"/>
<circle class="st0" cx="770.7" cy="602.85" r="4.3"/>
<circle class="st0" cx="892.54" cy="338.35" r="4.3"/>
<circle class="st0" cx="753.37" cy="296.55" r="4.3"/>
<circle class="st0" cx="893.06" cy="379.62" r="3.67"/>
<circle class="st0" cx="1008.89" cy="611.95" r="4.3"/>
<circle class="st0" cx="1130.72" cy="347.44" r="4.3"/>
<circle class="st0" cx="19.38" cy="21.97" r="4.26"/>
<circle class="st0" cx="158.08" cy="104.45" r="3.64"/>
<circle class="st0" cx="273.08" cy="335.12" r="4.26"/>
<circle class="st0" cx="394.05" cy="72.5" r="4.26"/>
<circle class="st0" cx="255.87" cy="31" r="4.26"/>
<circle class="st0" cx="394.57" cy="113.48" r="3.64"/>
<circle class="st0" cx="509.57" cy="344.16" r="4.26"/>
<circle class="st0" cx="630.54" cy="81.53" r="4.26"/>
<circle class="st0" cx="-33.87" cy="172.66" r="2.9"/>
<circle class="st0" cx="60.41" cy="228.73" r="2.47"/>
<circle class="st0" cx="138.59" cy="385.54" r="2.9"/>
<circle class="st0" cx="220.82" cy="207.01" r="2.9"/>
<circle class="st0" cx="126.89" cy="178.8" r="2.9"/>
<circle class="st0" cx="221.17" cy="234.87" r="2.47"/>
<circle class="st0" cx="299.35" cy="391.68" r="2.9"/>
<circle class="st0" cx="381.58" cy="213.15" r="2.9"/>
<circle class="st0" cx="379.77" cy="32.17" r="4.26"/>
<circle class="st0" cx="518.47" cy="114.65" r="3.64"/>
<circle class="st0" cx="633.47" cy="345.32" r="4.26"/>
<circle class="st0" cx="754.44" cy="82.7" r="4.26"/>
<circle class="st0" cx="616.26" cy="41.2" r="4.26"/>
<circle class="st0" cx="754.96" cy="123.68" r="3.64"/>
<circle class="st0" cx="869.96" cy="354.36" r="4.26"/>
<circle class="st0" cx="990.93" cy="91.74" r="4.26"/>
<circle class="st0" cx="326.52" cy="182.86" r="2.9"/>
<circle class="st0" cx="420.81" cy="238.93" r="2.47"/>
<circle class="st0" cx="498.98" cy="395.74" r="2.9"/>
<circle class="st0" cx="581.21" cy="217.22" r="2.9"/>
<circle class="st0" cx="487.28" cy="189" r="2.9"/>
<circle class="st0" cx="581.56" cy="245.07" r="2.47"/>
<circle class="st0" cx="659.74" cy="401.88" r="2.9"/>
<circle class="st0" cx="741.97" cy="223.36" r="2.9"/>


<circle class="st1" cx="60.11" cy="49.06" r="6.32"/>
<circle class="st1" cx="265.61" cy="171.27" r="5.39"/>
<circle class="st1" cx="436" cy="513.04" r="6.32"/>
<circle class="st1" cx="615.23" cy="123.94" r="6.32"/>
<circle class="st1" cx="410.5" cy="62.45" r="6.32"/>
<circle class="st1" cx="616" cy="184.65" r="5.39"/>
<circle class="st1" cx="786.39" cy="526.43" r="6.32"/>
<circle class="st1" cx="965.63" cy="137.32" r="6.32"/>
<circle class="st1" cx="-18.78" cy="272.34" r="4.3"/>
<circle class="st1" cx="120.91" cy="355.41" r="3.67"/>
<circle class="st1" cx="236.74" cy="587.73" r="4.3"/>
<circle class="st1" cx="358.57" cy="323.23" r="4.3"/>
<circle class="st1" cx="219.4" cy="281.44" r="4.3"/>
<circle class="st1" cx="359.09" cy="364.5" r="3.67"/>
<circle class="st1" cx="474.92" cy="596.83" r="4.3"/>
<circle class="st1" cx="596.76" cy="332.33" r="4.3"/>
<circle class="st1" cx="594.07" cy="64.18" r="6.32"/>
<circle class="st1" cx="799.57" cy="186.38" r="5.39"/>
<circle class="st1" cx="969.97" cy="528.16" r="6.32"/>
<circle class="st1" cx="1149.2" cy="139.05" r="6.32"/>
<circle class="st1" cx="944.47" cy="77.56" r="6.32"/>
<circle class="st1" cx="1149.97" cy="199.76" r="5.39"/>
<circle class="st1" cx="1320.36" cy="541.54" r="6.32"/>
<circle class="st1" cx="1499.59" cy="152.43" r="6.32"/>
<circle class="st1" cx="515.18" cy="287.45" r="4.3"/>
<circle class="st1" cx="654.87" cy="370.52" r="3.67"/>
<circle class="st1" cx="770.7" cy="602.85" r="4.3"/>
<circle class="st1" cx="892.54" cy="338.35" r="4.3"/>
<circle class="st1" cx="753.37" cy="296.55" r="4.3"/>
<circle class="st1" cx="893.06" cy="379.62" r="3.67"/>
<circle class="st1" cx="1008.89" cy="611.95" r="4.3"/>
<circle class="st1" cx="1130.72" cy="347.44" r="4.3"/>
<circle class="st1" cx="19.38" cy="21.97" r="4.26"/>
<circle class="st1" cx="158.08" cy="104.45" r="3.64"/>
<circle class="st1" cx="273.08" cy="335.12" r="4.26"/>
<circle class="st1" cx="394.05" cy="72.5" r="4.26"/>
<circle class="st1" cx="255.87" cy="31" r="4.26"/>
<circle class="st1" cx="394.57" cy="113.48" r="3.64"/>
<circle class="st1" cx="509.57" cy="344.16" r="4.26"/>
<circle class="st1" cx="630.54" cy="81.53" r="4.26"/>
<circle class="st1" cx="-33.87" cy="172.66" r="2.9"/>
<circle class="st1" cx="60.41" cy="228.73" r="2.47"/>
<circle class="st1" cx="138.59" cy="385.54" r="2.9"/>
<circle class="st1" cx="220.82" cy="207.01" r="2.9"/>
<circle class="st1" cx="126.89" cy="178.8" r="2.9"/>
<circle class="st1" cx="221.17" cy="234.87" r="2.47"/>
<circle class="st1" cx="299.35" cy="391.68" r="2.9"/>
<circle class="st1" cx="381.58" cy="213.15" r="2.9"/>
<circle class="st1" cx="379.77" cy="32.17" r="4.26"/>
<circle class="st1" cx="518.47" cy="114.65" r="3.64"/>
<circle class="st1" cx="633.47" cy="345.32" r="4.26"/>
<circle class="st1" cx="754.44" cy="82.7" r="4.26"/>
<circle class="st1" cx="616.26" cy="41.2" r="4.26"/>
<circle class="st1" cx="754.96" cy="123.68" r="3.64"/>
<circle class="st1" cx="869.96" cy="354.36" r="4.26"/>
<circle class="st1" cx="990.93" cy="91.74" r="4.26"/>
<circle class="st1" cx="326.52" cy="182.86" r="2.9"/>
<circle class="st1" cx="420.81" cy="238.93" r="2.47"/>
<circle class="st1" cx="498.98" cy="395.74" r="2.9"/>
<circle class="st1" cx="581.21" cy="217.22" r="2.9"/>
<circle class="st1" cx="487.28" cy="189" r="2.9"/>
<circle class="st1" cx="581.56" cy="245.07" r="2.47"/>
<circle class="st1" cx="659.74" cy="401.88" r="2.9"/>
<circle class="st1" cx="741.97" cy="223.36" r="2.9"/>

<circle class="st2" cx="60.11" cy="49.06" r="6.32"/>
<circle class="st2" cx="265.61" cy="171.27" r="5.39"/>
<circle class="st2" cx="436" cy="513.04" r="6.32"/>
<circle class="st2" cx="615.23" cy="123.94" r="6.32"/>
<circle class="st2" cx="410.5" cy="62.45" r="6.32"/>
<circle class="st2" cx="616" cy="184.65" r="5.39"/>
<circle class="st2" cx="786.39" cy="526.43" r="6.32"/>
<circle class="st2" cx="965.63" cy="137.32" r="6.32"/>
<circle class="st2" cx="-18.78" cy="272.34" r="4.3"/>
<circle class="st2" cx="120.91" cy="355.41" r="3.67"/>
<circle class="st2" cx="236.74" cy="587.73" r="4.3"/>
<circle class="st2" cx="358.57" cy="323.23" r="4.3"/>
<circle class="st2" cx="219.4" cy="281.44" r="4.3"/>
<circle class="st2" cx="359.09" cy="364.5" r="3.67"/>
<circle class="st2" cx="474.92" cy="596.83" r="4.3"/>
<circle class="st2" cx="596.76" cy="332.33" r="4.3"/>
<circle class="st2" cx="594.07" cy="64.18" r="6.32"/>
<circle class="st2" cx="799.57" cy="186.38" r="5.39"/>
<circle class="st2" cx="969.97" cy="528.16" r="6.32"/>
<circle class="st2" cx="1149.2" cy="139.05" r="6.32"/>
<circle class="st2" cx="944.47" cy="77.56" r="6.32"/>
<circle class="st2" cx="1149.97" cy="199.76" r="5.39"/>
<circle class="st2" cx="1320.36" cy="541.54" r="6.32"/>
<circle class="st2" cx="1499.59" cy="152.43" r="6.32"/>
<circle class="st2" cx="515.18" cy="287.45" r="4.3"/>
<circle class="st2" cx="654.87" cy="370.52" r="3.67"/>
<circle class="st2" cx="770.7" cy="602.85" r="4.3"/>
<circle class="st2" cx="892.54" cy="338.35" r="4.3"/>
<circle class="st2" cx="753.37" cy="296.55" r="4.3"/>
<circle class="st2" cx="893.06" cy="379.62" r="3.67"/>
<circle class="st2" cx="1008.89" cy="611.95" r="4.3"/>
<circle class="st2" cx="1130.72" cy="347.44" r="4.3"/>
<circle class="st2" cx="19.38" cy="21.97" r="4.26"/>
<circle class="st2" cx="158.08" cy="104.45" r="3.64"/>
<circle class="st2" cx="273.08" cy="335.12" r="4.26"/>
<circle class="st2" cx="394.05" cy="72.5" r="4.26"/>
<circle class="st2" cx="255.87" cy="31" r="4.26"/>
<circle class="st2" cx="394.57" cy="113.48" r="3.64"/>
<circle class="st2" cx="509.57" cy="344.16" r="4.26"/>
<circle class="st2" cx="630.54" cy="81.53" r="4.26"/>
<circle class="st2" cx="-33.87" cy="172.66" r="2.9"/>
<circle class="st2" cx="60.41" cy="228.73" r="2.47"/>
<circle class="st2" cx="138.59" cy="385.54" r="2.9"/>
<circle class="st2" cx="220.82" cy="207.01" r="2.9"/>
<circle class="st2" cx="126.89" cy="178.8" r="2.9"/>
<circle class="st2" cx="221.17" cy="234.87" r="2.47"/>
<circle class="st2" cx="299.35" cy="391.68" r="2.9"/>
<circle class="st2" cx="381.58" cy="213.15" r="2.9"/>
<circle class="st2" cx="379.77" cy="32.17" r="4.26"/>
<circle class="st2" cx="518.47" cy="114.65" r="3.64"/>
<circle class="st2" cx="633.47" cy="345.32" r="4.26"/>
<circle class="st2" cx="754.44" cy="82.7" r="4.26"/>
<circle class="st2" cx="616.26" cy="41.2" r="4.26"/>
<circle class="st2" cx="754.96" cy="123.68" r="3.64"/>
<circle class="st2" cx="869.96" cy="354.36" r="4.26"/>
<circle class="st2" cx="990.93" cy="91.74" r="4.26"/>
<circle class="st2" cx="326.52" cy="182.86" r="2.9"/>
<circle class="st2" cx="420.81" cy="238.93" r="2.47"/>
<circle class="st2" cx="498.98" cy="395.74" r="2.9"/>
<circle class="st2" cx="581.21" cy="217.22" r="2.9"/>
<circle class="st2" cx="487.28" cy="189" r="2.9"/>
<circle class="st2" cx="581.56" cy="245.07" r="2.47"/>
<circle class="st2" cx="659.74" cy="401.88" r="2.9"/>
<circle class="st2" cx="741.97" cy="223.36" r="2.9"/>

<circle class="st3" cx="60.11" cy="49.06" r="6.32"/>
<circle class="st3" cx="265.61" cy="171.27" r="5.39"/>
<circle class="st3" cx="436" cy="513.04" r="6.32"/>
<circle class="st3" cx="615.23" cy="123.94" r="6.32"/>
<circle class="st3" cx="410.5" cy="62.45" r="6.32"/>
<circle class="st3" cx="616" cy="184.65" r="5.39"/>
<circle class="st3" cx="786.39" cy="526.43" r="6.32"/>
<circle class="st3" cx="965.63" cy="137.32" r="6.32"/>
<circle class="st3" cx="-18.78" cy="272.34" r="4.3"/>
<circle class="st3" cx="120.91" cy="355.41" r="3.67"/>
<circle class="st3" cx="236.74" cy="587.73" r="4.3"/>
<circle class="st3" cx="358.57" cy="323.23" r="4.3"/>
<circle class="st3" cx="219.4" cy="281.44" r="4.3"/>
<circle class="st3" cx="359.09" cy="364.5" r="3.67"/>
<circle class="st3" cx="474.92" cy="596.83" r="4.3"/>
<circle class="st3" cx="596.76" cy="332.33" r="4.3"/>
<circle class="st3" cx="594.07" cy="64.18" r="6.32"/>
<circle class="st3" cx="799.57" cy="186.38" r="5.39"/>
<circle class="st3" cx="969.97" cy="528.16" r="6.32"/>
<circle class="st3" cx="1149.2" cy="139.05" r="6.32"/>
<circle class="st3" cx="944.47" cy="77.56" r="6.32"/>
<circle class="st3" cx="1149.97" cy="199.76" r="5.39"/>
<circle class="st3" cx="1320.36" cy="541.54" r="6.32"/>
<circle class="st3" cx="1499.59" cy="152.43" r="6.32"/>
<circle class="st3" cx="515.18" cy="287.45" r="4.3"/>
<circle class="st3" cx="654.87" cy="370.52" r="3.67"/>
<circle class="st3" cx="770.7" cy="602.85" r="4.3"/>
<circle class="st3" cx="892.54" cy="338.35" r="4.3"/>
<circle class="st3" cx="753.37" cy="296.55" r="4.3"/>
<circle class="st3" cx="893.06" cy="379.62" r="3.67"/>
<circle class="st3" cx="1008.89" cy="611.95" r="4.3"/>
<circle class="st3" cx="1130.72" cy="347.44" r="4.3"/>
<circle class="st3" cx="19.38" cy="21.97" r="4.26"/>
<circle class="st3" cx="158.08" cy="104.45" r="3.64"/>
<circle class="st3" cx="273.08" cy="335.12" r="4.26"/>
<circle class="st3" cx="394.05" cy="72.5" r="4.26"/>
<circle class="st3" cx="255.87" cy="31" r="4.26"/>
<circle class="st3" cx="394.57" cy="113.48" r="3.64"/>
<circle class="st3" cx="509.57" cy="344.16" r="4.26"/>
<circle class="st3" cx="630.54" cy="81.53" r="4.26"/>
<circle class="st3" cx="-33.87" cy="172.66" r="2.9"/>
<circle class="st3" cx="60.41" cy="228.73" r="2.47"/>
<circle class="st3" cx="138.59" cy="385.54" r="2.9"/>
<circle class="st3" cx="220.82" cy="207.01" r="2.9"/>
<circle class="st3" cx="126.89" cy="178.8" r="2.9"/>
<circle class="st3" cx="221.17" cy="234.87" r="2.47"/>
<circle class="st3" cx="299.35" cy="391.68" r="2.9"/>
<circle class="st3" cx="381.58" cy="213.15" r="2.9"/>
<circle class="st3" cx="379.77" cy="32.17" r="4.26"/>
<circle class="st3" cx="518.47" cy="114.65" r="3.64"/>
<circle class="st3" cx="633.47" cy="345.32" r="4.26"/>
<circle class="st3" cx="754.44" cy="82.7" r="4.26"/>
<circle class="st3" cx="616.26" cy="41.2" r="4.26"/>
<circle class="st3" cx="754.96" cy="123.68" r="3.64"/>
<circle class="st3" cx="869.96" cy="354.36" r="4.26"/>
<circle class="st3" cx="990.93" cy="91.74" r="4.26"/>
<circle class="st3" cx="326.52" cy="182.86" r="2.9"/>
<circle class="st3" cx="420.81" cy="238.93" r="2.47"/>
<circle class="st3" cx="498.98" cy="395.74" r="2.9"/>
<circle class="st3" cx="581.21" cy="217.22" r="2.9"/>
<circle class="st3" cx="487.28" cy="189" r="2.9"/>
<circle class="st3" cx="581.56" cy="245.07" r="2.47"/>
<circle class="st3" cx="659.74" cy="401.88" r="2.9"/>
<circle class="st3" cx="741.97" cy="223.36" r="2.9"/>
</svg>
