<?xml version="1.0" encoding="utf-8"?>
<!-- Generator: Adobe Illustrator 24.0.0, SVG Export Plug-In . SVG Version: 6.00 Build 0)  -->
<svg version="1.1" xmlns="http://www.w3.org/2000/svg" xmlns:xlink="http://www.w3.org/1999/xlink" x="0px" y="0px"
	 viewBox="0 0 595.28 841.89" style="enable-background:new 0 0 595.28 841.89;" xml:space="preserve">
<style type="text/css">
	.st0{display:none;}
	.st1{display:inline;}
	.st2{fill:#A91F23;}
	.st3{fill:#D52E27;}
	.st4{fill:#F5EEDD;}
	.eyeball{fill:#F5EEDD;
	animation:eyeballs 2s linear infinite;
	}

	.st5{fill:#D9706D;}
	.st6{fill:#432429;}
	.st7{display:inline;fill:#E09F79;}
	.st8{display:inline;fill:#F5EEDD;}
	.st9{fill:#F3C184;}
	.st10{fill:#DFD1B8;}
	.st11{fill:#BA2026;}
	.st12{fill:#7D6269;}

	.headball{
		fill:#F5EEDD;
		animation:headballs 2s linear infinite;
	}

	@keyframes headballs {
	0%{fill: red;
	text-shadow:3px 3px 5px 6px red; 
	}
	10%{fill: #165B33;
	text-shadow:3px 3px 5px 6px red; }
	20% {fill:#146B3A;
	text-shadow:3px 3px 5px 6px red; }
	30% {fill:#F8B229;
	text-shadow:3px 3px 5px 6px red; }
	40% {fill: #EA4630;
	text-shadow:3px 3px 5px 6px red; }
	50%{fill: #BB2528;
	text-shadow:3px 3px 5px 6px red; }
	60%{fill: #165B33;
	text-shadow:3px 3px 5px 6px red; }
	70% {fill:#146B3A;
	text-shadow:3px 3px 5px 6px red; }
	80% {fill:#F8B229;
	text-shadow:3px 3px 5px 6px red; }
	90% {fill: #EA4630;
	text-shadow:3px 3px 5px 6px red; }
	100%{fill: red;
	text-shadow:3px 3px 5px 6px red; }
	}

</style>
<g id="Layer_1">
	<g class="st0">
		<g class="st1">
			<path class="st2" d="M395.87,570.29c-4.16,2.67-20.1,4.62-35,3.71c-16.49-1-31.84-5.02-31.84-5.02l0.01,1.02H329l0.44-20.56
				l-10.24-17.35l-14.74,19.96l-8.47,16.93c-27.34,6.92-64.16,2.45-76.31,0.65c-5.88-28.84-20.16-101.05-15.76-100.99
				c30.48,0.41,94.04-1.61,116.56-34.98v-2.68h20.54l-0.3,5.56c0,0,37.69,40.87,81.28,43.33
				C430.79,480.36,406.31,544.1,395.87,570.29z"/>
			<path class="st3" d="M192.97,487.27l1.74,7.39C194.54,494.1,193.83,491.52,192.97,487.27z"/>
			<path class="st3" d="M422.09,366.6c0,0,29.51,68.47,13.22,118.33c-2.03,1.13-4.28,2.37-6.76,3.75
				c-50.04,27.81-104.17-30.88-104.17-30.88l0.65-12.42c0,0-5.55,19.21-9.43,21.54l-0.98-1.02c0,0,10.15-17.3,10.72-26.35l0.01-0.14
				l2.61-49.76h-21.45v65.6c-29.62,43.91-113.22,31.94-113.22,31.94c-3.73-18.52-10.04-68.33,15.33-120.13
				c0,0-56.87-46.49-72.66-77.63c0,0,19.4,0.45,38.81-37.01c0,0,45.58,59.57,78.98,59.57l140.36-6.31c0,0,39.01-26.84,54.75-44.18
				c1.57,7.28,5.69,14.63,12.21,20.74c8.72,8.17,19.82,12.32,29.94,12.09C480.96,307.27,441.67,356.81,422.09,366.6z"/>
			<path class="st4" d="M434.97,484.93l-0.49,1.45c-0.01,0.01-0.01,0.01-0.01,0.01c-1.05,3.02-2.27,5.98-3.69,8.84
				c0,0-0.04,0.02-0.13,0.06c-0.05,0.01-0.11,0.04-0.18,0.07c-0.14,0.06-0.33,0.13-0.56,0.23c-0.84,0.34-2.28,0.9-4.25,1.54
				c-1.8,0.59-4.04,1.26-6.66,1.9c-0.11,0.04-0.22,0.07-0.35,0.09c-20.62,5-64.22,8.61-104.37-33.22c0,0-35.04,46.93-111.77,30.71
				c-2.54-0.54-5.13-1.15-7.77-1.83l-0.03-0.12l-1.74-7.39l-0.02-0.08c0,0,3.6,0.51,9.56,0.94c22.79,1.62,80.18,1.92,103.66-32.88
				v-65.6h21.45l-3.32,63.24l-0.26,4.91c0,0,52.31,56.72,101.62,32.21c0.85-0.41,1.7-0.86,2.55-1.33
				C430.69,487.3,432.94,486.06,434.97,484.93z"/>
			<path class="st3" d="M314.56,465.72c0,0,10.87-32.02,11.69-37.01c0.82-4.99-0.7,15.61-0.7,15.61s-9.25,21.03-10.79,22.21"/>
			<path class="st5" d="M305.04,513.06"/>
			<path class="st5" d="M212.38,498.38"/>
			<path class="st6" d="M190.4,425.38c0,0,179.82,33.67,248.21-6.3l1.58,25.36c0,0-217.33,22.57-250.41-6.06"/>
			<rect x="252.96" y="425.49" class="st2" width="7.15" height="31.66"/>
			<rect x="367.23" y="425.38" class="st2" width="7.15" height="31.66"/>
			<ellipse class="st6" cx="360.35" cy="582.26" rx="31.59" ry="6.38"/>
			<path class="st4" d="M395.87,570.29c-2.7,6.78-4.46,11.04-4.46,11.04h-62.65L329,570h0.04l-0.01-1.02c0,0,15.35,4.02,31.84,5.02
				C375.77,574.91,391.71,572.96,395.87,570.29z"/>
			<ellipse class="st6" cx="256" cy="581.79" rx="33.91" ry="6.85"/>
			<path class="st4" d="M295.99,568.98l-6.18,12.35h-67.72c0,0-0.94-4.5-2.41-11.7C231.83,571.43,268.65,575.9,295.99,568.98z"/>
		</g>
		<path class="st7" d="M493.06,291.23c0,0-0.38,0.5-1.08,1.41c-0.57,0.27-1.17,0.56-1.78,0.86l-14.81-12.99
			c3.88,2.75,8.48,5.65,13.92,8.68h0.01C490.52,289.87,491.77,290.55,493.06,291.23z"/>
		<path class="st7" d="M505.34,281.81c1.29,6.16-2.11,5.65-14.41,11.52c0.7-0.91,1.08-1.41,1.08-1.41
			c-1.29-0.68-2.54-1.36-3.74-2.04h-0.01c-5.44-3.03-10.04-5.93-13.92-8.68c-0.01,0-0.02-0.01-0.03-0.02l-14.09-12.36l-8.95-7.85
			l-0.53-1.91c0,0,0.02-0.35,0.08-0.91c0.38-3.34,2.39-14.34,11.98-6.92c0,0,1.91,5.71,0.01,10.15
			c0.45-0.63,16.99-23.59,22.42-16.71c0,0,3.59,6.55-6.53,16.69c0.78-0.65,16.57-13.76,20.29-6.53c0,0,1.89,8-11.13,13.93
			c1.45-0.57,19.72-7.63,17.9,1.31c0,0,2.53,3.16-12.01,11.19C494.54,280.99,504.46,277.61,505.34,281.81z"/>
		<path class="st8" d="M493.06,291.23c0,0-0.38,0.5-1.08,1.41c-0.35,0.46-0.79,1.03-1.31,1.69c-10.12,0.23-21.22-3.92-29.94-12.09
			c-6.52-6.11-10.64-13.46-12.21-20.74c1.28-1.42,2.41-2.77,3.35-4.04c-0.06,0.56-0.08,0.91-0.08,0.91l0.53,1.91l8.95,7.85
			c3.1,3.62,7.6,7.77,14.09,12.36c0.01,0.01,0.02,0.02,0.03,0.02c3.88,2.75,8.48,5.65,13.92,8.68h0.01
			C490.52,289.87,491.77,290.55,493.06,291.23z"/>
		<path class="st7" d="M505.34,281.81c1.29,6.16-2.11,5.65-14.41,11.52c0.7-0.91,1.08-1.41,1.08-1.41
			c-1.29-0.68-2.54-1.36-3.74-2.04h-0.01c-5.44-3.03-10.04-5.93-13.92-8.68c-0.01,0-0.02-0.01-0.03-0.02l-14.09-12.36l-8.95-7.85
			l-0.53-1.91c0,0,0.02-0.35,0.08-0.91c0.38-3.34,2.39-14.34,11.98-6.92c0,0,1.91,5.71,0.01,10.15
			c0.45-0.63,16.99-23.59,22.42-16.71c0,0,3.59,6.55-6.53,16.69c0.78-0.65,16.57-13.76,20.29-6.53c0,0,1.89,8-11.13,13.93
			c1.45-0.57,19.72-7.63,17.9,1.31c0,0,2.53,3.16-12.01,11.19C494.54,280.99,504.46,277.61,505.34,281.81z"/>
		<path class="st7" d="M122.3,278.68c-1.29,6.16,2.11,5.65,14.41,11.52c-0.7-0.91-1.08-1.41-1.08-1.41
			c1.29-0.68,2.54-1.36,3.74-2.04h0.01c5.44-3.03,10.04-5.93,13.92-8.68c0.01,0,0.02-0.01,0.03-0.02l14.09-12.36l8.95-7.85
			l0.53-1.91c0,0-0.02-0.35-0.08-0.91c-0.38-3.34-2.39-14.34-11.98-6.92c0,0-1.91,5.71-0.01,10.15
			c-0.45-0.63-16.99-23.59-22.42-16.71c0,0-3.59,6.55,6.53,16.69c-0.78-0.65-16.57-13.76-20.29-6.53c0,0-1.89,8,11.13,13.93
			c-1.45-0.57-19.72-7.63-17.9,1.31c0,0-2.53,3.16,12.01,11.19C133.1,277.86,123.18,274.48,122.3,278.68z"/>
		<path class="st8" d="M133.91,289.12c0,0,0.4,0.52,1.13,1.47c0.37,0.48,0.83,1.07,1.37,1.76c10.58,0.24,22.19-4.08,31.3-12.57
			c6.82-6.35,11.12-14,12.77-21.57c-1.34-1.48-2.52-2.88-3.5-4.2c0.06,0.58,0.08,0.95,0.08,0.95l-0.55,1.99l-9.36,8.16
			c-3.24,3.76-7.95,8.08-14.73,12.85c-0.01,0.01-0.02,0.02-0.03,0.02c-4.06,2.86-8.87,5.88-14.55,9.03h-0.01
			C136.57,287.7,135.26,288.41,133.91,289.12z"/>
	</g>
	<ellipse class="st9" cx="316.21" cy="220.23" rx="109.45" ry="103.13"/>
	<path class="st4" d="M430.76,241.55c0,37.03,37.05,160.73-116.8,160.71c-131.83-0.02-111.45-125.83-111.45-160.71
		c0-16.38,2.65-32.06,7.49-46.5c16.41,48.95,57.96,83.71,106.63,83.71s90.23-34.76,106.63-83.71
		C428.11,209.49,430.76,225.17,430.76,241.55z"/>
	<path class="st10" d="M297.69,253.97c0,0-2.08-2.2-8.06,1.34c-4.06,2.4-8.03,7.76-13.19,10.62c-8.71,4.84-18.58,5.46-21.62-6.35
		c0,0-16.85,47.38,28.94,42.99c0,0-3.42,2.08,3.05,2.32c0,0,20.76-3.79,30.65-20.64c0,0,18.81,30.29,34.68,18.93l-8.79-2.81
		c0,0,46.53,11.36,36.76-39.2c0,0-8.67,17.83-26.01,4.27c0,0-10.75-12.58-17.1-12.33C330.67,253.36,297.69,253.97,297.69,253.97z"/>
	<ellipse class="st5" cx="316.64" cy="252.42" rx="18.96" ry="12.13"/>
	<path class="st10" d="M399.54,183.14c0,0.55-0.12,1.1-0.36,1.63c-1.79-5.48-16-8.41-32.77-6.57c-12.69,1.38-23.36,5.12-28.05,9.34
		c-1.75-1.34-2.72-2.83-2.72-4.4c0-6.01,14.3-10.88,31.95-10.88C385.24,172.26,399.54,177.13,399.54,183.14z"/>
	<path class="st10" d="M233.78,183.14c0,0.55,0.12,1.1,0.36,1.63c1.79-5.48,16-8.41,32.77-6.57c12.69,1.38,23.36,5.12,28.05,9.34
		c1.75-1.34,2.72-2.83,2.72-4.4c0-6.01-14.3-10.88-31.95-10.88C248.09,172.26,233.78,177.13,233.78,183.14z"/>
	<path class="st3" d="M227.97,158.46c0,0,42.75-122.23,159.56-74.83c0,0,35.29,14.23,55.67,65.73l-13.26,12.13l-36.62-34.04
		l14.42,34.04C407.75,161.49,328.39,93.74,227.97,158.46z"/>
	<path class="st10" d="M413.3,174.26c-74.74-36.52-151.84-18.07-191.79-3.5c9.25-26.39,48.44-46.21,95.37-46.21
		C365.88,124.55,406.42,146.14,413.3,174.26z"/>
	<circle class="headball" cx="438.61" cy="160.07" r="18.19"/>
	<polyline class="st11" points="399.54,146.99 355.87,95.93 418.17,126.23 416.46,144.27 385.48,114.65 391.61,132.35 	"/>
	<g>
		<path class="st12" d="M352.37,213.5c-6.83-6.64-6.99-17.56-0.35-24.39c6.64-6.84,17.56-6.99,24.39-0.35
			c6.84,6.64,6.99,17.56,0.35,24.39c-0.8,0.82-1.67,1.55-2.58,2.18c-5.72,3.97-13.33,4.08-19.17,0.28
			C354.08,215,353.19,214.3,352.37,213.5z"/>
		<path class="eyeball" d="M355.01,215.6c-0.24-2.7,0.64-5.48,2.68-7.58c3.7-3.81,9.79-3.89,13.6-0.19c2.1,2.04,3.07,4.8,2.89,7.49
			C368.46,219.29,360.85,219.4,355.01,215.6z"/>
	</g>
	<g>
		<path class="st12" d="M257.39,213.5c-6.83-6.64-6.99-17.56-0.35-24.39c6.64-6.84,17.56-6.99,24.39-0.35
			c6.84,6.64,6.99,17.56,0.35,24.39c-0.8,0.82-1.67,1.55-2.58,2.18c-5.72,3.97-13.33,4.08-19.17,0.28
			C259.1,215,258.21,214.3,257.39,213.5z"/>
		<path class="st4" d="M260.03,215.6c-0.24-2.7,0.64-5.48,2.68-7.58c3.7-3.81,9.79-3.89,13.6-0.19c2.1,2.04,3.07,4.8,2.89,7.49
			C273.48,219.29,265.87,219.4,260.03,215.6z"/>
	</g>
</g>
<g id="Layer_2" class="st0">
</g>
</svg>
