<?xml version="1.0" encoding="utf-8"?>
<!-- Generator: Adobe Illustrator 24.0.0, SVG Export Plug-In . SVG Version: 6.00 Build 0)  -->
<svg version="1.1" xmlns="http://www.w3.org/2000/svg" xmlns:xlink="http://www.w3.org/1999/xlink" x="0px" y="0px"
	 viewBox="0 0 1200 582" style="enable-background:new 0 0 1200 582;" xml:space="preserve">

	 <style type="text/css">
		#Layer_1{
		fill:#F5EEDD;
		animation:mycolors 2s linear infinite;
	}
	
	

	@keyframes mycolors {
	0%{fill: white;}
	10%{fill: #165B33;}
	20% {fill:#146B3A;}
	30% {fill:#F8B229;}
	40% {fill: #EA4630;}
	50%{fill: #BB2528;}
	60%{fill: #165B33;}
	70% {fill:#146B3A;}
	80% {fill:#F8B229; }
	90% {fill: #EA4630; }
	100%{fill: white; }
	}
</style>


<g id="Layer_2">
</g>
<g id="Layer_1">
	<g>
		<path d="M102.8,239.24l0.36-1.69c0.08-0.4,0.08-0.81,0-1.21c-0.16-0.81-0.06-1.96,0.3-3.45c0.36-1.49,0.48-3.07,0.36-4.72
			c-0.12-1.65-0.12-2.92,0-3.81c0.12-0.89,0.22-1.33,0.3-1.33c0.4,0,0.52-0.4,0.36-1.21c-0.32-0.73-0.04-1.77,0.85-3.15
			c-0.16-0.81-0.16-1.47,0-2c0.16-0.52,0.32-1.15,0.48-1.88c3.47-1.29,5.85-0.89,7.14,1.21c0.48,0.73,1.17,1.13,2.06,1.21
			c0.16,0.48,0.42,0.93,0.79,1.33c0.36,0.4,0.67,0.83,0.91,1.27c0.24,0.44,0.46,0.87,0.67,1.27c0.2,0.4,0.5,0.81,0.91,1.21
			c0.48,3.87,1.05,7.02,1.69,9.44c0.08,0.97,0.26,1.68,0.54,2.12c0.28,0.44,0.52,0.89,0.73,1.33c0.2,0.44,0.36,0.93,0.48,1.45
			c0.12,0.53,0.26,1.05,0.42,1.57c0.16,0.53,0.36,1.03,0.6,1.51s0.44,0.97,0.61,1.45c0,0.81,0.06,1.23,0.18,1.27
			c0.12,0.04,0.22,0.2,0.3,0.48c0.08,0.28,0.2,0.75,0.36,1.39c0.73,2.83,1.57,4.44,2.54,4.84c0.08,0.48-0.02,0.75-0.3,0.79
			c-0.28,0.04-0.26,0.53,0.06,1.45c0.32,0.93,0.62,2.24,0.91,3.93c0.28,1.69,0.87,3.11,1.76,4.24c-0.08,0.89,0.16,2.22,0.73,3.99
			c0.56,1.78,0.73,3.11,0.48,4c0.16,0.4,0.46,0.87,0.91,1.39c0.44,0.53,0.77,1.43,0.97,2.72c0.2,1.29,0.38,2.22,0.54,2.78l0.36,1.33
			l0.85,2.66c0.24,0.65,0.46,1.35,0.67,2.12c0.2,0.77,0.71,1.35,1.51,1.76c0.89,0,1.45-0.32,1.69-0.97c0.4-1.21,0.81-1.98,1.21-2.3
			c0.16-0.89,0.65-1.67,1.45-2.36c0.81-0.68,1.49-1.31,2.06-1.88c0.16-0.89,0.54-1.69,1.15-2.42c0.6-0.73,0.99-1.57,1.15-2.54
			c0.81-0.4,1.41-1.21,1.82-2.42c0.73-0.24,1.29-0.73,1.69-1.45l0.85-1.82c0.24-0.48,0.4-0.87,0.48-1.15
			c0.08-0.28,0.22-0.52,0.42-0.73c0.2-0.2,0.38-0.58,0.54-1.15c0.16-0.56,0.38-1.11,0.67-1.63c0.28-0.52,0.95-0.99,2-1.39
			c0-0.65,0.16-1.09,0.48-1.33c0.32-0.24,0.44-0.73,0.36-1.45c0.24-0.08,0.44-0.32,0.6-0.73c0.16-0.4,0.34-0.83,0.54-1.27
			c0.2-0.44,0.38-0.87,0.54-1.27c0.16-0.4,0.36-0.68,0.6-0.85c0.16-0.81,0.81-2.1,1.94-3.87c1.21-2.34,2.1-4.44,2.66-6.29
			c1.45-1.13,2.64-2.7,3.57-4.72c0.93-2.02,1.39-3.35,1.39-3.99c0.56-0.4,0.93-0.87,1.09-1.39c0.16-0.52,0.38-1.13,0.67-1.82
			c0.28-0.68,0.56-1.63,0.85-2.84c0.28-1.21,0.67-1.98,1.15-2.3c-0.16-0.65-0.08-1.19,0.24-1.63c0.32-0.44,0.56-0.95,0.73-1.51
			l0.73-2.18c0.32-0.89,0.77-1.65,1.33-2.3c0.89,0,1.67-0.1,2.36-0.3c0.68-0.2,1.59-0.22,2.72-0.06c0.4,0.32,0.71,0.75,0.91,1.27
			c0.2,0.53,0.5,0.99,0.91,1.39c0,0.65,0.22,1.39,0.67,2.24c0.44,0.85,0.67,1.56,0.67,2.12l1.57,5.93l-0.12,2.06l0.97,3.87
			c0,0.32,0.12,0.85,0.36,1.57c0.24,0.73,0.32,1.25,0.24,1.57c-0.08,0.32-0.02,0.79,0.18,1.39c0.2,0.61,0.24,0.97,0.12,1.09
			c-0.12,0.12-0.14,0.3-0.06,0.54l0.48,1.82l-0.12,1.57c0.48,1.37,0.71,2.54,0.67,3.51c-0.04,0.97-0.04,1.84,0,2.6
			c0.04,0.77,0.16,1.41,0.36,1.94c0.2,0.53,0.24,1.11,0.12,1.76c-0.12,0.65-0.08,1.17,0.12,1.57c0.2,0.4,0.3,1.41,0.3,3.03
			c0.16,1.13,0.26,2.36,0.3,3.69c0.04,1.33,0.14,2.4,0.3,3.21c0.16,0.81,0.3,1.39,0.42,1.76s0.24,0.79,0.36,1.27
			s0.14,1.07,0.06,1.76c-0.08,0.69,0.16,1.27,0.73,1.76c-0.32,1.05-0.36,2.14-0.12,3.27c0.48,2.34,0.65,3.96,0.48,4.84
			c-0.16,0.89-0.08,1.62,0.24,2.18c0.48,1.13,0.73,2.26,0.73,3.39v2.06l-0.24,2.3l0.48,1.57l0.12,1.33
			c0.32,0.97,0.48,2.02,0.48,3.15l-0.24,3.51c0,0.48,0.06,1.01,0.18,1.57c0.12,0.57,0.22,1.15,0.3,1.75c0.08,0.61,0.08,1.31,0,2.12
			c-0.08,0.81,0.2,1.49,0.85,2.06c0.65-0.16,1.29-0.28,1.94-0.36c0.65-0.08,1.21-0.2,1.69-0.36c0.48-0.16,0.93-0.4,1.33-0.73
			c0.4-0.32,0.87-0.56,1.39-0.73c0.52-0.16,0.77,0,0.73,0.48c-0.04,0.48,0.14,0.85,0.54,1.09c0.4,0.24,0.65,0.71,0.73,1.39
			c0.08,0.69-0.04,1.23-0.36,1.63c-0.32,0.41-0.93,0.81-1.82,1.21c-0.89,0.4-1.51,0.59-1.88,0.54c-0.36-0.04-0.77,0.02-1.21,0.18
			c-0.44,0.16-0.97,0.3-1.57,0.42c-0.61,0.12-1.07,0.24-1.39,0.36c-0.32,0.12-0.61,0.24-0.85,0.36c-0.24,0.12-0.51,0.24-0.79,0.36
			c-0.28,0.12-0.61,0.16-0.97,0.12c-0.36-0.04-0.69-0.02-0.97,0.06c-0.28,0.08-0.53,0.2-0.73,0.36c-0.2,0.16-0.54,0.3-1.03,0.42
			c-0.48,0.12-1.11,0.16-1.88,0.12c-0.77-0.04-1.47,0.02-2.12,0.18c-0.65,0.16-1.17,0.36-1.57,0.6c-0.4,0.24-0.77,0.42-1.09,0.54
			c-0.32,0.12-0.67,0.14-1.03,0.06c-0.36-0.08-0.81-0.02-1.33,0.18c-0.53,0.2-0.91,0.26-1.15,0.18c-0.24-0.08-0.57-0.02-0.97,0.18
			c-0.4,0.2-0.81,0.5-1.21,0.91c-0.4,0.4-0.85,0.63-1.33,0.67c-0.48,0.04-0.91-0.06-1.27-0.3c-0.36-0.24-0.71-0.4-1.03-0.48
			c-0.73-1.61-0.4-3.03,0.97-4.24c0.48-0.4,0.81-0.6,0.97-0.6c0.16,0,0.38-0.12,0.67-0.36c0.28-0.24,0.48-0.34,0.61-0.3
			c0.12,0.04,0.44-0.12,0.97-0.48c0.52-0.36,1.23-0.77,2.12-1.21c0.89-0.44,1.57-0.95,2.06-1.51c-0.08-0.48-0.08-0.95,0-1.39
			c0.08-0.44,0.08-0.97,0-1.57c-0.08-0.61-0.28-1.19-0.6-1.76c-0.32-0.56-0.54-1.09-0.67-1.57s-0.14-0.89-0.06-1.21
			c0.16-0.73,0.06-1.51-0.3-2.36c-0.36-0.85-0.54-2.06-0.54-3.63c0-1.57-0.32-2.8-0.97-3.69c0.4-2.34,0.38-4.72-0.06-7.14
			c-0.44-2.42-0.73-3.81-0.85-4.18s-0.18-0.75-0.18-1.15l0.36-2.78l-1.69-8.84v-2.66l-0.36-1.82c-0.08-0.32-0.06-0.65,0.06-0.97
			c0.12-0.32,0.18-0.65,0.18-0.97l-0.85-2.66c0.24-0.81,0.28-1.49,0.12-2.06c-0.4-1.45-0.51-3.63-0.3-6.54
			c0.2-2.91-0.1-5.29-0.91-7.14c0.32,0,0.42-0.2,0.3-0.6c-0.12-0.4-0.06-0.65,0.18-0.73c-0.24-0.81-0.24-1.43,0-1.88
			c0.24-0.44,0.04-0.95-0.6-1.51c-0.24,0.48-0.69,1.19-1.33,2.12c-0.65,0.93-1.05,1.8-1.21,2.6c-0.32,0.08-0.54,0.28-0.67,0.61
			c-0.12,0.32-0.42,0.48-0.91,0.48c0,0.73-0.16,1.25-0.48,1.57c-0.32,0.32-0.57,0.73-0.73,1.21c-0.24,0.24-0.28,0.5-0.12,0.79
			c0.16,0.28,0.12,0.71-0.12,1.27c-0.24,0.73-1.17,2.32-2.78,4.78c-1.62,2.46-2.58,4.34-2.91,5.63c-0.4,0.32-0.77,0.71-1.09,1.15
			c-0.32,0.44-0.71,0.87-1.15,1.27c-0.44,0.4-0.89,1.11-1.33,2.12c-0.44,1.01-0.87,1.68-1.27,2c-0.08,0.4-0.12,0.77-0.12,1.09v1.09
			c-0.73,0.32-1.29,0.81-1.69,1.45c-0.4,0.65-0.93,1.21-1.57,1.69c-1.05,1.69-2.02,2.87-2.91,3.51c-0.24,0.48-0.48,1.33-0.73,2.54
			c-0.73,0.4-1.27,0.97-1.63,1.69c-0.36,0.73-0.79,1.43-1.27,2.12c-0.48,0.69-0.77,1.13-0.85,1.33c-0.08,0.2-0.18,0.44-0.3,0.73
			c-0.12,0.28-0.2,0.63-0.24,1.03c-0.04,0.4-0.3,0.65-0.79,0.73c-0.16,0.57-0.16,1.25,0,2.06c-0.89,0.65-1.69,1.53-2.42,2.66
			c-0.32,0.89-0.59,1.33-0.79,1.33c-0.2,0-0.38,0.26-0.54,0.79c-0.16,0.53-0.4,0.83-0.73,0.91c-0.16,0.32-0.26,0.69-0.3,1.09
			c-0.04,0.4-0.14,0.77-0.3,1.09c-1.78,0.16-3.71,0.65-5.81,1.45c-0.73-0.24-1.33-0.62-1.82-1.15c-0.48-0.52-0.97-0.99-1.45-1.39
			c-0.32-2.34-0.93-4.12-1.82-5.33c0.16-0.65,0.16-1.23,0-1.76c-0.16-0.52-0.3-1.07-0.42-1.63c-0.12-0.56-0.2-1.11-0.24-1.63
			c-0.04-0.52-0.14-1.05-0.3-1.57c-0.16-0.52-0.3-1.03-0.42-1.51c-0.12-0.48-0.26-0.99-0.42-1.51c-0.16-0.52-0.28-1.05-0.36-1.57
			c-0.08-0.52-0.22-1.09-0.42-1.69c-0.2-0.61-0.34-1.15-0.42-1.63l-0.36-1.82c-0.08-0.73-0.4-1.41-0.97-2.06
			c0.24-1.94-0.4-3.83-1.94-5.69c-0.16-0.24-0.32-0.91-0.48-2c-0.16-1.09-0.47-2.7-0.91-4.84c-0.44-2.14-1.03-3.21-1.76-3.21
			c-0.73,0-1.19,0.1-1.39,0.3c-0.2,0.2-0.26,0.5-0.18,0.91c0.08,0.4,0.18,0.89,0.3,1.45c0.12,0.57,0.1,1.09-0.06,1.57
			c-0.16,0.48-0.3,1.05-0.42,1.69c-0.12,0.65-0.3,1.17-0.54,1.57c0.16,1.05,0.1,2.18-0.18,3.39c-0.28,1.21-0.42,2.42-0.42,3.63
			l-0.48,6.17c0,0.24-0.04,0.47-0.12,0.67c-0.08,0.2,0,0.42,0.24,0.67c-0.4,0.4-0.61,0.93-0.61,1.57c0,0.65-0.08,1.35-0.24,2.12
			c-0.16,0.77-0.32,1.35-0.48,1.76c-0.16,0.4-0.16,1.01,0,1.82c-0.16,1.94-0.38,3.41-0.67,4.42c-0.28,1.01-0.47,1.94-0.54,2.78
			c-0.08,0.85-0.08,1.41,0,1.69c0.08,0.28,0.12,0.54,0.12,0.79l-0.73,1.82c-0.08,0.48-0.08,1.01,0,1.57c0.08,0.57,0.08,0.97,0,1.21
			c-0.08,0.57-0.3,1.41-0.67,2.54c-0.36,1.13-0.54,1.74-0.54,1.82c0.65,0.48,0.65,1.49,0,3.03l-0.24,2.3c0,0.97,0.3,1.55,0.91,1.76
			c0.61,0.2,1.55,0.44,2.84,0.73c1.29,0.28,1.94,0.57,1.94,0.85c0,0.28,0.1,0.77,0.3,1.45c0.2,0.69,0.22,1.15,0.06,1.39
			c-0.16,0.24-0.28,0.44-0.36,0.61c-0.08,0.48-0.48,0.75-1.21,0.79c-0.73,0.04-1.17,0.14-1.33,0.3c-0.16-0.08-0.32-0.12-0.48-0.12
			h-0.85l-4,0.36c-0.32,0-0.87-0.02-1.63-0.06c-0.77-0.04-1.59-0.08-2.48-0.12c-0.89-0.04-1.76-0.08-2.6-0.12
			c-0.85-0.04-1.56,0-2.12,0.12c-0.57,0.12-1.31,0.1-2.24-0.06c-0.93-0.16-1.94-0.24-3.03-0.24c-1.09,0-2.3,0.06-3.63,0.18
			c-1.33,0.12-2.44-0.1-3.33-0.67c-0.08-0.4-0.2-0.93-0.36-1.57c-0.16-0.64-0.04-1.17,0.36-1.57c0.16-0.48,0.53-0.77,1.09-0.85
			c0.57-0.08,1.05-0.18,1.45-0.3c0.4-0.12,0.75-0.16,1.03-0.12c0.28,0.04,0.65-0.04,1.09-0.24c0.44-0.2,0.89-0.26,1.33-0.18
			c0.44,0.08,0.75,0.12,0.91,0.12c0.48-0.56,0.79-0.83,0.91-0.79c0.12,0.04,0.26,0.02,0.42-0.06c0.24-0.4,0.68-0.77,1.33-1.09
			c0.16-1.13,0.24-2.44,0.24-3.93c0-1.49,0.16-2.72,0.48-3.69c0-1.21,0.08-1.98,0.24-2.3c0.4-0.64,0.46-1.39,0.18-2.24
			c-0.28-0.85-0.26-1.57,0.06-2.18c0.32-0.61,0.56-1.15,0.73-1.63c0.16-0.48,0.18-1.01,0.06-1.57c-0.12-0.56-0.14-1.21-0.06-1.94
			c0.08-0.73,0.18-1.53,0.3-2.42c0.12-0.89,0.18-1.82,0.18-2.78l-0.12-2.06c0.08-0.4,0.28-0.89,0.61-1.45
			c0.32-0.56,0.48-1.9,0.48-3.99l0.6-8.35c0-1.61,0.12-2.84,0.36-3.69c0.24-0.85,0.32-1.43,0.24-1.76c-0.08-0.32,0.02-0.79,0.3-1.39
			c0.28-0.61,0.46-1.19,0.54-1.76l-0.36-1.82c0.16-0.89,0.2-1.37,0.12-1.45c0.48-2.26,0.52-3.75,0.12-4.48
			c0.73-0.73,1.03-1.71,0.91-2.97c-0.12-1.25-0.04-2.18,0.24-2.78c0.28-0.61,0.38-1.39,0.3-2.36
			C102.72,241.29,102.72,240.29,102.8,239.24z"/>
		<path d="M221.55,237.3c0.4,0.97,0.61,2.83,0.61,5.57c0.24,1.21,0.36,1.9,0.36,2.06l-0.24,2.3c0,0.08,0.16,1.41,0.48,4
			c-0.16,0.81-0.18,1.51-0.06,2.12c0.12,0.61,0.14,1.15,0.06,1.63l-0.24,2.3c0,0.57,0.08,1.13,0.24,1.69
			c0.16,0.57,0.04,1.13-0.36,1.69c0.24,0.97,0.44,1.57,0.6,1.82c-0.4,0.97-0.6,1.94-0.6,2.91l0.36,3.15l-0.6,3.15l0.36,4.48
			c-0.4,2.02-0.6,3.31-0.6,3.87c0,0.57,0.06,1.27,0.18,2.12c0.12,0.85,0.12,1.47,0,1.88c-0.12,0.4-0.1,0.81,0.06,1.21
			c0.32,0.57,0.81,0.81,1.45,0.73c0.65-0.08,1.35-0.04,2.12,0.12c0.77,0.16,1.33,0.2,1.69,0.12c0.36-0.08,0.75-0.08,1.15,0l2.3,0.24
			l2.54-0.24c0.65-0.08,1.23-0.04,1.76,0.12c0.52,0.16,1.03,0.2,1.51,0.12c0.73-0.65,1.09-1.57,1.09-2.78s0.16-2.38,0.48-3.51
			c0.4-0.4,1.69-0.48,3.87-0.24c0.65,0.57,0.99,1.57,1.03,3.03c0.04,1.45,0.1,3.03,0.18,4.72l0.12,2.3c0,0.16,0.04,0.36,0.12,0.61
			c0.08,0.24,0.08,0.67,0,1.27c-0.08,0.6-0.08,1.07,0,1.39c0.08,0.32,0.08,0.75,0,1.27c-0.08,0.53-0.08,0.87,0,1.03
			c0.08,0.16,0.08,0.44,0,0.85c-0.08,0.4-0.4,0.95-0.97,1.63c-0.57,0.69-1.11,1.03-1.63,1.03c-0.53,0-0.87-0.06-1.03-0.18
			c-0.16-0.12-0.34-0.26-0.54-0.42c-0.2-0.16-0.4-0.34-0.6-0.54c-0.2-0.2-0.54-0.3-1.03-0.3c-0.16-1.13-0.44-1.98-0.85-2.54
			c-0.4-0.56-0.53-1.45-0.36-2.66c-1.21-0.4-2.44-0.6-3.69-0.6c-1.25,0-2.42,0.06-3.51,0.18c-1.09,0.12-1.98,0.14-2.66,0.06
			c-0.69-0.08-1.31-0.02-1.88,0.18c-0.57,0.2-1.07,0.38-1.51,0.54c-0.44,0.16-0.95,0.32-1.51,0.48v3.87l-0.61,7.38l0.36,2.91
			c0,0.48-0.12,1.01-0.36,1.57c-0.24,0.57-0.32,1.05-0.24,1.45c0.08,0.41,0.22,0.75,0.42,1.03c0.2,0.28,0.34,0.59,0.42,0.91
			c0.4,0.16,0.81,0.24,1.21,0.24c0.4,0,0.77,0.04,1.09,0.12c0.32,0.08,0.61,0.18,0.85,0.3s0.48,0.18,0.73,0.18l1.82-0.12l1.69,0.12
			l3.15-0.61c0.56,0.24,1.57,0.12,3.03-0.36l3.87,0.48l1.45-0.24c0.48,0,0.97,0.06,1.45,0.18c0.48,0.12,0.93,0.02,1.33-0.3
			c0.65,0.48,1.47,0.69,2.48,0.61c1.01-0.08,1.96-0.04,2.84,0.12c0.4-0.08,0.97-0.61,1.69-1.57c0.16-0.56,0.24-1.01,0.24-1.33
			c0-0.32,0.14-0.73,0.42-1.21c0.28-0.48,0.56-0.93,0.85-1.33c0.28-0.4,0.56-0.81,0.85-1.21c0.28-0.4,0.75-0.64,1.39-0.73
			c0.65-0.08,1.19,0.22,1.63,0.91c0.44,0.69,0.67,1.27,0.67,1.76s0.02,0.87,0.06,1.15c0.04,0.28-0.06,0.79-0.3,1.51
			s-0.32,1.27-0.24,1.63c0.08,0.36,0,0.89-0.24,1.57c-0.24,0.69-0.32,1.29-0.24,1.82c0.08,0.53,0.08,1.13,0,1.82
			c-0.08,0.69-0.06,1.23,0.06,1.63c0.12,0.4,0.16,0.81,0.12,1.21c-0.04,0.4-0.12,0.85-0.24,1.33s-0.22,0.93-0.3,1.33
			c-0.73,0.4-1.31,0.79-1.76,1.15c-0.44,0.36-1.23,0.46-2.36,0.3c-0.4-0.4-0.73-0.85-0.97-1.33c-0.24-0.48-0.53-0.93-0.85-1.33
			c-0.08-0.48-0.08-0.99,0-1.51c0.08-0.53,0.04-0.91-0.12-1.15c-0.81-0.56-1.33-0.89-1.57-0.97c-0.24-0.08-0.5-0.18-0.79-0.3
			c-0.28-0.12-0.65-0.14-1.09-0.06c-0.44,0.08-0.79-0.12-1.03-0.6c-0.4,0.16-0.89,0.22-1.45,0.18c-0.57-0.04-1.05,0.02-1.45,0.18
			c-0.4,0.16-0.67,0.1-0.79-0.18c-0.12-0.28-0.47-0.34-1.03-0.18c-0.81,0.57-1.43,0.91-1.88,1.03c-0.44,0.12-0.79,0.34-1.03,0.67
			c-0.4-0.16-0.81-0.36-1.21-0.61c-0.4-0.24-0.83-0.38-1.27-0.42c-0.44-0.04-0.85,0.02-1.21,0.18c-0.36,0.16-0.87,0.18-1.51,0.06
			c-0.65-0.12-1.07-0.12-1.27,0c-0.2,0.12-0.38,0.18-0.54,0.18l-1.33-0.24l-2.42,0.61l-1.82-0.12l-1.82-0.48
			c-1.78,0-3.05,0.28-3.81,0.85c-0.77,0.56-1.47,0.89-2.12,0.97l-1.57-0.12c-0.32,0.08-0.59,0.3-0.79,0.67
			c-0.2,0.36-0.47,0.54-0.79,0.54c-0.32,0-0.91-0.2-1.76-0.61c-0.85-0.4-1.63-0.59-2.36-0.54c-0.73,0.04-1.53,0.16-2.42,0.36
			c-0.89,0.2-1.78,0.22-2.66,0.06l-0.24-1.45c-0.32-1.37,0.04-2.34,1.09-2.91c0.48-0.24,1.23-0.52,2.24-0.85
			c1.01-0.32,1.71-0.73,2.12-1.21l-0.36-1.82c-0.08-0.32-0.06-0.77,0.06-1.33c0.12-0.56-0.02-1.25-0.42-2.06l0.73-1.57l-0.12-1.45
			l0.24-1.45c0-0.89-0.12-1.94-0.36-3.15l-0.12-1.33l0.24-1.82c0-1.53-0.08-3.19-0.24-4.96l0.73-6.29c0-0.65-0.16-1.25-0.48-1.82
			c-0.08-0.4-0.06-0.79,0.06-1.15s0.18-0.67,0.18-0.91c0-0.24-0.12-0.85-0.36-1.82l0.24-3.63c-0.4-1.37-0.54-2.54-0.42-3.51
			c0.12-0.97,0.18-1.9,0.18-2.78l-0.12-15.37v-4.48l0.24-2.18l-0.24-3.15l0.24-1.82l-0.12-2.06l-0.24-2.42
			c-0.16-1.13-0.16-1.94,0-2.42c0.16-0.48,0.2-1.05,0.12-1.69c-0.24-0.65-0.59-1.09-1.03-1.33c-0.44-0.24-0.97-0.5-1.57-0.79
			c-0.61-0.28-1.05-0.54-1.33-0.79c-0.28-0.24-0.59-0.4-0.91-0.48c0.08-0.56-0.02-1.11-0.3-1.63c-0.28-0.52-0.34-1.11-0.18-1.76
			c0.48-0.48,1.53-0.73,3.15-0.73c1.61,0,2.7-0.28,3.27-0.85c0.4-0.08,0.67-0.02,0.79,0.18c0.12,0.2,0.4,0.28,0.85,0.24
			c0.44-0.04,0.91,0,1.39,0.12c0.48,0.12,0.93,0.1,1.33-0.06c0.81,0.16,1.43,0.24,1.88,0.24c0.44,0,0.81-0.08,1.09-0.24
			c0.28-0.16,0.6-0.28,0.97-0.36c0.36-0.08,0.85-0.04,1.45,0.12c0.61,0.16,1.51,0.2,2.72,0.12c1.21-0.08,2.3-0.04,3.27,0.12
			c0.97,0.16,1.57,0.18,1.82,0.06s0.52-0.22,0.85-0.3l2.06-0.12c1.21,0.24,1.9,0.36,2.06,0.36c0.16,0,0.36-0.04,0.6-0.12
			c0.24-0.08,0.5-0.16,0.79-0.24c0.28-0.08,0.56-0.08,0.85,0c0.28,0.08,0.5-0.08,0.67-0.48c0.24,0.24,0.68,0.53,1.33,0.85
			c0.56-0.24,1.15-0.3,1.76-0.18c0.6,0.12,1.35,0.2,2.24,0.24c0.89,0.04,1.51-0.02,1.88-0.18c0.36-0.16,0.85-0.28,1.45-0.36
			c0.61-0.08,1.25-0.08,1.94,0c0.68,0.08,1.23,0,1.63-0.24c0.73-1.21,1.17-2.42,1.33-3.63c0.16-1.21,0.48-2.14,0.97-2.78
			c1.61-0.56,2.74-0.73,3.39-0.48c0.56,0.81,0.93,1.29,1.09,1.45c0.56,0.4,0.93,1.35,1.09,2.84c0.16,1.49,0.6,2.72,1.33,3.69
			c-0.24,0.65-0.34,1.37-0.3,2.18c0.04,0.81-0.18,1.41-0.67,1.82c0.08,0.65,0.2,1.25,0.36,1.82c0.16,0.57,0.16,1.25,0,2.06
			c-0.4,0.73-0.57,1.09-0.48,1.09c0.08,0,0.12,0.34,0.12,1.03c0,0.69-0.04,1.37-0.12,2.06c-0.08,0.69-0.16,1.39-0.24,2.12
			c-0.65,0.89-1.62,1.45-2.91,1.69c-1.37,0.48-2.42,0.36-3.15-0.36c-0.16-0.08-0.38-0.18-0.67-0.3c-0.28-0.12-0.5-0.26-0.67-0.42
			c0.16-0.4,0.18-0.83,0.06-1.27c-0.12-0.44-0.2-0.83-0.24-1.15c-0.04-0.32-0.02-0.62,0.06-0.91c0.08-0.28,0.04-0.91-0.12-1.88
			c-0.16-0.97-0.14-1.59,0.06-1.88c0.2-0.28,0.1-0.83-0.3-1.63c-0.48-0.24-1.03-0.36-1.63-0.36c-0.61,0-1.49,0.08-2.66,0.24
			c-1.17,0.16-2.08,0.04-2.72-0.36c-0.16,0.32-0.44,0.42-0.85,0.3c-0.4-0.12-0.69-0.02-0.85,0.3c-0.65-0.48-1.29-0.67-1.94-0.54
			c-0.65,0.12-1.29,0.1-1.94-0.06l-1.69-0.48h-1.09c-1.05,0-1.76,0.14-2.12,0.42c-0.36,0.28-1.07,0.42-2.12,0.42l-2.91,0.48
			c-0.4,0.4-0.69,0.65-0.85,0.73C223.69,235.52,222.68,236.17,221.55,237.3z"/>
		<path d="M269.85,250.37l0.48-3.27c0-0.24-0.06-0.5-0.18-0.79c-0.12-0.28-0.14-0.87-0.06-1.76c0.08-0.89,0.22-2,0.42-3.33
			c0.2-1.33,0.26-2.68,0.18-4.06c-1.62,0.16-3.25,0.2-4.9,0.12c-1.66-0.08-3.25,0-4.78,0.24c-0.24-0.4-0.48-0.81-0.73-1.21
			c-0.24-0.4-0.4-0.93-0.48-1.57c0.4-0.16,0.68-0.44,0.85-0.85c0.16-0.4,0.52-0.56,1.09-0.48c0.32-0.16,0.61-0.34,0.85-0.54
			c0.24-0.2,0.68-0.34,1.33-0.42c0.65-0.08,1.21-0.24,1.69-0.48s1.13-0.28,1.94-0.12c0.81,0.16,1.76,0.14,2.84-0.06
			c1.09-0.2,1.76-0.32,2-0.36c0.24-0.04,0.4-0.22,0.48-0.54c0.32,0,0.54,0.1,0.67,0.3c0.12,0.2,0.46,0.28,1.03,0.24
			c0.56-0.04,1.09-0.3,1.57-0.79c0.32,0.24,0.67,0.3,1.03,0.18c0.36-0.12,0.75-0.2,1.15-0.24c0.4-0.04,0.79-0.04,1.15,0
			c0.36,0.04,0.87-0.06,1.51-0.3c0.65-0.24,1.23-0.3,1.76-0.18c0.52,0.12,0.95-0.02,1.27-0.42c0.4,0.16,0.99,0.24,1.76,0.24
			c0.77,0,1.35-0.16,1.76-0.48c1.29,0.32,2.12,0.4,2.48,0.24c0.36-0.16,1.03-0.14,2,0.06c0.97,0.2,2.46,0.32,4.48,0.36
			c2.02,0.04,3.55,0.16,4.6,0.36c1.05,0.2,1.88,0.36,2.48,0.48s1.07,0.18,1.39,0.18c0.32,0,0.77,0.16,1.33,0.48
			c0.56,0.32,0.99,0.67,1.27,1.03c0.28,0.36,0.61,0.63,0.97,0.79c0.36,0.16,0.77,0.32,1.21,0.48c0.44,0.16,0.91,0.34,1.39,0.54
			c0.48,0.2,0.97,0.54,1.45,1.03s1.13,0.81,1.94,0.97c0.73,0.89,1.41,1.45,2.06,1.69c0.24,0.65,0.89,1.29,1.94,1.94
			c0.08,0.57,0.28,1.03,0.61,1.39c0.32,0.36,0.58,0.71,0.79,1.03c0.2,0.32,0.32,0.61,0.36,0.85c0.04,0.24,0.18,0.6,0.42,1.09
			s0.5,0.99,0.79,1.51c0.28,0.53,0.61,1.29,0.97,2.3c0.36,1.01,0.83,1.96,1.39,2.85c-0.16,0.97-0.12,1.88,0.12,2.72
			c0.24,0.85,0.36,1.39,0.36,1.63s0.18,0.83,0.54,1.76c0.36,0.93,0.38,1.74,0.06,2.42c-0.32,0.69-0.53,1.21-0.61,1.57
			c-0.08,0.36-0.1,0.77-0.06,1.21c0.04,0.44,0,0.99-0.12,1.63c-0.12,0.65-0.14,1.05-0.06,1.21c0.08,0.16,0.08,0.36,0,0.61
			c-0.73,0.65-1.09,1.09-1.09,1.33s-0.06,0.57-0.18,0.97c-0.12,0.4-0.34,0.75-0.67,1.03c-0.32,0.28-0.48,0.91-0.48,1.88
			c-0.32,0.16-0.53,0.38-0.6,0.67c-0.08,0.28-0.2,0.57-0.36,0.85c-0.16,0.28-0.28,0.57-0.36,0.85c-0.08,0.28-0.24,0.57-0.48,0.85
			c-0.24,0.28-0.59,0.59-1.03,0.91c-0.44,0.32-0.75,0.73-0.91,1.21c-0.32-0.08-0.54,0.06-0.67,0.42s-0.42,0.47-0.91,0.3
			c-0.4,0.32-0.73,0.67-0.97,1.03s-0.59,0.63-1.03,0.79c-0.44,0.16-0.79,0.3-1.03,0.42s-0.67,0.26-1.27,0.42
			c-0.61,0.16-1.15,0.4-1.63,0.73c-0.48,0-0.85,0.14-1.09,0.42c-0.24,0.28-0.53,0.34-0.85,0.18c-0.4,0.57-0.99,0.91-1.76,1.03
			c-0.77,0.12-1.35,0.51-1.76,1.15c0.16,0.97,0.65,1.84,1.45,2.6c0.81,0.77,1.61,1.47,2.42,2.12c0.08,0.65,0.87,2.08,2.36,4.3
			c1.49,2.22,2.34,3.79,2.54,4.72c0.2,0.93,0.38,1.56,0.54,1.88c0.16,0.32,0.4,0.91,0.73,1.75c0.32,0.85,0.65,1.74,0.97,2.66
			c0.32,0.93,0.65,1.82,0.97,2.66c0.32,0.85,0.54,1.41,0.67,1.69c0.12,0.28,0.28,0.61,0.48,0.97c0.2,0.36,0.34,0.69,0.42,0.97
			c0.08,0.28,0.26,0.91,0.54,1.88c0.28,0.97,0.67,2.42,1.15,4.36s0.85,3.19,1.09,3.75c0.24,0.56,0.44,1.07,0.61,1.51
			c0.16,0.44,0.34,0.93,0.54,1.45c0.2,0.52,0.4,1.01,0.6,1.45c0.2,0.44,0.34,0.83,0.42,1.15c0.08,0.32,0.28,0.71,0.61,1.15
			c0.32,0.44,0.65,0.95,0.97,1.51c0.32,0.32,0.58,0.75,0.79,1.27c0.2,0.52,0.5,0.99,0.91,1.39c0.81,0.24,1.23,0.4,1.27,0.48
			c0.04,0.08,0.18,0.16,0.42,0.24c0.65,0.32,1.96,0.38,3.93,0.18c1.98-0.2,3.13-0.5,3.45-0.91c0.32-0.4,0.87-0.75,1.63-1.03
			c0.77-0.28,1.23-0.59,1.39-0.91l0.97-1.21c0.24-0.97,0.46-1.57,0.67-1.82c0.2-0.24,0.36-0.59,0.48-1.03
			c0.12-0.44,0.14-1.01,0.06-1.69c-0.08-0.69-0.12-1.35-0.12-2c0.16-0.32,0.06-0.59-0.3-0.79c-0.36-0.2-0.59-0.5-0.67-0.91
			c-0.08-0.4-0.2-0.68-0.36-0.85c-0.24-0.16-0.46-0.36-0.67-0.61c-0.2-0.24-0.63-0.5-1.27-0.79c-0.65-0.28-1.37-0.12-2.18,0.48
			c-0.81,0.6-1.49,1.39-2.06,2.36l-2.78-0.12c-0.57-0.41-0.93-0.97-1.09-1.7c-0.16-0.73-0.44-1.41-0.85-2.06
			c0-0.56,0.24-1.09,0.73-1.57l1.09-1.09c0.24-0.24,0.44-0.56,0.61-0.97c1.13-0.32,1.77-0.5,1.94-0.54c0.16-0.04,0.42-0.14,0.79-0.3
			c0.36-0.16,1.01-0.48,1.94-0.97c0.93-0.48,1.71-0.54,2.36-0.18c0.65,0.36,1.37,0.63,2.18,0.79c0.16,0.16,0.26,0.38,0.3,0.67
			c0.04,0.28,0.14,0.5,0.3,0.67c0.56,0.32,0.97,0.63,1.21,0.91c0.24,0.28,0.6,0.46,1.09,0.54c0.56,0.81,1.11,1.63,1.63,2.48
			c0.52,0.85,0.71,1.96,0.54,3.33c0.48,1.53,0.68,2.82,0.6,3.87c-0.08,1.05-0.08,1.71,0,2c0.08,0.28-0.04,0.71-0.36,1.27l-0.85,1.82
			c-0.81,1.45-1.43,2.4-1.88,2.84c-0.44,0.44-0.83,0.89-1.15,1.33c-0.32,0.44-0.75,0.93-1.27,1.45c-0.53,0.52-1.05,0.79-1.57,0.79
			c-0.53,0-1.03,0.18-1.51,0.54s-1.41,0.54-2.78,0.54c-1.37,0-2.22-0.12-2.54-0.36c-1.45,1.21-3.11,1.25-4.96,0.12
			c-0.73-0.41-1.53-0.48-2.42-0.24c-2.02-1.37-3.67-2.26-4.96-2.66c-0.16-0.16-0.22-0.42-0.18-0.79c0.04-0.36,0.06-0.75,0.06-1.15
			c-0.65,0-1.13-0.04-1.45-0.12c0-0.16-0.28-0.67-0.85-1.51c-0.57-0.85-0.97-1.49-1.21-1.94c-0.24-0.44-0.4-0.71-0.48-0.79
			c-0.73-0.32-1.19-0.67-1.39-1.03c-0.2-0.36-0.38-0.61-0.54-0.73c-0.16-0.12-0.44-0.59-0.85-1.39c-0.89-1.78-1.78-3.55-2.66-5.33
			l-0.61-1.33c-0.24-0.65-0.57-1.45-0.97-2.42c-2.02-4.84-3.03-7.71-3.03-8.59c-0.32-0.32-0.65-0.65-0.97-0.97
			c-0.24-1.29-0.6-2.06-1.09-2.3c0.16-0.65,0.08-1.13-0.24-1.45c-0.32-0.32-0.4-0.81-0.24-1.45c-0.57-0.4-1.11-1.53-1.63-3.39
			c-0.53-1.86-0.79-2.92-0.79-3.21c0-0.28-0.02-0.61-0.06-0.97c-0.04-0.36-0.18-0.71-0.42-1.03c-0.24-0.32-0.36-0.81-0.36-1.45
			c-0.65-0.73-1.35-1.41-2.12-2.06c-0.77-0.65-1.47-1.41-2.12-2.3c-1.94-0.24-3.75-1.13-5.45-2.66c-0.32-0.08-0.61-0.1-0.85-0.06
			c-0.24,0.04-0.54,0.02-0.91-0.06c-0.36-0.08-0.73-0.24-1.09-0.48c-0.36-0.24-0.81-0.3-1.33-0.18c-0.53,0.12-0.81,0.24-0.85,0.36
			c-0.04,0.12-0.3,0.48-0.79,1.09c-0.48,0.6-0.57,1.33-0.24,2.18c0.32,0.85,0.46,1.68,0.42,2.48c-0.04,0.81-0.12,1.72-0.24,2.72
			c-0.12,1.01-0.18,1.68-0.18,2l0.48,7.63c0,0.41-0.12,0.97-0.36,1.7l0.12,2.42c-0.08,0.73-0.12,1.53-0.12,2.42v2.3
			c-0.16,0.57-0.2,0.91-0.12,1.03c0.08,0.12,0.06,0.5-0.06,1.15c-0.12,0.65-0.14,1.25-0.06,1.82c0.08,0.57,0.08,1.35,0,2.36
			c-0.08,1.01-0.24,2.12-0.48,3.33c-0.24,1.21-0.08,2.38,0.48,3.51c1.29,0.4,2.22,0.56,2.78,0.48l1.33-0.36
			c0.97,0.24,1.63,0.34,2,0.3c0.36-0.04,0.87,0.02,1.51,0.18c0.16,0.24,0.26,0.52,0.3,0.85c0.04,0.32,0.1,0.65,0.18,0.97
			c0.32,0.08,0.44,0.32,0.36,0.73c-0.08,0.4-0.12,0.81-0.12,1.21c-0.97,0.73-2.22,0.89-3.75,0.48c-0.4-0.08-0.61,0.08-0.61,0.48
			c0,0.4-0.16,0.61-0.48,0.61c-0.24-0.24-0.47-0.26-0.67-0.06c-0.2,0.2-0.54,0.32-1.03,0.36c-0.48,0.04-1.01-0.02-1.57-0.18
			c-1.37-0.57-2.5-0.2-3.39,1.09c-0.4-0.32-1.01-0.48-1.82-0.48c-0.81,0-1.37,0.24-1.69,0.73c-0.32-0.41-0.67-0.54-1.03-0.42
			s-0.75,0.26-1.15,0.42c-0.65-0.48-1.29-0.57-1.94-0.24c-0.65,0.32-1.39,0.54-2.24,0.67c-0.85,0.12-1.41,0.32-1.69,0.61
			c-0.28,0.28-0.71,0.42-1.27,0.42l-0.36-0.12c-0.48,0-0.97,0.12-1.45,0.36c-1.05,0.56-2.06,0.16-3.03-1.21
			c0.16-0.48,0.26-0.93,0.3-1.33c0.04-0.41,0.14-0.77,0.3-1.09c0.32-0.32,0.65-0.44,0.97-0.36c0.65,0.08,1.25-0.16,1.82-0.73
			c0.16-0.08,0.89-0.28,2.18-0.61c1.29-0.32,1.94-0.54,1.94-0.67s0.34-0.22,1.03-0.3c0.68-0.08,1.19-0.44,1.51-1.09
			c0.08-0.65,0.02-1.15-0.18-1.51c-0.2-0.36-0.38-0.83-0.54-1.39c0.16-1.13,0.12-2.28-0.12-3.45c-0.24-1.17-0.32-2.1-0.24-2.78
			c0.08-0.68,0.16-1.17,0.24-1.45c0.08-0.28,0.12-0.54,0.12-0.79l-0.24-1.94c-0.08-0.32-0.08-0.62,0-0.91
			c0.08-0.28,0.04-1.15-0.12-2.6l-0.24-2.18c0.24-0.73,0.36-1.29,0.36-1.7l-0.24-2.42c-0.08-0.4-0.1-0.83-0.06-1.27
			c0.04-0.44,0.06-0.87,0.06-1.27c-0.32-1.05-0.44-1.61-0.36-1.69c0.08-0.08,0.08-0.28,0-0.61l-0.36-2.42
			c-0.16-1.13-0.16-2.3,0-3.51c0.16-1.21,0.24-2.26,0.24-3.15v-2.91c0-0.97-0.04-1.77-0.12-2.42l-0.24-1.94
			c-0.08-0.89-0.06-2,0.06-3.33s0.14-2.16,0.06-2.48c-0.08-0.32-0.12-0.69-0.12-1.09v-2.54l-1.09-5.21l0.12-2.18
			c0.16-0.97,0.24-1.98,0.24-3.03v-1.69c0-0.24-0.06-0.46-0.18-0.67c-0.12-0.2-0.22-0.56-0.3-1.09c-0.08-0.52-0.04-1.23,0.12-2.12
			c0.16-0.89,0.24-1.57,0.24-2.06S270.1,251.1,269.85,250.37z M296.49,234.88l-8.47,0.24c-1.45,1.21-2.95,1.69-4.48,1.45
			c-0.16,0.4-0.5,0.73-1.03,0.97c-0.53,0.24-0.93,0.77-1.21,1.57c-0.28,0.81-0.16,1.69,0.36,2.66c0.52,0.97,0.81,1.8,0.85,2.48
			c0.04,0.69,0.18,1.27,0.42,1.76l0.12,3.51c0.08,1.37,0.08,2.72,0,4.06c-0.08,1.33-0.12,2.54-0.12,3.63c0,1.09,0.04,2.04,0.12,2.84
			c0.08,0.81,0.14,1.57,0.18,2.3c0.04,0.73,0.02,1.45-0.06,2.18c-0.08,0.73-0.02,1.59,0.18,2.6c0.2,1.01,0.26,1.76,0.18,2.24
			c-0.08,0.48-0.06,1.05,0.06,1.69c0.12,0.65,0.18,1.37,0.18,2.18c0,0.81,0.16,1.41,0.48,1.82c0.08,0.32,0.06,0.69-0.06,1.09
			c-0.12,0.4,0.02,0.57,0.42,0.48c0.08,0.4,0.3,0.54,0.67,0.42s1.37-0.08,3.03,0.12c1.65,0.2,3.05-0.02,4.18-0.67
			c2.66,1.29,5.12,1.29,7.38,0c0.89-0.48,1.86-0.81,2.91-0.97c0.4-0.65,0.87-1.11,1.39-1.39c0.52-0.28,1.03-0.62,1.51-1.03
			c0.16-0.48,0.34-0.83,0.54-1.03c0.2-0.2,0.22-0.58,0.06-1.15c1.05-0.4,1.86-1.37,2.42-2.91c0.08-0.32,0.26-0.48,0.54-0.48
			c0.28,0,0.42-0.2,0.42-0.61c0.16,0,0.18-0.18,0.06-0.54c-0.12-0.36,0-0.91,0.36-1.63c0.36-0.73,0.54-1.69,0.54-2.91
			c0.73-0.65,1.05-1.55,0.97-2.72c-0.08-1.17,0.12-2.28,0.6-3.33c-0.48-0.73-0.81-1.61-0.97-2.66c0.08-0.32,0.1-0.77,0.06-1.33
			c-0.04-0.56-0.04-1.01,0-1.33c0.04-0.32,0.02-0.71-0.06-1.15c-0.08-0.44-0.22-0.85-0.42-1.21c-0.2-0.36-0.22-0.79-0.06-1.27
			c-0.73-0.97-1.21-2.18-1.45-3.63c-0.65-0.65-1.01-0.95-1.09-0.91c-0.08,0.04-0.3-0.16-0.67-0.6c-0.36-0.44-0.67-0.89-0.91-1.33
			c-0.24-0.44-0.57-0.75-0.97-0.91c-0.4-0.56-0.81-0.93-1.21-1.09c-0.4-0.16-0.71-0.34-0.91-0.54c-0.2-0.2-0.4-0.34-0.61-0.42
			c-0.2-0.08-0.42-0.2-0.67-0.36c-1.13-1.29-2.22-1.9-3.27-1.82C297.98,235.32,297.13,235.2,296.49,234.88z"/>
		<path d="M345.15,250.37l0.48-3.27c0-0.24-0.06-0.5-0.18-0.79c-0.12-0.28-0.14-0.87-0.06-1.76c0.08-0.89,0.22-2,0.42-3.33
			c0.2-1.33,0.26-2.68,0.18-4.06c-1.62,0.16-3.25,0.2-4.9,0.12c-1.66-0.08-3.25,0-4.78,0.24c-0.24-0.4-0.48-0.81-0.73-1.21
			c-0.24-0.4-0.4-0.93-0.48-1.57c0.4-0.16,0.68-0.44,0.85-0.85c0.16-0.4,0.52-0.56,1.09-0.48c0.32-0.16,0.61-0.34,0.85-0.54
			c0.24-0.2,0.68-0.34,1.33-0.42c0.65-0.08,1.21-0.24,1.69-0.48s1.13-0.28,1.94-0.12c0.81,0.16,1.76,0.14,2.84-0.06
			c1.09-0.2,1.76-0.32,2-0.36c0.24-0.04,0.4-0.22,0.48-0.54c0.32,0,0.54,0.1,0.67,0.3c0.12,0.2,0.46,0.28,1.03,0.24
			c0.56-0.04,1.09-0.3,1.57-0.79c0.32,0.24,0.67,0.3,1.03,0.18c0.36-0.12,0.75-0.2,1.15-0.24c0.4-0.04,0.79-0.04,1.15,0
			c0.36,0.04,0.87-0.06,1.51-0.3c0.65-0.24,1.23-0.3,1.76-0.18c0.52,0.12,0.95-0.02,1.27-0.42c0.4,0.16,0.99,0.24,1.76,0.24
			c0.77,0,1.35-0.16,1.76-0.48c1.29,0.32,2.12,0.4,2.48,0.24c0.36-0.16,1.03-0.14,2,0.06c0.97,0.2,2.46,0.32,4.48,0.36
			c2.02,0.04,3.55,0.16,4.6,0.36c1.05,0.2,1.88,0.36,2.48,0.48s1.07,0.18,1.39,0.18c0.32,0,0.77,0.16,1.33,0.48
			c0.56,0.32,0.99,0.67,1.27,1.03c0.28,0.36,0.61,0.63,0.97,0.79c0.36,0.16,0.77,0.32,1.21,0.48c0.44,0.16,0.91,0.34,1.39,0.54
			c0.48,0.2,0.97,0.54,1.45,1.03s1.13,0.81,1.94,0.97c0.73,0.89,1.41,1.45,2.06,1.69c0.24,0.65,0.89,1.29,1.94,1.94
			c0.08,0.57,0.28,1.03,0.61,1.39c0.32,0.36,0.58,0.71,0.79,1.03c0.2,0.32,0.32,0.61,0.36,0.85c0.04,0.24,0.18,0.6,0.42,1.09
			s0.5,0.99,0.79,1.51c0.28,0.53,0.61,1.29,0.97,2.3c0.36,1.01,0.83,1.96,1.39,2.85c-0.16,0.97-0.12,1.88,0.12,2.72
			c0.24,0.85,0.36,1.39,0.36,1.63s0.18,0.83,0.54,1.76c0.36,0.93,0.38,1.74,0.06,2.42c-0.32,0.69-0.53,1.21-0.61,1.57
			c-0.08,0.36-0.1,0.77-0.06,1.21c0.04,0.44,0,0.99-0.12,1.63c-0.12,0.65-0.14,1.05-0.06,1.21c0.08,0.16,0.08,0.36,0,0.61
			c-0.73,0.65-1.09,1.09-1.09,1.33s-0.06,0.57-0.18,0.97c-0.12,0.4-0.34,0.75-0.67,1.03c-0.32,0.28-0.48,0.91-0.48,1.88
			c-0.32,0.16-0.53,0.38-0.6,0.67c-0.08,0.28-0.2,0.57-0.36,0.85c-0.16,0.28-0.28,0.57-0.36,0.85c-0.08,0.28-0.24,0.57-0.48,0.85
			c-0.24,0.28-0.59,0.59-1.03,0.91c-0.44,0.32-0.75,0.73-0.91,1.21c-0.32-0.08-0.54,0.06-0.67,0.42s-0.42,0.47-0.91,0.3
			c-0.4,0.32-0.73,0.67-0.97,1.03s-0.59,0.63-1.03,0.79c-0.44,0.16-0.79,0.3-1.03,0.42s-0.67,0.26-1.27,0.42
			c-0.61,0.16-1.15,0.4-1.63,0.73c-0.48,0-0.85,0.14-1.09,0.42c-0.24,0.28-0.53,0.34-0.85,0.18c-0.4,0.57-0.99,0.91-1.76,1.03
			c-0.77,0.12-1.35,0.51-1.76,1.15c0.16,0.97,0.65,1.84,1.45,2.6c0.81,0.77,1.61,1.47,2.42,2.12c0.08,0.65,0.87,2.08,2.36,4.3
			c1.49,2.22,2.34,3.79,2.54,4.72c0.2,0.93,0.38,1.56,0.54,1.88c0.16,0.32,0.4,0.91,0.73,1.75c0.32,0.85,0.65,1.74,0.97,2.66
			c0.32,0.93,0.65,1.82,0.97,2.66c0.32,0.85,0.54,1.41,0.67,1.69c0.12,0.28,0.28,0.61,0.48,0.97c0.2,0.36,0.34,0.69,0.42,0.97
			c0.08,0.28,0.26,0.91,0.54,1.88c0.28,0.97,0.67,2.42,1.15,4.36s0.85,3.19,1.09,3.75c0.24,0.56,0.44,1.07,0.61,1.51
			c0.16,0.44,0.34,0.93,0.54,1.45c0.2,0.52,0.4,1.01,0.6,1.45c0.2,0.44,0.34,0.83,0.42,1.15c0.08,0.32,0.28,0.71,0.61,1.15
			c0.32,0.44,0.65,0.95,0.97,1.51c0.32,0.32,0.58,0.75,0.79,1.27c0.2,0.52,0.5,0.99,0.91,1.39c0.81,0.24,1.23,0.4,1.27,0.48
			c0.04,0.08,0.18,0.16,0.42,0.24c0.65,0.32,1.96,0.38,3.93,0.18c1.98-0.2,3.13-0.5,3.45-0.91c0.32-0.4,0.87-0.75,1.63-1.03
			c0.77-0.28,1.23-0.59,1.39-0.91l0.97-1.21c0.24-0.97,0.46-1.57,0.67-1.82c0.2-0.24,0.36-0.59,0.48-1.03
			c0.12-0.44,0.14-1.01,0.06-1.69c-0.08-0.69-0.12-1.35-0.12-2c0.16-0.32,0.06-0.59-0.3-0.79c-0.36-0.2-0.59-0.5-0.67-0.91
			c-0.08-0.4-0.2-0.68-0.36-0.85c-0.24-0.16-0.46-0.36-0.67-0.61c-0.2-0.24-0.63-0.5-1.27-0.79c-0.65-0.28-1.37-0.12-2.18,0.48
			c-0.81,0.6-1.49,1.39-2.06,2.36l-2.78-0.12c-0.57-0.41-0.93-0.97-1.09-1.7c-0.16-0.73-0.44-1.41-0.85-2.06
			c0-0.56,0.24-1.09,0.73-1.57l1.09-1.09c0.24-0.24,0.44-0.56,0.61-0.97c1.13-0.32,1.77-0.5,1.94-0.54c0.16-0.04,0.42-0.14,0.79-0.3
			c0.36-0.16,1.01-0.48,1.94-0.97c0.93-0.48,1.71-0.54,2.36-0.18c0.65,0.36,1.37,0.63,2.18,0.79c0.16,0.16,0.26,0.38,0.3,0.67
			c0.04,0.28,0.14,0.5,0.3,0.67c0.56,0.32,0.97,0.63,1.21,0.91c0.24,0.28,0.6,0.46,1.09,0.54c0.56,0.81,1.11,1.63,1.63,2.48
			c0.52,0.85,0.71,1.96,0.54,3.33c0.48,1.53,0.68,2.82,0.6,3.87c-0.08,1.05-0.08,1.71,0,2c0.08,0.28-0.04,0.71-0.36,1.27l-0.85,1.82
			c-0.81,1.45-1.43,2.4-1.88,2.84c-0.44,0.44-0.83,0.89-1.15,1.33c-0.32,0.44-0.75,0.93-1.27,1.45c-0.53,0.52-1.05,0.79-1.57,0.79
			c-0.53,0-1.03,0.18-1.51,0.54s-1.41,0.54-2.78,0.54c-1.37,0-2.22-0.12-2.54-0.36c-1.45,1.21-3.11,1.25-4.96,0.12
			c-0.73-0.41-1.53-0.48-2.42-0.24c-2.02-1.37-3.67-2.26-4.96-2.66c-0.16-0.16-0.22-0.42-0.18-0.79c0.04-0.36,0.06-0.75,0.06-1.15
			c-0.65,0-1.13-0.04-1.45-0.12c0-0.16-0.28-0.67-0.85-1.51c-0.57-0.85-0.97-1.49-1.21-1.94c-0.24-0.44-0.4-0.71-0.48-0.79
			c-0.73-0.32-1.19-0.67-1.39-1.03c-0.2-0.36-0.38-0.61-0.54-0.73c-0.16-0.12-0.44-0.59-0.85-1.39c-0.89-1.78-1.78-3.55-2.66-5.33
			l-0.61-1.33c-0.24-0.65-0.57-1.45-0.97-2.42c-2.02-4.84-3.03-7.71-3.03-8.59c-0.32-0.32-0.65-0.65-0.97-0.97
			c-0.24-1.29-0.6-2.06-1.09-2.3c0.16-0.65,0.08-1.13-0.24-1.45c-0.32-0.32-0.4-0.81-0.24-1.45c-0.57-0.4-1.11-1.53-1.63-3.39
			c-0.53-1.86-0.79-2.92-0.79-3.21c0-0.28-0.02-0.61-0.06-0.97c-0.04-0.36-0.18-0.71-0.42-1.03c-0.24-0.32-0.36-0.81-0.36-1.45
			c-0.65-0.73-1.35-1.41-2.12-2.06c-0.77-0.65-1.47-1.41-2.12-2.3c-1.94-0.24-3.75-1.13-5.45-2.66c-0.32-0.08-0.61-0.1-0.85-0.06
			c-0.24,0.04-0.54,0.02-0.91-0.06c-0.36-0.08-0.73-0.24-1.09-0.48c-0.36-0.24-0.81-0.3-1.33-0.18c-0.53,0.12-0.81,0.24-0.85,0.36
			c-0.04,0.12-0.3,0.48-0.79,1.09c-0.48,0.6-0.57,1.33-0.24,2.18c0.32,0.85,0.46,1.68,0.42,2.48c-0.04,0.81-0.12,1.72-0.24,2.72
			c-0.12,1.01-0.18,1.68-0.18,2l0.48,7.63c0,0.41-0.12,0.97-0.36,1.7l0.12,2.42c-0.08,0.73-0.12,1.53-0.12,2.42v2.3
			c-0.16,0.57-0.2,0.91-0.12,1.03c0.08,0.12,0.06,0.5-0.06,1.15c-0.12,0.65-0.14,1.25-0.06,1.82c0.08,0.57,0.08,1.35,0,2.36
			c-0.08,1.01-0.24,2.12-0.48,3.33c-0.24,1.21-0.08,2.38,0.48,3.51c1.29,0.4,2.22,0.56,2.78,0.48l1.33-0.36
			c0.97,0.24,1.63,0.34,2,0.3c0.36-0.04,0.87,0.02,1.51,0.18c0.16,0.24,0.26,0.52,0.3,0.85c0.04,0.32,0.1,0.65,0.18,0.97
			c0.32,0.08,0.44,0.32,0.36,0.73c-0.08,0.4-0.12,0.81-0.12,1.21c-0.97,0.73-2.22,0.89-3.75,0.48c-0.4-0.08-0.61,0.08-0.61,0.48
			c0,0.4-0.16,0.61-0.48,0.61c-0.24-0.24-0.47-0.26-0.67-0.06c-0.2,0.2-0.54,0.32-1.03,0.36c-0.48,0.04-1.01-0.02-1.57-0.18
			c-1.37-0.57-2.5-0.2-3.39,1.09c-0.4-0.32-1.01-0.48-1.82-0.48c-0.81,0-1.37,0.24-1.69,0.73c-0.32-0.41-0.67-0.54-1.03-0.42
			s-0.75,0.26-1.15,0.42c-0.65-0.48-1.29-0.57-1.94-0.24c-0.65,0.32-1.39,0.54-2.24,0.67c-0.85,0.12-1.41,0.32-1.69,0.61
			c-0.28,0.28-0.71,0.42-1.27,0.42l-0.36-0.12c-0.48,0-0.97,0.12-1.45,0.36c-1.05,0.56-2.06,0.16-3.03-1.21
			c0.16-0.48,0.26-0.93,0.3-1.33c0.04-0.41,0.14-0.77,0.3-1.09c0.32-0.32,0.65-0.44,0.97-0.36c0.65,0.08,1.25-0.16,1.82-0.73
			c0.16-0.08,0.89-0.28,2.18-0.61c1.29-0.32,1.94-0.54,1.94-0.67s0.34-0.22,1.03-0.3c0.68-0.08,1.19-0.44,1.51-1.09
			c0.08-0.65,0.02-1.15-0.18-1.51c-0.2-0.36-0.38-0.83-0.54-1.39c0.16-1.13,0.12-2.28-0.12-3.45c-0.24-1.17-0.32-2.1-0.24-2.78
			c0.08-0.68,0.16-1.17,0.24-1.45c0.08-0.28,0.12-0.54,0.12-0.79l-0.24-1.94c-0.08-0.32-0.08-0.62,0-0.91
			c0.08-0.28,0.04-1.15-0.12-2.6l-0.24-2.18c0.24-0.73,0.36-1.29,0.36-1.7l-0.24-2.42c-0.08-0.4-0.1-0.83-0.06-1.27
			c0.04-0.44,0.06-0.87,0.06-1.27c-0.32-1.05-0.44-1.61-0.36-1.69c0.08-0.08,0.08-0.28,0-0.61l-0.36-2.42
			c-0.16-1.13-0.16-2.3,0-3.51c0.16-1.21,0.24-2.26,0.24-3.15v-2.91c0-0.97-0.04-1.77-0.12-2.42l-0.24-1.94
			c-0.08-0.89-0.06-2,0.06-3.33s0.14-2.16,0.06-2.48c-0.08-0.32-0.12-0.69-0.12-1.09v-2.54l-1.09-5.21l0.12-2.18
			c0.16-0.97,0.24-1.98,0.24-3.03v-1.69c0-0.24-0.06-0.46-0.18-0.67c-0.12-0.2-0.22-0.56-0.3-1.09c-0.08-0.52-0.04-1.23,0.12-2.12
			c0.16-0.89,0.24-1.57,0.24-2.06S345.39,251.1,345.15,250.37z M371.78,234.88l-8.47,0.24c-1.45,1.21-2.95,1.69-4.48,1.45
			c-0.16,0.4-0.5,0.73-1.03,0.97c-0.53,0.24-0.93,0.77-1.21,1.57c-0.28,0.81-0.16,1.69,0.36,2.66c0.52,0.97,0.81,1.8,0.85,2.48
			c0.04,0.69,0.18,1.27,0.42,1.76l0.12,3.51c0.08,1.37,0.08,2.72,0,4.06c-0.08,1.33-0.12,2.54-0.12,3.63c0,1.09,0.04,2.04,0.12,2.84
			c0.08,0.81,0.14,1.57,0.18,2.3c0.04,0.73,0.02,1.45-0.06,2.18c-0.08,0.73-0.02,1.59,0.18,2.6c0.2,1.01,0.26,1.76,0.18,2.24
			c-0.08,0.48-0.06,1.05,0.06,1.69c0.12,0.65,0.18,1.37,0.18,2.18c0,0.81,0.16,1.41,0.48,1.82c0.08,0.32,0.06,0.69-0.06,1.09
			c-0.12,0.4,0.02,0.57,0.42,0.48c0.08,0.4,0.3,0.54,0.67,0.42s1.37-0.08,3.03,0.12c1.65,0.2,3.05-0.02,4.18-0.67
			c2.66,1.29,5.12,1.29,7.38,0c0.89-0.48,1.86-0.81,2.91-0.97c0.4-0.65,0.87-1.11,1.39-1.39c0.52-0.28,1.03-0.62,1.51-1.03
			c0.16-0.48,0.34-0.83,0.54-1.03c0.2-0.2,0.22-0.58,0.06-1.15c1.05-0.4,1.86-1.37,2.42-2.91c0.08-0.32,0.26-0.48,0.54-0.48
			c0.28,0,0.42-0.2,0.42-0.61c0.16,0,0.18-0.18,0.06-0.54c-0.12-0.36,0-0.91,0.36-1.63c0.36-0.73,0.54-1.69,0.54-2.91
			c0.73-0.65,1.05-1.55,0.97-2.72c-0.08-1.17,0.12-2.28,0.6-3.33c-0.48-0.73-0.81-1.61-0.97-2.66c0.08-0.32,0.1-0.77,0.06-1.33
			c-0.04-0.56-0.04-1.01,0-1.33c0.04-0.32,0.02-0.71-0.06-1.15c-0.08-0.44-0.22-0.85-0.42-1.21c-0.2-0.36-0.22-0.79-0.06-1.27
			c-0.73-0.97-1.21-2.18-1.45-3.63c-0.65-0.65-1.01-0.95-1.09-0.91c-0.08,0.04-0.3-0.16-0.67-0.6c-0.36-0.44-0.67-0.89-0.91-1.33
			c-0.24-0.44-0.57-0.75-0.97-0.91c-0.4-0.56-0.81-0.93-1.21-1.09c-0.4-0.16-0.71-0.34-0.91-0.54c-0.2-0.2-0.4-0.34-0.61-0.42
			c-0.2-0.08-0.42-0.2-0.67-0.36c-1.13-1.29-2.22-1.9-3.27-1.82C373.28,235.32,372.43,235.2,371.78,234.88z"/>
		<path d="M444.66,272.16v0.73c0,0.16-0.16,0.4-0.48,0.73c0,1.13-0.04,1.8-0.12,2c-0.08,0.2-0.16,0.77-0.24,1.69
			c-0.08,0.93-0.04,2.1,0.12,3.51c0.16,1.41,0.2,2.58,0.12,3.51c-0.08,0.93-0.16,1.63-0.24,2.12c-0.08,0.48-0.12,0.93-0.12,1.33
			v2.42l-0.36,2.78l0.12,1.82v1.33c0,0.57-0.06,1.15-0.18,1.75s-0.16,1.35-0.12,2.24c0.04,0.89,0.06,1.86,0.06,2.91l-0.36,1.33
			c0.08,1.21,0.12,1.98,0.12,2.3c0,0.32-0.04,0.65-0.12,0.97l0.12,3.03c0,1.62,0.08,2.84,0.24,3.69c0.16,0.85,0.32,2.08,0.48,3.69
			c0.81,0.73,1.69,1.09,2.66,1.09l2.06,0.61h1.21c0.56,0,1.13,0.2,1.69,0.61c0.56,0.4,0.71,0.99,0.42,1.75
			c-0.28,0.77-0.75,1.47-1.39,2.12c-0.48,0.16-0.83,0.18-1.03,0.06c-0.2-0.12-0.51-0.18-0.91-0.18c-0.89,0.56-2.14,0.79-3.75,0.67
			c-1.62-0.12-3.03-0.18-4.24-0.18l-3.87,0.24c-0.65,0-1.27-0.06-1.88-0.18c-0.6-0.12-1.29-0.14-2.06-0.06
			c-0.77,0.08-1.39,0.24-1.88,0.48s-1.13,0.32-1.94,0.24c-0.81-0.08-1.49-0.22-2.06-0.42c-0.57-0.2-1.27-0.3-2.12-0.3
			c-0.85,0-1.41,0.12-1.69,0.36c-0.28,0.24-0.61,0.3-0.97,0.18c-0.36-0.12-0.67-0.34-0.91-0.67c-0.24-0.32-0.48-0.57-0.73-0.73
			c0-0.89,0.2-1.82,0.6-2.78c0.65-0.4,1.11-0.63,1.39-0.67c0.28-0.04,0.73-0.12,1.33-0.24c0.61-0.12,1.11-0.24,1.51-0.36
			c0.4-0.12,0.87-0.24,1.39-0.36c0.52-0.12,0.97-0.22,1.33-0.3c0.36-0.08,0.81-0.28,1.33-0.61c0.52-0.32,0.79-0.52,0.79-0.61
			c0-0.08,0.2-0.4,0.61-0.97l-0.24-3.27c0.24-0.48,0.36-0.93,0.36-1.33v-3.63c0.16-1.21,0.16-2.04,0-2.48
			c-0.16-0.44-0.24-0.83-0.24-1.15c0-0.32,0.12-0.97,0.36-1.94c-0.48-1.37-0.65-3.85-0.48-7.45c0.16-3.59,0.24-6.52,0.24-8.78
			l0.36-1.94c0-0.08-0.04-0.28-0.12-0.6c-0.08-0.32-0.04-0.87,0.12-1.63c0.16-0.77,0.08-1.43-0.24-2c0.81-1.69,0.85-3.27,0.12-4.72
			c-0.24-0.4-0.44-0.85-0.61-1.33c0.4-0.32,0.61-0.81,0.61-1.45c-0.16-0.65-0.26-1.31-0.3-2c-0.04-0.68-0.26-1.19-0.67-1.51
			c-0.24-0.89-0.69-1.49-1.33-1.82c-0.16-0.24-0.24-0.48-0.24-0.73s-0.18-0.5-0.54-0.79c-0.36-0.28-0.59-0.65-0.67-1.09
			c-0.08-0.44-0.44-0.87-1.09-1.27c-0.16-1.05-0.57-1.98-1.21-2.78c-0.65-0.81-0.97-1.82-0.97-3.03c-0.16-0.4-0.53-0.97-1.09-1.69
			c-0.57-0.73-0.95-1.29-1.15-1.69c-0.2-0.4-0.38-0.85-0.54-1.33c-0.16-0.48-0.4-0.93-0.73-1.33c-0.73-1.45-1.19-2.36-1.39-2.72
			c-0.2-0.36-0.34-1.11-0.42-2.24c-0.4-0.32-0.67-0.67-0.79-1.03s-0.26-0.75-0.42-1.15c-0.4-0.48-0.81-0.89-1.21-1.21
			c-0.4-0.32-0.73-0.85-0.97-1.57c-0.24-0.73-0.36-1.25-0.36-1.57c-0.48-0.89-0.65-1.86-0.48-2.91c-1.53-2.26-2.34-3.69-2.42-4.3
			c-0.08-0.6-0.4-1.03-0.97-1.27c-0.48-0.81-0.81-1.33-0.97-1.57c-0.16-0.24-0.2-0.52-0.12-0.85c-0.81-0.4-1.41-0.79-1.82-1.15
			c-0.4-0.36-0.89-0.5-1.45-0.42c-0.57,0.08-1.33-0.04-2.3-0.36c-0.97-0.32-1.57-0.81-1.82-1.45c0.16-1.05,0.54-1.67,1.15-1.88
			c0.6-0.2,1.11-0.34,1.51-0.42c0.4-0.08,0.73-0.28,0.97-0.6c0.65,0.24,1.23,0.3,1.76,0.18c0.52-0.12,1.05-0.22,1.57-0.3
			c0.52-0.08,1.15-0.12,1.88-0.12c0.73,0,1.33-0.28,1.82-0.85c0.56,0,1.17,0.16,1.82,0.48c0.4-0.24,0.91-0.3,1.51-0.18
			c0.61,0.12,1.07-0.02,1.39-0.42l1.33,0.24c0.4-0.4,0.89-0.62,1.45-0.67c0.56-0.04,1.09-0.22,1.57-0.54
			c1.13,0.32,1.77,0.73,1.94,1.21c0.4,1.53,0.5,2.54,0.3,3.03c-0.2,0.48-0.44,0.67-0.73,0.54c-0.28-0.12-0.54,0.02-0.79,0.42
			l-0.12,2.06c0.08,0.81,0.36,1.53,0.85,2.18c0.48,0.65,0.77,1.41,0.85,2.3c0.56,0.89,0.91,1.57,1.03,2.06s0.34,0.95,0.67,1.39
			c0.32,0.44,0.5,0.73,0.54,0.85c0.04,0.12,0.14,0.3,0.3,0.54c0.16,0.24,0.28,0.59,0.36,1.03c0.08,0.44,0.32,0.75,0.73,0.91
			c-0.08,0.48,0.08,1.25,0.48,2.3c0.56,0.89,0.83,1.41,0.79,1.57c-0.04,0.16,0.02,0.53,0.18,1.09c0.16,0.57,0.56,1.05,1.21,1.45
			c-0.16,1.37,0.28,2.34,1.33,2.91c-0.16,0.4,0.04,1.05,0.61,1.94c0.4,1.29,0.89,2.26,1.45,2.91c0,0.89,0.28,1.92,0.85,3.09
			c0.56,1.17,0.97,2.08,1.21,2.72c0.24,0.65,0.61,1.17,1.09,1.57c1.53,0.32,2.38,0,2.54-0.97c0.32-1.69,0.73-2.66,1.21-2.91
			c0.24,0,0.48-0.32,0.73-0.97c0.24-0.65,0.56-1.05,0.97-1.21c0.08-0.65,0.34-1.37,0.79-2.18c0.44-0.81,0.75-1.57,0.91-2.3
			c0.48-1.61,1.11-2.74,1.88-3.39c0.77-0.65,1.45-1.73,2.06-3.27c0.61-1.53,1.05-2.52,1.33-2.97c0.28-0.44,0.54-0.77,0.79-0.97
			c0.24-0.2,0.44-0.46,0.6-0.79c0.16-0.89,0.3-1.35,0.42-1.39c0.12-0.04,0.24-0.18,0.36-0.42c0.12-0.24,0.22-0.52,0.3-0.85
			c0.08-0.32,0.38-0.79,0.91-1.39c0.52-0.61,0.91-1.27,1.15-2l0.61-1.82c0.56-1.29,0.87-2.1,0.91-2.42c0.04-0.32,0.14-0.73,0.3-1.21
			c0.16-0.48,0.34-0.85,0.54-1.09c0.2-0.24,0.38-0.52,0.54-0.85c0.16-1.05,0.12-1.65-0.12-1.82c-0.24-0.16-0.42-0.52-0.54-1.09
			c-0.12-0.56-0.34-0.91-0.67-1.03c-0.32-0.12-0.69-0.24-1.09-0.36c-0.4-0.12-0.69-0.32-0.85-0.61c-0.16-0.28-0.57-0.48-1.21-0.6
			c-0.65-0.12-0.97-0.62-0.97-1.51c-0.65-0.16-0.97-0.61-0.97-1.33c0.24-0.65,0.97-1.29,2.18-1.94l2.42,1.21
			c2.58,0,4.36,0.16,5.33,0.48c0.97,0.32,1.94,0.48,2.91,0.48c0.97,0,1.71,0.1,2.24,0.3c0.52,0.2,1.03,0.14,1.51-0.18
			c0.16,0.4,0.73,0.85,1.69,1.33c0.97-0.16,2.06-0.04,3.27,0.36c1.21,0.4,2.16,0.63,2.84,0.67c0.68,0.04,1.35,0.3,2,0.79
			c0.65,0.48,1.17,0.85,1.57,1.09c-0.32,0.97-0.57,1.72-0.73,2.24c-0.16,0.53-0.85,0.79-2.06,0.79c-0.32-0.16-1.03-0.12-2.12,0.12
			c-1.09,0.24-1.8,0.32-2.12,0.24c-0.89,0.16-1.49,0.48-1.82,0.97c-0.32,0.48-0.81,0.93-1.45,1.33c-0.24,0.57-0.6,1.25-1.09,2.06
			c-0.48,0.81-0.97,1.63-1.45,2.48c-0.48,0.85-0.99,1.63-1.51,2.36c-0.53,0.73-0.95,1.33-1.27,1.82c0.16,0.65,0.04,1.31-0.36,2
			c-0.4,0.69-0.69,1.29-0.85,1.82c-0.16,0.53-0.26,0.99-0.3,1.39c-0.04,0.4-0.14,0.81-0.3,1.21c-0.4,0.48-0.61,0.89-0.61,1.21
			c0,0.32-0.28,0.61-0.85,0.85c-0.57,0.24-1.01,0.57-1.33,0.97c-0.24,0.89-0.44,1.86-0.61,2.91c-0.16,1.05-0.69,1.78-1.57,2.18
			c0,0.65-0.1,1.15-0.3,1.51c-0.2,0.36-0.36,0.73-0.48,1.09s-0.2,0.73-0.24,1.09c-0.04,0.36-0.12,0.67-0.24,0.91
			c-0.12,0.24-0.32,0.42-0.61,0.54c-0.28,0.12-0.54,0.3-0.79,0.54c-0.48,0.81-0.81,1.23-0.97,1.27c-0.16,0.04-0.28,0.1-0.36,0.18
			c-0.08,0.65-0.2,1.01-0.36,1.09c-0.32,0-0.48,0.36-0.48,1.09l-0.36,1.82c0,0.81-0.28,1.37-0.85,1.69
			c-0.57,0.32-0.93,0.69-1.09,1.09c0.08,0.81-0.2,1.33-0.85,1.57c-0.65,0.24-1.17,0.69-1.57,1.33c-0.24,0.48-0.53,0.93-0.85,1.33
			C445.06,270.39,444.66,271.36,444.66,272.16z"/>
		<path d="M534.12,314.41l-4-0.97c-0.73-0.73-1.74-1.25-3.03-1.57c-0.16-0.65-0.54-1.03-1.15-1.15c-0.6-0.12-1.11-0.38-1.51-0.79
			c-0.4-0.16-0.97-0.24-1.69-0.24c-0.73,0-1.25-0.22-1.57-0.67c-0.32-0.44-0.99-1.01-2-1.7c-1.01-0.68-1.74-1.39-2.18-2.12
			c-0.44-0.73-0.79-1.19-1.03-1.39c-0.24-0.2-0.48-0.46-0.73-0.79c-0.24-0.32-0.53-0.61-0.85-0.85c0.08-0.4,0.04-0.68-0.12-0.85
			c-0.16-0.16-0.16-0.48,0-0.97c-0.57-0.81-1.11-1.57-1.63-2.3c-0.53-0.73-0.91-1.61-1.15-2.66c-1.37-1.21-2.16-2.2-2.36-2.97
			c-0.2-0.77-0.59-1.43-1.15-2c-0.57-0.56-0.97-1.17-1.21-1.82c-0.24-0.65-0.34-1.39-0.3-2.24c0.04-0.85-0.06-1.79-0.3-2.84
			c-0.4-0.89-0.59-1.47-0.54-1.76c0.04-0.28,0.04-0.58,0-0.91c-0.04-0.32-0.12-0.68-0.24-1.09c-0.12-0.4-0.3-0.95-0.54-1.63
			c-0.24-0.68-0.32-1.17-0.24-1.45c0.08-0.28,0.12-0.67,0.12-1.15c0-0.48-0.02-1.17-0.06-2.06c-0.04-0.89,0-2.34,0.12-4.36
			c0.12-2.02,0.28-3.83,0.48-5.45c0.2-1.61,0.3-2.78,0.3-3.51c-0.08-1.05,0.12-1.98,0.6-2.78c0.48-0.81,0.73-1.51,0.73-2.12
			c0-0.61,0.18-1.19,0.54-1.76c0.36-0.56,0.52-0.97,0.48-1.21c-0.04-0.24,0.2-0.71,0.73-1.39c0.52-0.69,0.77-1.19,0.73-1.51
			c-0.04-0.32,0.12-0.73,0.48-1.21c0.36-0.48,0.6-0.87,0.73-1.15c0.12-0.28,0.4-0.71,0.85-1.27c0.44-0.56,0.73-0.99,0.85-1.27
			c0.12-0.28,0.32-0.65,0.61-1.09c0.28-0.44,0.54-0.77,0.79-0.97c0.24-0.2,0.56-0.54,0.97-1.03c0.4-0.48,0.68-0.73,0.85-0.73
			c0.65,0,1.21-0.85,1.69-2.54c0.16-0.16,0.4-0.3,0.73-0.42c0.32-0.12,0.61-0.26,0.85-0.42c0.32-0.56,0.73-1.05,1.21-1.45
			c0.48-0.4,0.93-0.89,1.33-1.45c0.48-0.56,1.45-1.37,2.91-2.42c0.73-0.73,1.15-1.07,1.27-1.03c0.12,0.04,0.4-0.16,0.85-0.61
			c0.44-0.44,0.93-0.71,1.45-0.79c0.52-0.08,1.03-0.28,1.51-0.61c0.48-0.32,0.85-0.6,1.09-0.85s0.67-0.52,1.27-0.85
			c0.61-0.32,1.15-0.54,1.63-0.67c0.48-0.12,0.95-0.24,1.39-0.36c0.44-0.12,0.79-0.18,1.03-0.18s0.54-0.04,0.91-0.12
			c0.36-0.08,0.65-0.2,0.85-0.36c0.2-0.16,0.46-0.3,0.79-0.42c0.32-0.12,0.68-0.16,1.09-0.12c0.4,0.04,1.23-0.08,2.48-0.36
			c1.25-0.28,2.32-0.36,3.21-0.24c0.89,0.12,1.73,0.18,2.54,0.18c0.81,0,1.45,0.12,1.94,0.36c0.48,0.24,0.97,0.4,1.45,0.48
			c0.48,0.08,0.99,0.1,1.51,0.06c0.52-0.04,0.95,0,1.27,0.12c0.32,0.12,0.65,0.26,0.97,0.42c1.13,0.57,1.9,0.91,2.3,1.03
			c0.4,0.12,1.11,0.53,2.12,1.21c1.01,0.69,2.12,1.15,3.33,1.39c1.21,0.24,1.96,0.38,2.24,0.42c0.28,0.04,0.5,0.18,0.67,0.42
			c0.16,0.24,0.4,0.24,0.73,0c0.65-0.32,1.05-1.05,1.21-2.18c0.24-0.32,0.54-0.56,0.91-0.73c0.36-0.16,0.62-0.44,0.79-0.85
			c0.73,0.08,1.21-0.04,1.45-0.36c0.24-0.32,0.73-0.4,1.45-0.24c0.56,0.57,0.97,1.27,1.21,2.12c0.24,0.85,0.56,1.63,0.97,2.36
			c-0.08,0.32-0.12,0.61-0.12,0.85c0,0.24-0.04,0.48-0.12,0.73l-0.24,3.15c0.32,0.97,0.32,1.74,0,2.3
			c-0.32,0.57-0.54,1.01-0.67,1.33c-0.12,0.32-0.16,0.63-0.12,0.91c0.04,0.28-0.02,0.67-0.18,1.15c-0.16,0.48-0.2,0.87-0.12,1.15
			c0.08,0.28,0.1,0.61,0.06,0.97c-0.04,0.36-0.12,0.91-0.24,1.63c-0.12,0.73-0.1,1.53,0.06,2.42c-0.4,0.65-0.73,1.31-0.97,2
			c-0.24,0.69-0.6,1.23-1.09,1.63c-0.97-0.16-1.55-0.18-1.76-0.06c-0.2,0.12-0.79,0.22-1.76,0.3c-0.24-0.24-0.36-0.46-0.36-0.67
			c0-0.2-0.2-0.38-0.61-0.54c-0.08-0.56-0.24-1.03-0.48-1.39c-0.24-0.36-0.42-0.91-0.54-1.63c-0.12-0.73-0.02-1.65,0.3-2.78
			c0.32-1.13,0.4-2.3,0.24-3.51c-0.65-0.56-1.05-1.17-1.21-1.82c-1.05-1.05-1.86-1.65-2.42-1.82c-0.57-0.16-0.95-0.34-1.15-0.54
			c-0.2-0.2-0.34-0.42-0.42-0.67c-0.08-0.24-0.48-0.52-1.21-0.85c-0.73-0.32-1.49-0.44-2.3-0.36c-0.24-0.56-0.63-0.97-1.15-1.21
			c-0.53-0.24-1.03-0.48-1.51-0.73c-0.48-0.24-0.83-0.38-1.03-0.42c-0.2-0.04-0.47-0.14-0.79-0.3c-1.21,0.08-2.22-0.04-3.03-0.36
			c-0.81-0.32-1.55-0.48-2.24-0.48c-0.69,0-1.23-0.14-1.63-0.42c-0.4-0.28-0.73-0.34-0.97-0.18c-0.24,0.16-0.53,0.24-0.85,0.24
			l-1.69-0.48l-1.69,0.24c-0.32,0.08-0.57,0.12-0.73,0.12c-0.4-0.16-1.13,0.08-2.18,0.73l-1.33,0.6c-0.32,0.4-0.97,0.93-1.94,1.57
			c-0.97,0.65-1.78,1.05-2.42,1.21c-0.08,0.65-0.36,1.07-0.85,1.27c-0.48,0.2-0.87,0.47-1.15,0.79c-0.28,0.32-0.47,0.65-0.54,0.97
			c-0.08,0.32-0.22,0.67-0.42,1.03c-0.2,0.36-0.42,0.79-0.67,1.27s-0.5,0.87-0.79,1.15c-0.28,0.28-0.5,0.57-0.67,0.85
			c-0.16,0.28-0.44,0.38-0.85,0.3c-0.4,1.78-1.29,3.35-2.66,4.72c-0.08,0.24-0.1,0.48-0.06,0.73c0.04,0.24-0.02,0.54-0.18,0.91
			c-0.16,0.36-0.24,0.91-0.24,1.63c0,0.73-0.06,1.39-0.18,2c-0.12,0.6-0.26,1.09-0.42,1.45c-0.16,0.36-0.3,0.73-0.42,1.09
			s-0.12,0.67,0,0.91c0.12,0.24,0,1.11-0.36,2.6c-0.36,1.49-0.5,3.29-0.42,5.39c0.08,2.1-0.24,4.04-0.97,5.81
			c0.65,3.31,0.87,5.43,0.67,6.35c-0.2,0.93-0.26,1.72-0.18,2.36c0.48,1.21,0.67,2.3,0.54,3.27c-0.12,0.97,0.14,2.28,0.79,3.93
			c0.65,1.66,1.11,2.99,1.39,3.99c0.28,1.01,0.56,1.82,0.85,2.42c0.28,0.6,0.42,1.05,0.42,1.33c0,0.28,0.1,0.59,0.3,0.91
			c0.2,0.32,0.48,0.71,0.85,1.15c0.36,0.44,0.71,0.99,1.03,1.63c0.32,0.65,0.56,0.97,0.73,0.97c0.16,0,0.46,0.36,0.91,1.09
			c0.44,0.73,1.17,1.59,2.18,2.6c1.01,1.01,1.83,1.96,2.48,2.84c1.05,0.48,2.12,1.07,3.21,1.76c1.09,0.69,2.06,1.19,2.91,1.51
			c0.85,0.32,1.43,0.46,1.76,0.42c0.32-0.04,0.73,0.04,1.21,0.24c0.48,0.2,1.17,0.5,2.06,0.91c3.23,1.62,5.45,1.94,6.66,0.97
			c0.97-0.56,1.83-0.71,2.6-0.42c0.77,0.28,1.59,0.24,2.48-0.12c0.89-0.36,1.65-0.67,2.3-0.91c0.65-0.24,1.21-0.46,1.69-0.67
			c0.48-0.2,0.93-0.36,1.33-0.48c0.4-0.12,0.81-0.26,1.21-0.42c1.29-0.89,2.28-1.61,2.97-2.18c0.68-0.56,1.11-1.29,1.27-2.18
			c0.56-0.08,0.97-0.28,1.21-0.61c0.24-0.32,0.56-0.65,0.97-0.97c0.32-0.64,0.54-0.95,0.67-0.91c0.12,0.04,0.24-0.02,0.36-0.18
			c0.12-0.16,0.3-0.48,0.54-0.97s0.5-0.83,0.79-1.03c0.28-0.2,0.5-0.38,0.67-0.54c0.24-0.48,0.75-1.01,1.51-1.57
			c0.77-0.56,1.43-0.65,2-0.24c0.73,0.81,1.19,1.78,1.39,2.91c0.2,1.13,0.18,2.02-0.06,2.66c-0.24,0.65-1.13,1.41-2.66,2.3
			c-0.08,0.48-0.38,0.97-0.91,1.45c-0.53,0.48-0.93,0.91-1.21,1.27c-0.28,0.36-0.54,0.71-0.79,1.03c-0.24,0.32-0.65,0.73-1.21,1.21
			c-0.57,0.48-1.05,0.89-1.45,1.21c-0.4,0.32-0.77,0.67-1.09,1.03c-0.32,0.36-0.63,0.63-0.91,0.79c-0.28,0.16-0.63,0.24-1.03,0.24
			c-0.4,0-0.91,0.12-1.51,0.36c-0.61,0.24-1.27,0.63-2,1.15c-0.73,0.53-1.74,0.79-3.03,0.79l-2.18,1.21h-1.09
			c-0.4,0-0.69-0.08-0.85-0.24c-0.81,0.65-1.29,0.93-1.45,0.85c-0.16-0.08-0.54,0.02-1.15,0.3c-0.6,0.28-1.49,0.42-2.66,0.42
			c-1.17,0-2.3-0.04-3.39-0.12c-1.09-0.08-1.9-0.14-2.42-0.18c-0.53-0.04-1.03,0.1-1.51,0.42c-0.24-0.16-0.44-0.3-0.61-0.42
			c-0.16-0.12-0.4-0.28-0.73-0.48c-0.32-0.2-0.71-0.34-1.15-0.42c-0.44-0.08-0.85-0.2-1.21-0.36c-0.36-0.16-0.65-0.32-0.85-0.48
			c-0.2-0.16-0.44-0.26-0.73-0.3c-0.28-0.04-0.71-0.06-1.27-0.06C534.64,314.29,534.28,314.33,534.12,314.41z"/>
		<path d="M600.09,258.24l-0.12,1.94c0,0.4,0.08,0.89,0.24,1.45c0.24,0.97,0.2,2.18-0.12,3.63c-0.32,1.45-0.04,3.87,0.85,7.26
			l-0.12,2.78l0.24,1.33c0.16,0.65,0.16,1.33,0,2.06c-0.16,0.73-0.24,1.53-0.24,2.42c0,0.89,0.06,1.63,0.18,2.24
			c0.12,0.61,0.14,1.05,0.06,1.33c-0.08,0.28-0.1,0.53-0.06,0.73c0.04,0.2,0.18,0.32,0.42,0.36c0.24,0.04,0.5,0.08,0.79,0.12
			c0.28,0.04,0.54,0.1,0.79,0.18c0.24,0.08,0.32,0.2,0.24,0.36c0.56,0.24,1.09,0.26,1.57,0.06c0.48-0.2,0.95-0.28,1.39-0.24
			c0.44,0.04,0.85,0.16,1.21,0.36c0.36,0.2,0.79,0.42,1.27,0.67c1.37,0.32,2.62,0.32,3.75,0c1.13-0.32,2.2-0.4,3.21-0.24
			c1.01,0.16,1.83,0.26,2.48,0.3c0.65,0.04,1.33,0.1,2.06,0.18c0.73,0.08,1.25,0.1,1.57,0.06c0.32-0.04,0.79-0.02,1.39,0.06
			c0.6,0.08,0.95,0.08,1.03,0c0.56,0.16,1.09,0.36,1.57,0.6s1.01,0.36,1.57,0.36l3.03-0.36c0.73-1.21,1.23-2.6,1.51-4.18
			c0.28-1.57,0.38-2.76,0.3-3.57c-0.08-0.81-0.08-1.51,0-2.12c0.08-0.61,0.16-1.05,0.24-1.33c0.08-0.28,0.16-0.71,0.24-1.27
			c0.08-0.56,0.08-1.23,0-2c-0.08-0.77-0.08-1.51,0-2.24c0.08-0.73,0.12-1.41,0.12-2.06l0.48-1.82c0-0.16-0.06-0.4-0.18-0.73
			c-0.12-0.32-0.1-0.56,0.06-0.73c0.16-0.97,0.2-1.61,0.12-1.94c-0.08-0.32-0.12-0.68-0.12-1.09l0.61-1.45
			c0-0.24-0.04-0.46-0.12-0.67c-0.08-0.2-0.06-0.65,0.06-1.33c0.12-0.68,0.14-1.17,0.06-1.45c-0.08-0.28-0.12-0.58-0.12-0.91
			l0.36-1.57c0.08-0.89,0.14-1.82,0.18-2.78c0.04-0.97,0.14-1.98,0.3-3.03v-3.03l0.12-4.12l0.48-3.51v-4.12
			c0-0.4,0.08-0.85,0.24-1.33c0.64-2.34,0.56-3.51-0.24-3.51c-0.32,0-0.44-0.2-0.36-0.6c-1.05-0.08-1.84-0.06-2.36,0.06
			c-0.53,0.12-1.31,0.1-2.36-0.06c-0.73-1.29-0.85-2.38-0.36-3.27c0.48-0.16,0.95-0.22,1.39-0.18c0.44,0.04,0.87,0.02,1.27-0.06
			l2.42-0.36l1.57,0.36l1.45-0.24c0.73,0.16,1.39,0.18,2,0.06s1.29-0.06,2.06,0.18c0.77,0.24,1.59,0.28,2.48,0.12
			c0.89-0.16,1.51-0.12,1.88,0.12s0.77,0.38,1.21,0.42c0.44,0.04,0.87-0.02,1.27-0.18c0.4-0.16,0.81-0.16,1.21,0
			c0.81,0.65,1.25,1.05,1.33,1.21c0.08,0.16,0.2,0.32,0.36,0.48c-0.24,1.21-0.93,2.06-2.06,2.54c-1.21,0.65-1.94,1.23-2.18,1.76
			c-0.24,0.53-0.65,0.99-1.21,1.39c-0.16,0.97-0.2,2-0.12,3.09c0.08,1.09,0.1,1.94,0.06,2.54c-0.04,0.61-0.14,1.07-0.3,1.39
			c-0.16,0.32-0.04,0.61,0.36,0.85c-0.57,0.57-0.77,1.39-0.61,2.48c0.16,1.09,0.24,2,0.24,2.72L645,254
			c-0.08,0.4-0.06,0.73,0.06,0.97s0.18,0.53,0.18,0.85l-1.09,4.96l0.12,3.03c0,0.65-0.08,1.27-0.24,1.88
			c-0.16,0.61-0.28,1.13-0.36,1.57c-0.08,0.44-0.08,0.81,0,1.09c0.08,0.28,0.1,0.65,0.06,1.09c-0.04,0.44-0.16,0.87-0.36,1.27
			c-0.2,0.4-0.34,0.81-0.42,1.21l-0.12,5.33c0,0.48-0.2,0.93-0.61,1.33c0.4,0.24,0.5,0.57,0.3,0.97c-0.2,0.4-0.3,0.81-0.3,1.21
			c0,0.4,0.06,0.75,0.18,1.03c0.12,0.28,0.14,0.61,0.06,0.97c-0.08,0.36-0.24,0.95-0.48,1.76c-0.24,0.81-0.38,1.65-0.42,2.54
			c-0.04,0.89-0.16,1.68-0.36,2.36c-0.2,0.69-0.34,1.33-0.42,1.94c-0.08,0.61-0.1,1.11-0.06,1.51c0.04,0.4,0.04,0.81,0,1.21
			c-0.04,0.41-0.1,0.83-0.18,1.27c-0.08,0.44-0.18,1.09-0.3,1.94c-0.12,0.85-0.16,1.47-0.12,1.88c0.04,0.4-0.04,1.09-0.24,2.06
			c-0.2,0.97-0.28,1.86-0.24,2.66c0.04,0.81-0.18,1.66-0.67,2.54c0.24,2.18,0.04,3.51-0.6,4c-0.16,1.21-0.36,2.46-0.61,3.75
			c-0.24,1.29-0.44,2.74-0.61,4.36c0.4,0.73,0.97,0.97,1.69,0.73c0.73-0.24,1.41-0.28,2.06-0.12c0.73,0.08,1.65,0.68,2.78,1.82
			c-0.08,0.56-0.06,1.05,0.06,1.45c0.12,0.4,0,0.81-0.36,1.21c-0.36,0.4-0.73,0.54-1.09,0.42s-1.15-0.18-2.36-0.18
			s-2.44-0.12-3.69-0.36c-1.25-0.24-2.26-0.2-3.03,0.12c-0.77,0.32-1.47,0.6-2.12,0.85c-0.89-0.32-1.96-0.38-3.21-0.18
			c-1.25,0.2-2.44,0.32-3.57,0.36c-1.13,0.04-2.04-0.14-2.72-0.54c-0.69-0.4-0.83-1.41-0.42-3.03c0.24-0.16,0.56-0.24,0.97-0.24
			c0.4,0,0.81-0.04,1.21-0.12c0.64-0.4,1.31-0.73,2-0.97c0.68-0.24,1.35-0.53,2-0.85c0.32-0.73,0.61-2.02,0.85-3.87
			c0.24-1.86,0.56-3.11,0.97-3.75c-0.24-1.05-0.28-1.63-0.12-1.76c0.16-0.12,0.26-0.42,0.3-0.91c0.04-0.48,0.08-1.25,0.12-2.3
			c0.04-1.05,0.12-1.96,0.24-2.72c0.12-0.77,0.24-1.35,0.36-1.75c0.12-0.4,0.22-0.79,0.3-1.15c0.08-0.36,0.1-0.73,0.06-1.09
			c-0.04-0.36-0.02-1.21,0.06-2.54c0.08-1.33-0.2-2.48-0.85-3.45c-0.97-0.32-2.38-0.48-4.24-0.48c-1.86,0-3.19-0.32-4-0.97
			c-1.53,0.48-2.95,0.61-4.24,0.36c-1.29-0.24-2.06-0.32-2.3-0.24c-0.24,0.08-0.59,0.1-1.03,0.06c-0.45-0.04-0.95-0.1-1.51-0.18
			c-0.65-0.08-1.69,0.16-3.15,0.73c-1.69-0.4-3.15-0.44-4.36-0.12c-0.08,0.24-0.47,0.46-1.15,0.67c-0.69,0.2-1.09,0.5-1.21,0.91
			c-0.12,0.41-0.08,0.69,0.12,0.85c0.2,0.16,0.34,0.53,0.42,1.09l-0.36,1.82c0,0.73,0.08,1.39,0.24,2c0.16,0.61,0.2,1.43,0.12,2.48
			l0.12,2.06c-0.16,1.62-0.24,2.78-0.24,3.51s-0.04,1.41-0.12,2.06c1.13,0.81,2.54,1.01,4.24,0.61c0.32-0.08,0.56-0.18,0.73-0.3
			c0.16-0.12,0.42-0.24,0.79-0.36c0.36-0.12,0.85-0.18,1.45-0.18s1.19-0.08,1.75-0.24c1.21,0.89,1.57,2.3,1.09,4.24
			c-0.48,0.16-0.93,0.34-1.33,0.54c-0.4,0.2-0.87,0.34-1.39,0.42c-0.53,0.08-1.01,0.08-1.45,0c-0.44-0.08-0.99-0.04-1.63,0.12
			c-0.57,0.41-1.01,0.61-1.33,0.61c-0.89,0-1.63,0.22-2.24,0.67c-0.61,0.44-1.07,0.67-1.39,0.67c-0.48-0.08-1.03,0.1-1.63,0.54
			c-0.61,0.44-1.15,0.67-1.63,0.67l-8.84,1.82c-0.81,0-1.49-0.22-2.06-0.67c-0.57-0.44-0.73-1.13-0.48-2.06
			c0.24-0.93,0.58-1.39,1.03-1.39c0.44,0,0.91-0.14,1.39-0.42c0.48-0.28,1.11-0.58,1.88-0.91c0.77-0.32,1.43-0.81,2-1.45
			c0.08-0.4,0.02-1.01-0.18-1.82c-0.2-0.81-0.3-2.58-0.3-5.33c0.16-0.4,0.12-0.67-0.12-0.79c-0.24-0.12-0.3-0.44-0.18-0.97
			c0.12-0.52,0.04-1.19-0.24-2c-0.28-0.81-0.44-1.53-0.48-2.18c-0.04-0.65-0.02-1.13,0.06-1.45c0.08-0.32,0.08-0.67,0-1.03
			c-0.08-0.36-0.22-0.75-0.42-1.15c-0.2-0.4-0.34-0.93-0.42-1.57c-0.08-0.64-0.06-1.39,0.06-2.24c0.12-0.85-0.06-1.63-0.54-2.36
			c0.16-0.56,0.24-1.13,0.24-1.69c0-0.56-0.04-1.09-0.12-1.57l-0.85-8.96l0.24-1.82c0-0.73-0.08-1.49-0.24-2.3
			c-0.08-0.81-0.14-1.59-0.18-2.36c-0.04-0.77-0.1-1.51-0.18-2.24c-0.08-0.73-0.14-1.35-0.18-1.88c-0.04-0.52-0.12-1.01-0.24-1.45
			c-0.12-0.44-0.16-0.81-0.12-1.09c0.04-0.28,0.08-0.71,0.12-1.27c0.04-0.56-0.08-1.25-0.36-2.06c-0.28-0.81-0.5-1.61-0.67-2.42
			c-0.16-0.81-0.22-1.73-0.18-2.78c0.04-1.05-0.22-1.9-0.79-2.54c0.24-0.73,0.1-2.16-0.42-4.3c-0.53-2.14-0.63-4.13-0.3-5.99
			c-0.16-0.48-0.18-0.79-0.06-0.91s0.18-0.26,0.18-0.42l-0.61-1.69c0-1.05-0.12-1.69-0.36-1.94c-0.16-0.65-0.26-1.33-0.3-2.06
			c-0.04-0.73-0.18-1.17-0.42-1.33c-0.89-0.32-1.31-0.34-1.27-0.06c0.04,0.28-0.1,0.34-0.42,0.18c-0.65-0.16-1.17-0.14-1.57,0.06
			c-0.4,0.2-1.01,0.22-1.82,0.06c-0.32-1.61-0.18-2.54,0.42-2.78c0.6-0.24,1.27-0.36,2-0.36h2.3c0.73,0,1.29-0.2,1.69-0.61
			c0.4,0,0.85,0.16,1.33,0.48c0.32-0.16,0.73-0.3,1.21-0.42s1.11-0.32,1.88-0.6c0.77-0.28,1.43-0.46,2-0.54
			c0.56-0.08,1.11-0.22,1.63-0.42c0.52-0.2,0.95-0.4,1.27-0.6c0.32-0.2,0.97-0.18,1.94,0.06c0.56-0.32,0.89-0.52,0.97-0.61
			c0.08-0.08,0.44-0.16,1.09-0.24c3.07-0.32,5.08,0.12,6.05,1.33c-0.08,0.32-0.12,0.65-0.12,0.97c0,0.32,0,0.65,0,0.97
			c-0.73,0.57-1.19,0.85-1.39,0.85c-0.2,0-0.59,0.14-1.15,0.42c-0.57,0.28-1.09,0.34-1.57,0.18c-0.41,0.08-0.69,0.28-0.85,0.61
			c-0.16,0.32-0.32,0.65-0.48,0.97c-0.32-0.32-0.73-0.42-1.21-0.3c-0.48,0.12-0.81,0.34-0.97,0.67c-0.08,0.48-0.2,0.95-0.36,1.39
			c-0.16,0.44-0.14,1.05,0.06,1.82c0.2,0.77,0.3,1.31,0.3,1.63c0,0.32,0.04,0.65,0.12,0.97l0.24,1.57c0.08,0.4,0.08,0.81,0,1.21
			c-0.08,0.4-0.12,0.75-0.12,1.03c0,0.28,0.12,0.79,0.36,1.51l0.36,1.33c0.16,1.05,0.3,1.78,0.42,2.18c0.12,0.4,0.18,0.89,0.18,1.45
			c0,0.57,0.2,1.09,0.61,1.57c-0.32,0.4-0.4,0.87-0.24,1.39c0.16,0.53,0.24,0.99,0.24,1.39L600.09,258.24z"/>
		<path d="M663.77,250.37l0.48-3.27c0-0.24-0.06-0.5-0.18-0.79c-0.12-0.28-0.14-0.87-0.06-1.76c0.08-0.89,0.22-2,0.42-3.33
			s0.26-2.68,0.18-4.06c-1.62,0.16-3.25,0.2-4.9,0.12c-1.65-0.08-3.25,0-4.78,0.24c-0.24-0.4-0.48-0.81-0.73-1.21
			c-0.24-0.4-0.4-0.93-0.48-1.57c0.4-0.16,0.69-0.44,0.85-0.85c0.16-0.4,0.52-0.56,1.09-0.48c0.32-0.16,0.61-0.34,0.85-0.54
			c0.24-0.2,0.68-0.34,1.33-0.42c0.64-0.08,1.21-0.24,1.69-0.48s1.13-0.28,1.94-0.12c0.8,0.16,1.76,0.14,2.84-0.06
			c1.09-0.2,1.76-0.32,2-0.36c0.24-0.04,0.4-0.22,0.48-0.54c0.32,0,0.54,0.1,0.67,0.3c0.12,0.2,0.46,0.28,1.03,0.24
			c0.56-0.04,1.09-0.3,1.57-0.79c0.32,0.24,0.66,0.3,1.03,0.18s0.75-0.2,1.15-0.24c0.4-0.04,0.79-0.04,1.15,0
			c0.36,0.04,0.87-0.06,1.51-0.3c0.64-0.24,1.23-0.3,1.75-0.18s0.95-0.02,1.27-0.42c0.4,0.16,0.99,0.24,1.76,0.24
			c0.77,0,1.35-0.16,1.76-0.48c1.29,0.32,2.12,0.4,2.48,0.24c0.36-0.16,1.03-0.14,2,0.06c0.97,0.2,2.46,0.32,4.48,0.36
			c2.02,0.04,3.55,0.16,4.6,0.36c1.05,0.2,1.88,0.36,2.48,0.48s1.07,0.18,1.39,0.18c0.32,0,0.77,0.16,1.33,0.48
			c0.56,0.32,0.99,0.67,1.27,1.03c0.28,0.36,0.61,0.63,0.97,0.79c0.36,0.16,0.77,0.32,1.21,0.48c0.44,0.16,0.91,0.34,1.39,0.54
			c0.48,0.2,0.97,0.54,1.45,1.03c0.48,0.48,1.13,0.81,1.94,0.97c0.73,0.89,1.41,1.45,2.06,1.69c0.24,0.65,0.89,1.29,1.94,1.94
			c0.08,0.57,0.28,1.03,0.6,1.39s0.59,0.71,0.79,1.03c0.2,0.32,0.32,0.61,0.36,0.85s0.18,0.6,0.42,1.09s0.5,0.99,0.79,1.51
			c0.28,0.53,0.61,1.29,0.97,2.3c0.36,1.01,0.83,1.96,1.39,2.85c-0.16,0.97-0.12,1.88,0.12,2.72c0.24,0.85,0.36,1.39,0.36,1.63
			s0.18,0.83,0.54,1.76c0.36,0.93,0.38,1.74,0.06,2.42c-0.32,0.69-0.53,1.21-0.61,1.57c-0.08,0.36-0.1,0.77-0.06,1.21
			c0.04,0.44,0,0.99-0.12,1.63c-0.12,0.65-0.14,1.05-0.06,1.21c0.08,0.16,0.08,0.36,0,0.61c-0.73,0.65-1.09,1.09-1.09,1.33
			s-0.06,0.57-0.18,0.97c-0.12,0.4-0.34,0.75-0.67,1.03c-0.32,0.28-0.48,0.91-0.48,1.88c-0.32,0.16-0.53,0.38-0.61,0.67
			c-0.08,0.28-0.2,0.57-0.36,0.85c-0.16,0.28-0.28,0.57-0.36,0.85c-0.08,0.28-0.24,0.57-0.48,0.85c-0.24,0.28-0.59,0.59-1.03,0.91
			c-0.45,0.32-0.75,0.73-0.91,1.21c-0.32-0.08-0.54,0.06-0.67,0.42s-0.42,0.47-0.91,0.3c-0.4,0.32-0.73,0.67-0.97,1.03
			s-0.59,0.63-1.03,0.79c-0.44,0.16-0.79,0.3-1.03,0.42s-0.66,0.26-1.27,0.42c-0.61,0.16-1.15,0.4-1.63,0.73
			c-0.48,0-0.85,0.14-1.09,0.42c-0.24,0.28-0.53,0.34-0.85,0.18c-0.4,0.57-0.99,0.91-1.76,1.03s-1.35,0.51-1.75,1.15
			c0.16,0.97,0.64,1.84,1.45,2.6c0.8,0.77,1.61,1.47,2.42,2.12c0.08,0.65,0.87,2.08,2.36,4.3c1.49,2.22,2.34,3.79,2.54,4.72
			c0.2,0.93,0.38,1.56,0.54,1.88c0.16,0.32,0.4,0.91,0.73,1.75c0.32,0.85,0.64,1.74,0.97,2.66c0.32,0.93,0.64,1.82,0.97,2.66
			c0.32,0.85,0.54,1.41,0.67,1.69c0.12,0.28,0.28,0.61,0.48,0.97c0.2,0.36,0.34,0.69,0.42,0.97c0.08,0.28,0.26,0.91,0.54,1.88
			c0.28,0.97,0.67,2.42,1.15,4.36s0.85,3.19,1.09,3.75s0.44,1.07,0.61,1.51c0.16,0.44,0.34,0.93,0.54,1.45
			c0.2,0.52,0.4,1.01,0.61,1.45c0.2,0.44,0.34,0.83,0.42,1.15c0.08,0.32,0.28,0.71,0.61,1.15c0.32,0.44,0.64,0.95,0.97,1.51
			c0.32,0.32,0.59,0.75,0.79,1.27c0.2,0.52,0.5,0.99,0.91,1.39c0.81,0.24,1.23,0.4,1.27,0.48c0.04,0.08,0.18,0.16,0.42,0.24
			c0.64,0.32,1.96,0.38,3.93,0.18c1.98-0.2,3.13-0.5,3.45-0.91c0.32-0.4,0.87-0.75,1.63-1.03c0.77-0.28,1.23-0.59,1.39-0.91
			l0.97-1.21c0.24-0.97,0.46-1.57,0.67-1.82c0.2-0.24,0.36-0.59,0.48-1.03c0.12-0.44,0.14-1.01,0.06-1.69
			c-0.08-0.69-0.12-1.35-0.12-2c0.16-0.32,0.06-0.59-0.3-0.79c-0.36-0.2-0.59-0.5-0.67-0.91c-0.08-0.4-0.2-0.68-0.36-0.85
			c-0.24-0.16-0.46-0.36-0.67-0.61c-0.2-0.24-0.63-0.5-1.27-0.79c-0.65-0.28-1.37-0.12-2.18,0.48c-0.81,0.6-1.49,1.39-2.06,2.36
			l-2.78-0.12c-0.57-0.41-0.93-0.97-1.09-1.7c-0.16-0.73-0.45-1.41-0.85-2.06c0-0.56,0.24-1.09,0.73-1.57l1.09-1.09
			c0.24-0.24,0.44-0.56,0.61-0.97c1.13-0.32,1.77-0.5,1.94-0.54c0.16-0.04,0.42-0.14,0.79-0.3c0.36-0.16,1.01-0.48,1.94-0.97
			c0.93-0.48,1.71-0.54,2.36-0.18s1.37,0.63,2.18,0.79c0.16,0.16,0.26,0.38,0.3,0.67c0.04,0.28,0.14,0.5,0.3,0.67
			c0.56,0.32,0.97,0.63,1.21,0.91c0.24,0.28,0.61,0.46,1.09,0.54c0.56,0.81,1.11,1.63,1.63,2.48s0.71,1.96,0.54,3.33
			c0.48,1.53,0.69,2.82,0.61,3.87c-0.08,1.05-0.08,1.71,0,2c0.08,0.28-0.04,0.71-0.36,1.27l-0.85,1.82
			c-0.81,1.45-1.43,2.4-1.88,2.84c-0.45,0.44-0.83,0.89-1.15,1.33c-0.32,0.44-0.75,0.93-1.27,1.45c-0.53,0.52-1.05,0.79-1.57,0.79
			c-0.53,0-1.03,0.18-1.51,0.54c-0.48,0.36-1.41,0.54-2.78,0.54c-1.37,0-2.22-0.12-2.54-0.36c-1.45,1.21-3.11,1.25-4.96,0.12
			c-0.73-0.41-1.53-0.48-2.42-0.24c-2.02-1.37-3.67-2.26-4.96-2.66c-0.16-0.16-0.22-0.42-0.18-0.79s0.06-0.75,0.06-1.15
			c-0.65,0-1.13-0.04-1.45-0.12c0-0.16-0.29-0.67-0.85-1.51c-0.57-0.85-0.97-1.49-1.21-1.94c-0.24-0.44-0.4-0.71-0.48-0.79
			c-0.73-0.32-1.19-0.67-1.39-1.03s-0.38-0.61-0.54-0.73s-0.44-0.59-0.85-1.39c-0.89-1.78-1.78-3.55-2.66-5.33l-0.61-1.33
			c-0.24-0.65-0.57-1.45-0.97-2.42c-2.02-4.84-3.03-7.71-3.03-8.59c-0.32-0.32-0.65-0.65-0.97-0.97c-0.24-1.29-0.61-2.06-1.09-2.3
			c0.16-0.65,0.08-1.13-0.24-1.45c-0.32-0.32-0.4-0.81-0.24-1.45c-0.56-0.4-1.11-1.53-1.63-3.39c-0.53-1.86-0.79-2.92-0.79-3.21
			c0-0.28-0.02-0.61-0.06-0.97c-0.04-0.36-0.18-0.71-0.42-1.03c-0.24-0.32-0.36-0.81-0.36-1.45c-0.65-0.73-1.35-1.41-2.12-2.06
			c-0.77-0.65-1.47-1.41-2.12-2.3c-1.94-0.24-3.75-1.13-5.45-2.66c-0.32-0.08-0.61-0.1-0.85-0.06c-0.24,0.04-0.54,0.02-0.91-0.06
			c-0.36-0.08-0.73-0.24-1.09-0.48c-0.36-0.24-0.81-0.3-1.33-0.18c-0.53,0.12-0.81,0.24-0.85,0.36c-0.04,0.12-0.3,0.48-0.79,1.09
			c-0.48,0.6-0.56,1.33-0.24,2.18c0.32,0.85,0.46,1.68,0.42,2.48c-0.04,0.81-0.12,1.72-0.24,2.72c-0.12,1.01-0.18,1.68-0.18,2
			l0.48,7.63c0,0.41-0.12,0.97-0.36,1.7l0.12,2.42c-0.08,0.73-0.12,1.53-0.12,2.42v2.3c-0.16,0.57-0.2,0.91-0.12,1.03
			s0.06,0.5-0.06,1.15c-0.12,0.65-0.14,1.25-0.06,1.82c0.08,0.57,0.08,1.35,0,2.36c-0.08,1.01-0.24,2.12-0.48,3.33
			c-0.24,1.21-0.08,2.38,0.48,3.51c1.29,0.4,2.22,0.56,2.79,0.48l1.33-0.36c0.97,0.24,1.63,0.34,2,0.3
			c0.36-0.04,0.87,0.02,1.51,0.18c0.16,0.24,0.26,0.52,0.3,0.85c0.04,0.32,0.1,0.65,0.18,0.97c0.32,0.08,0.44,0.32,0.36,0.73
			c-0.08,0.4-0.12,0.81-0.12,1.21c-0.97,0.73-2.22,0.89-3.75,0.48c-0.4-0.08-0.6,0.08-0.6,0.48c0,0.4-0.16,0.61-0.48,0.61
			c-0.24-0.24-0.47-0.26-0.67-0.06c-0.2,0.2-0.54,0.32-1.03,0.36c-0.48,0.04-1.01-0.02-1.57-0.18c-1.37-0.57-2.5-0.2-3.39,1.09
			c-0.4-0.32-1.01-0.48-1.82-0.48s-1.37,0.24-1.7,0.73c-0.32-0.41-0.67-0.54-1.03-0.42c-0.36,0.12-0.75,0.26-1.15,0.42
			c-0.65-0.48-1.29-0.57-1.94-0.24c-0.65,0.32-1.39,0.54-2.24,0.67c-0.85,0.12-1.41,0.32-1.69,0.61c-0.29,0.28-0.71,0.42-1.27,0.42
			l-0.36-0.12c-0.48,0-0.97,0.12-1.45,0.36c-1.05,0.56-2.06,0.16-3.03-1.21c0.16-0.48,0.26-0.93,0.3-1.33
			c0.04-0.41,0.14-0.77,0.3-1.09c0.32-0.32,0.64-0.44,0.97-0.36c0.65,0.08,1.25-0.16,1.82-0.73c0.16-0.08,0.89-0.28,2.18-0.61
			c1.29-0.32,1.94-0.54,1.94-0.67s0.34-0.22,1.03-0.3c0.69-0.08,1.19-0.44,1.51-1.09c0.08-0.65,0.02-1.15-0.18-1.51
			c-0.2-0.36-0.38-0.83-0.54-1.39c0.16-1.13,0.12-2.28-0.12-3.45c-0.24-1.17-0.32-2.1-0.24-2.78c0.08-0.68,0.16-1.17,0.24-1.45
			c0.08-0.28,0.12-0.54,0.12-0.79l-0.24-1.94c-0.08-0.32-0.08-0.62,0-0.91c0.08-0.28,0.04-1.15-0.12-2.6l-0.24-2.18
			c0.24-0.73,0.36-1.29,0.36-1.7l-0.24-2.42c-0.08-0.4-0.1-0.83-0.06-1.27c0.04-0.44,0.06-0.87,0.06-1.27
			c-0.32-1.05-0.44-1.61-0.36-1.69c0.08-0.08,0.08-0.28,0-0.61l-0.36-2.42c-0.16-1.13-0.16-2.3,0-3.51s0.24-2.26,0.24-3.15v-2.91
			c0-0.97-0.04-1.77-0.12-2.42l-0.24-1.94c-0.08-0.89-0.06-2,0.06-3.33s0.14-2.16,0.06-2.48c-0.08-0.32-0.12-0.69-0.12-1.09v-2.54
			l-1.09-5.21l0.12-2.18c0.16-0.97,0.24-1.98,0.24-3.03v-1.69c0-0.24-0.06-0.46-0.18-0.67c-0.12-0.2-0.22-0.56-0.3-1.09
			c-0.08-0.52-0.04-1.23,0.12-2.12c0.16-0.89,0.24-1.57,0.24-2.06S664.01,251.1,663.77,250.37z M690.4,234.88l-8.47,0.24
			c-1.45,1.21-2.95,1.69-4.48,1.45c-0.16,0.4-0.5,0.73-1.03,0.97c-0.53,0.24-0.93,0.77-1.21,1.57c-0.29,0.81-0.16,1.69,0.36,2.66
			c0.52,0.97,0.8,1.8,0.85,2.48c0.04,0.69,0.18,1.27,0.42,1.76l0.12,3.51c0.08,1.37,0.08,2.72,0,4.06s-0.12,2.54-0.12,3.63
			c0,1.09,0.04,2.04,0.12,2.84c0.08,0.81,0.14,1.57,0.18,2.3c0.04,0.73,0.02,1.45-0.06,2.18c-0.08,0.73-0.02,1.59,0.18,2.6
			c0.2,1.01,0.26,1.76,0.18,2.24c-0.08,0.48-0.06,1.05,0.06,1.69c0.12,0.65,0.18,1.37,0.18,2.18c0,0.81,0.16,1.41,0.48,1.82
			c0.08,0.32,0.06,0.69-0.06,1.09c-0.12,0.4,0.02,0.57,0.42,0.48c0.08,0.4,0.3,0.54,0.67,0.42s1.37-0.08,3.03,0.12
			c1.65,0.2,3.04-0.02,4.18-0.67c2.66,1.29,5.12,1.29,7.38,0c0.89-0.48,1.86-0.81,2.9-0.97c0.4-0.65,0.87-1.11,1.39-1.39
			c0.52-0.28,1.03-0.62,1.51-1.03c0.16-0.48,0.34-0.83,0.54-1.03c0.2-0.2,0.22-0.58,0.06-1.15c1.05-0.4,1.86-1.37,2.42-2.91
			c0.08-0.32,0.26-0.48,0.54-0.48c0.28,0,0.42-0.2,0.42-0.61c0.16,0,0.18-0.18,0.06-0.54c-0.12-0.36,0-0.91,0.36-1.63
			c0.36-0.73,0.54-1.69,0.54-2.91c0.73-0.65,1.05-1.55,0.97-2.72c-0.08-1.17,0.12-2.28,0.61-3.33c-0.48-0.73-0.81-1.61-0.97-2.66
			c0.08-0.32,0.1-0.77,0.06-1.33c-0.04-0.56-0.04-1.01,0-1.33c0.04-0.32,0.02-0.71-0.06-1.15c-0.08-0.44-0.22-0.85-0.42-1.21
			c-0.2-0.36-0.22-0.79-0.06-1.27c-0.73-0.97-1.21-2.18-1.45-3.63c-0.65-0.65-1.01-0.95-1.09-0.91c-0.08,0.04-0.3-0.16-0.67-0.6
			c-0.36-0.44-0.67-0.89-0.91-1.33c-0.24-0.44-0.57-0.75-0.97-0.91c-0.41-0.56-0.81-0.93-1.21-1.09c-0.4-0.16-0.71-0.34-0.91-0.54
			c-0.2-0.2-0.4-0.34-0.61-0.42c-0.2-0.08-0.42-0.2-0.67-0.36c-1.13-1.29-2.22-1.9-3.27-1.82
			C691.89,235.32,691.04,235.2,690.4,234.88z"/>
		<path d="M754.32,288.99c0.32,1.78,0.48,3.41,0.48,4.9c0,1.49,0.28,3.09,0.85,4.78l-0.12,1.82c0,1.37,0.12,2.34,0.36,2.91
			c0.24,0.57,0.4,1.09,0.48,1.57c0.08,0.48,0.06,1.09-0.06,1.82c-0.12,0.73,0.18,1.29,0.91,1.7l1.94,0.61c1.13-0.4,2.18-0.4,3.15,0
			c0.97,0.4,1.57,0.89,1.82,1.45c0.16,0.81,0.02,1.49-0.42,2.06c-0.45,0.57-0.87,1.17-1.27,1.82c-1.13-0.08-2.46-0.08-4,0
			c-0.57-0.16-0.83-0.08-0.79,0.24c0.04,0.32-0.14,0.45-0.54,0.36c-0.41-0.08-0.77-0.08-1.09,0c-0.32,0.08-0.67,0.18-1.03,0.3
			s-0.73,0.18-1.09,0.18s-0.71-0.12-1.03-0.36c-1.37,0.57-2.42,1.21-3.15,1.94l-0.73-0.36c0.08,0.08-0.26,0.12-1.03,0.12
			c-0.77,0-1.23,0.04-1.39,0.12c-0.81,0.48-1.39,0.71-1.75,0.67c-0.36-0.04-0.75,0.1-1.15,0.42c-0.4,0.32-0.81,0.51-1.21,0.54
			c-0.4,0.04-0.83-0.04-1.27-0.24c-0.44-0.2-0.95-0.3-1.51-0.3c-0.4-0.4-0.65-1.03-0.73-1.88c-0.08-0.85,0-1.49,0.24-1.94
			c0.24-0.44,0.62-0.67,1.15-0.67c0.52,0,1.07-0.16,1.63-0.48c0.56-0.32,0.89-0.48,0.97-0.48c0.56,0,1.49-0.97,2.78-2.91
			c0.16-0.73,0.18-1.31,0.06-1.75c-0.12-0.44-0.26-1.01-0.42-1.7c-0.16-0.68-0.24-1.31-0.24-1.88c0-0.56-0.04-1.05-0.12-1.45
			c-0.08-0.4-0.18-0.75-0.3-1.03c-0.12-0.28-0.24-0.81-0.36-1.57c-0.12-0.77-0.14-1.67-0.06-2.72c0.08-1.05,0.06-1.96-0.06-2.72
			c-0.12-0.77-0.24-1.37-0.36-1.82c-0.12-0.44-0.22-0.87-0.3-1.27c0-0.4,0.04-0.79,0.12-1.15c0.08-0.36-0.08-0.75-0.48-1.15
			c0.16-1.21,0.16-2.1,0-2.66c-0.16-0.56-0.2-1.01-0.12-1.33c0.08-0.32,0.04-0.77-0.12-1.33c-0.16-0.56-0.2-0.97-0.12-1.21
			c0.08-0.24,0.08-0.52,0-0.85c-0.08-0.32-0.14-0.68-0.18-1.09c-0.04-0.4-0.08-0.87-0.12-1.39c-0.04-0.52-0.18-1.11-0.42-1.76
			c-0.08-0.81-0.18-1.27-0.3-1.39s-0.2-0.28-0.24-0.48c-0.04-0.2-0.04-0.44,0-0.73c0.04-0.28-0.16-1.35-0.61-3.21
			c-0.44-1.86-0.59-3.05-0.42-3.57c0.16-0.52,0.2-0.97,0.12-1.33c-0.08-0.36-0.22-0.81-0.42-1.33c-0.2-0.52-0.36-1.01-0.48-1.45
			c-0.12-0.44-0.16-0.81-0.12-1.09c0.04-0.28,0.04-0.58,0-0.91c-0.04-0.32-0.14-0.6-0.3-0.85c-0.41-1.05-0.61-2.58-0.61-4.6
			l-0.36-2.78c-0.08-0.65,0-1.37,0.24-2.18c0.24-0.81,0.12-1.94-0.36-3.39l-0.24-2.54c-0.24-1.05-0.36-1.94-0.36-2.66
			c0-0.73-0.1-1.09-0.3-1.09c-0.2,0-0.46-0.2-0.79-0.6c-0.32,0.08-1.57,0.12-3.75,0.12l-2.54-0.24c-0.08-0.4-0.24-0.65-0.48-0.73
			c-0.24-0.08-0.45-0.28-0.61-0.6c0.16-1.05,0.44-1.86,0.85-2.42c0.81-0.4,1.25-0.54,1.33-0.42c0.08,0.12,0.28,0.14,0.61,0.06
			c0.32-0.08,0.75-0.22,1.27-0.42c0.52-0.2,1.15-0.36,1.88-0.48s1.59-0.18,2.6-0.18c1.01,0,1.75-0.32,2.24-0.97
			c0.48,0.24,0.99,0.22,1.51-0.06c0.52-0.28,1.09-0.48,1.69-0.61s1.21-0.24,1.82-0.36c0.6-0.12,1.03-0.38,1.27-0.79
			c1.45,0.57,2.34,0.79,2.66,0.67c0.32-0.12,0.63-0.24,0.91-0.36c0.28-0.12,0.71-0.14,1.27-0.06c1.05-0.48,1.61-0.68,1.69-0.61v0.48
			l3.51-1.57c0.48,0.32,0.93,0.53,1.33,0.61c0.4,0.08,0.6,0.44,0.6,1.09c0.32,1.05,0.54,1.63,0.67,1.76s0.14,0.38,0.06,0.79
			c-1.37,0.65-2.38,1.15-3.03,1.51c-0.65,0.36-1.41,0.63-2.3,0.79c-0.32,0.48-0.71,0.83-1.15,1.03c-0.44,0.2-0.85,0.5-1.21,0.91
			c-0.36,0.4-0.54,0.85-0.54,1.33c0,0.48-0.2,0.93-0.61,1.33c-0.16,0.65-0.16,1.39,0,2.24c0.16,0.85,0.24,1.72,0.24,2.6l-0.12,2.42
			c0.08,0.73,0.2,1.43,0.36,2.12c0.16,0.69,0.28,1.41,0.36,2.18c0.08,0.77,0.1,1.51,0.06,2.24c-0.04,0.73,0.06,1.47,0.3,2.24
			c0.24,0.77,0.32,1.19,0.24,1.27c-0.08,0.08-0.12,0.2-0.12,0.36l0.6,2.54v1.33c0,0.57,0.04,1.09,0.12,1.57l0.12,1.57
			c0,1.37,0.14,2.36,0.42,2.97c0.28,0.6,0.46,1.29,0.54,2.06c0.08,0.77,0.06,1.53-0.06,2.3c-0.12,0.77-0.18,1.51-0.18,2.24
			l0.61,2.06l0.12,2.54c0,0.32-0.02,0.71-0.06,1.15c-0.04,0.44,0.14,0.91,0.54,1.39C753.95,285.76,753.99,287.22,754.32,288.99z"/>
		<path d="M791.36,223.14l3.99-0.97c0.48,0.24,0.99,0.47,1.51,0.67c0.52,0.2,1.03,0.42,1.51,0.67c0.48,1.05,1.13,1.62,1.94,1.69
			c1.13,0,2.02,0.57,2.66,1.69c0.56,0.81,1.13,1.49,1.69,2.06c1.53,0.73,2.74,0.69,3.63-0.12l1.69-1.94
			c0.89-0.81,1.77-0.56,2.66,0.73c0.48,0.65,0.64,1.41,0.48,2.3c-0.4,0.89-0.71,1.72-0.91,2.48c-0.2,0.77-0.41,1.39-0.61,1.88
			c-0.2,0.48-0.54,1.07-1.03,1.75c-0.48,0.69-0.73,1.27-0.73,1.76c-1.94,1.45-2.99,3.15-3.15,5.08c-0.81,0.97-1.29,1.74-1.45,2.3
			c-0.73,0.08-1.37,0.24-1.94,0.48c-0.57,0.24-1.17,0.24-1.82,0c-0.16-0.65-0.32-1.19-0.48-1.63c-0.16-0.44-0.22-1.07-0.18-1.88
			c0.04-0.81,0.42-1.71,1.15-2.72c0.73-1.01,0.91-2.06,0.54-3.15c-0.36-1.09-0.81-1.73-1.33-1.94c-0.53-0.2-0.87-0.75-1.03-1.63
			c-1.21-0.56-2.26-1.41-3.15-2.54c-1.13,0.08-1.98-0.36-2.54-1.33c-1.05-0.08-1.94,0.2-2.66,0.85l-1.69,1.57
			c-0.41,0.32-0.85,0.6-1.33,0.85c-0.81,1.37-1.19,2.64-1.15,3.81c0.04,1.17,0,2.14-0.12,2.91c-0.12,0.77-0.1,1.51,0.06,2.24
			c0.16,0.73,0.32,1.35,0.48,1.88c0.16,0.53,0.22,1.21,0.18,2.06c-0.04,0.85,0.04,1.69,0.24,2.54c0.2,0.85,0.4,1.59,0.61,2.24
			c0.2,0.65,0.34,1.23,0.42,1.76c0.08,0.53,0.34,1.27,0.79,2.24c0.44,0.97,0.75,1.84,0.91,2.6c0.16,0.77,0.4,1.47,0.73,2.12
			c0.65,0.73,1.13,1.53,1.45,2.42c0.32,0.89,0.73,1.74,1.21,2.54c0.48,0.81,0.99,1.49,1.51,2.06c0.52,0.57,0.91,1.21,1.15,1.94
			c0.73,0.48,1.37,0.73,1.94,0.73c0,0.81,0.12,1.69,0.36,2.66c0.24,0.48,0.54,0.97,0.91,1.45c0.36,0.48,0.67,0.99,0.91,1.51
			c0.24,0.53,0.48,1.07,0.73,1.63c0.24,0.57,0.5,1.11,0.79,1.63c0.28,0.53,0.61,1.05,0.97,1.57c0.36,0.53,0.67,1.03,0.91,1.51
			c0.56,0.65,0.83,1.05,0.79,1.21c-0.04,0.16,0.1,0.48,0.42,0.97c0.32,0.48,0.85,1.76,1.57,3.81c0.73,2.06,1.49,3.49,2.3,4.3
			c-0.16,0.65-0.18,1.25-0.06,1.82c0.12,0.57,0.18,1.17,0.18,1.82c0,0.65,0.08,1.59,0.24,2.85c0.16,1.25,0.12,2.38-0.12,3.39
			c-0.24,1.01-0.34,1.66-0.3,1.94c0.04,0.28-0.1,0.69-0.42,1.21c-0.32,0.53-0.61,1.03-0.85,1.51s-0.47,0.91-0.67,1.27
			c-0.2,0.36-0.38,0.69-0.54,0.97c-0.16,0.28-0.28,0.59-0.36,0.91c-0.08,0.32-0.16,0.57-0.24,0.73c-0.73,0.48-1.09,0.77-1.09,0.85
			c0,0.16-0.53,0.61-1.57,1.33l-0.73,1.09c-0.73,1.29-1.33,2.06-1.82,2.3c-0.89,0.24-1.35,0.44-1.39,0.6
			c-0.04,0.16-0.14,0.12-0.3-0.12c-0.41,0.65-0.67,0.95-0.79,0.91c-0.12-0.04-0.24,0-0.36,0.12s-0.24,0.28-0.36,0.48
			c-0.12,0.2-0.32,0.4-0.61,0.61c-0.28,0.2-0.65,0.36-1.09,0.48c-0.44,0.12-0.83,0.24-1.15,0.36c-0.32,0.12-0.61,0.22-0.85,0.3
			l-1.45,0.48c-1.62,0.56-2.71,1.13-3.27,1.7c-0.24-0.08-0.44-0.2-0.61-0.36c-0.16-0.16-0.53-0.22-1.09-0.18
			c-0.57,0.04-0.89,0.3-0.97,0.79c-0.48-0.32-1.01-0.38-1.57-0.18c-0.57,0.2-1.09,0.3-1.57,0.3l-1.7-0.24
			c-1.21,0.16-2.02,0.14-2.42-0.06c-0.4-0.2-1.05-0.47-1.94-0.79c-0.89-0.32-1.55-0.54-2-0.67c-0.45-0.12-0.71-0.58-0.79-1.39
			c-0.65,0-1.31-0.18-2-0.54c-0.69-0.36-1.11-0.67-1.27-0.91c-0.16-0.24-0.48-0.61-0.97-1.09c-0.48-0.48-0.81-0.89-0.97-1.21
			c-0.16-0.32-0.26-0.75-0.3-1.27c-0.04-0.52-0.14-1.07-0.3-1.63c-0.48-0.73-0.71-1.31-0.67-1.75c0.04-0.44-0.26-0.75-0.91-0.91
			c0.08-0.48,0.04-0.85-0.12-1.09c-0.16-0.24-0.24-0.64-0.24-1.21c0-0.56-0.2-0.89-0.6-0.97c-0.41-0.08-0.61-0.4-0.61-0.97
			c0-0.56,0.08-1.09,0.24-1.57c0.64-1.94,0.77-3.43,0.36-4.48c0.81-1.13,1.55-2.18,2.24-3.15c0.68-0.97,1.39-1.94,2.12-2.9
			c1.37-0.08,2.46-0.68,3.27-1.82c0.56,0.4,1.09,0.36,1.57-0.12c0.48-0.48,0.97-0.68,1.45-0.6c0.48,0.08,0.87,0.02,1.15-0.18
			c0.28-0.2,1.07-0.18,2.36,0.06c1.29,0,2.36,0.14,3.21,0.42c0.85,0.28,1.27,0.54,1.27,0.79c1.37,0.65,2.22,1.23,2.54,1.75
			c0.32,0.53,0.68,1.11,1.09,1.76c0.16,0,0.32,0.16,0.48,0.48c0.16,0.32,0.32,0.61,0.48,0.85c0.97,1.13,1.33,3.15,1.09,6.05
			c0,0.73-0.14,1.43-0.42,2.12c-0.28,0.69-0.47,1.39-0.54,2.12c-0.16,1.62-1.21,2.3-3.15,2.06c-0.48,0-0.91-0.3-1.27-0.91
			c-0.36-0.6-0.83-0.95-1.39-1.03c-0.16-0.81-0.34-1.57-0.54-2.3c-0.2-0.73-0.42-1.53-0.67-2.42c-0.73-3.63-1.49-5.57-2.3-5.81
			c-0.41-0.16-1.05-0.18-1.94-0.06c-0.89,0.12-1.51,0.41-1.88,0.85c-0.36,0.44-0.65,0.65-0.85,0.61c-0.2-0.04-0.46,0.06-0.79,0.3
			c-0.32,0.24-0.67,0.59-1.03,1.03c-0.36,0.44-0.75,0.79-1.15,1.03c-1.29,3.87-0.97,6.54,0.97,7.99c0,0.81,0.12,1.33,0.36,1.57
			c0.08,0.65,0.16,1.03,0.24,1.15c0.08,0.12,0.12,0.59,0.12,1.39c0.48,0.4,0.95,0.77,1.39,1.09c0.44,0.32,0.79,0.81,1.03,1.45
			c0.97,0,1.7,0.24,2.18,0.73c0.48,0.48,1.05,0.93,1.7,1.33c0.64-0.24,1.19-0.28,1.63-0.12c0.44,0.16,0.99,0.36,1.63,0.61
			c2.58-0.24,4.96-1.13,7.14-2.66c0.32-0.4,0.65-0.63,0.97-0.67c0.32-0.04,1.01-0.71,2.06-2c0.89-0.64,1.41-1.11,1.57-1.39
			c0.16-0.28,0.73-0.99,1.69-2.12c0.97-1.13,1.37-2.1,1.21-2.91c-0.16-0.81-0.16-1.69,0-2.66c-0.16-0.97-0.22-1.69-0.18-2.18
			c0.04-0.48-0.04-0.97-0.24-1.45c-0.2-0.48-0.36-0.97-0.48-1.45c-0.12-0.48-0.36-1.17-0.73-2.06c-0.36-0.89-0.97-1.94-1.82-3.15
			s-1.35-2.74-1.51-4.6c-0.48-0.81-0.99-1.51-1.51-2.12c-0.53-0.61-0.99-1.31-1.39-2.12c-0.57-0.65-1.11-1.29-1.63-1.94
			c-0.53-0.65-0.91-1.49-1.15-2.54c-0.73-0.73-1.33-1.57-1.82-2.54c-0.48-0.97-0.99-1.8-1.51-2.48c-0.53-0.68-0.79-1.15-0.79-1.39
			c0-0.48-0.32-0.99-0.97-1.51c-0.65-0.52-0.97-1.71-0.97-3.57c-0.4-0.24-0.69-0.56-0.85-0.97c-0.48-0.97-1.13-1.77-1.94-2.42
			c-1.21-1.13-1.62-2.74-1.21-4.84c-0.16-0.48-0.38-0.81-0.67-0.97c-0.28-0.16-0.48-0.46-0.61-0.91c-0.12-0.44-0.2-0.93-0.24-1.45
			c-0.04-0.52-0.12-1.03-0.24-1.51s-0.24-0.95-0.36-1.39c-0.12-0.44-0.14-0.87-0.06-1.27l-0.12-1.82c0-0.08-0.16-0.61-0.48-1.57
			l-0.24-2.06l0.48-1.82l-0.24-2.3c0-2.42,0.16-3.95,0.48-4.6c0.32-0.65,0.54-1.25,0.67-1.82c0.12-0.56,0.2-1.11,0.24-1.63
			c0.04-0.52,0.26-1.03,0.67-1.51c0.64-0.48,0.95-0.81,0.91-0.97c-0.04-0.16,0.08-0.46,0.36-0.91c0.28-0.44,0.58-0.79,0.91-1.03
			c0.32-0.24,0.62-0.5,0.91-0.79c0.28-0.28,0.5-0.56,0.67-0.85c0.16-0.28,0.38-0.5,0.67-0.67c0.28-0.16,0.52-0.26,0.73-0.3
			c0.2-0.04,0.79-0.28,1.76-0.73c0.97-0.44,1.82-0.95,2.54-1.51c0.73-0.56,1.35-0.91,1.88-1.03c0.52-0.12,0.91-0.12,1.15,0
			S790.88,223.14,791.36,223.14z"/>
		<path d="M879.25,242.26l-0.48,1.33c0,0.48,0.1,0.97,0.3,1.45c0.2,0.48,0.24,1.03,0.12,1.63c-0.12,0.6-0.42,1.19-0.91,1.75
			c-0.48,0.57-0.97,1.17-1.45,1.82c-0.32,0.08-0.59,0.02-0.79-0.18c-0.2-0.2-0.46-0.26-0.79-0.18c-0.32-0.48-0.77-0.97-1.33-1.45
			c-0.57-0.48-0.89-1.29-0.97-2.42c-0.08-1.13-0.34-2.12-0.79-2.97c-0.44-0.85-0.75-1.47-0.91-1.88c-0.48,0.08-2.1-0.08-4.84-0.48
			c-0.81,0.24-1.45,0.32-1.94,0.24c-0.48-0.08-0.81-0.12-0.97-0.12c-0.81,0-1.62,0.2-2.42,0.61c-0.81,0.4-1.49,0.48-2.06,0.24
			c-0.57-0.24-1.19-0.34-1.88-0.3c-0.69,0.04-1.11,0.04-1.27,0c-0.16-0.04-0.32-0.02-0.48,0.06c-0.57,0.73-0.69,1.74-0.36,3.03
			c0.32,1.29,0.44,2.1,0.36,2.42c-0.08,0.32,0.02,0.93,0.3,1.82c0.28,0.89,0.32,1.69,0.12,2.42c-0.2,0.73-0.22,1.31-0.06,1.75
			c0.16,0.44,0.16,0.85,0,1.21c-0.16,0.36-0.24,0.75-0.24,1.15l0.36,1.94c0.08,0.65,0.1,1.23,0.06,1.75
			c-0.04,0.53,0.06,1.17,0.3,1.94c0.24,0.77,0.32,1.29,0.24,1.57c-0.08,0.28-0.12,1.11-0.12,2.48c0,1.37,0.2,3.67,0.6,6.9
			l-0.36,1.82l0.85,8.47l-0.24,2.78l0.24,2.54l0.61,2.66l0.24,1.94c0,0.41-0.06,0.85-0.18,1.33s-0.22,1.05-0.3,1.69
			c-0.08,0.65-0.06,1.39,0.06,2.24c0.12,0.85,0.18,1.57,0.18,2.18c0,0.6-0.04,1.07-0.12,1.39c-0.08,0.32-0.08,0.81,0,1.45
			c0.08,0.65,0.06,1.13-0.06,1.45c-0.12,0.32-0.18,0.65-0.18,0.97l0.36,4v3.15c0,0.57,0.08,1.25,0.24,2.06
			c0.73,0.89,1.23,1.27,1.51,1.15c0.28-0.12,0.63-0.18,1.03-0.18l1.09,0.97c0.32-0.08,0.93,0,1.82,0.24
			c2.34,0.65,3.23,1.57,2.66,2.78c-0.32,0.89-0.81,1.7-1.45,2.42c-0.41,0.16-0.79,0.14-1.15-0.06c-0.36-0.2-0.71-0.3-1.03-0.3
			c-0.81,0.65-1.71,0.93-2.72,0.85c-1.01-0.08-1.94-0.06-2.78,0.06c-0.85,0.12-1.51,0.22-2,0.3c-0.48,0.08-1.05,0.14-1.7,0.18
			c-0.65,0.04-1.25,0.02-1.82-0.06c-0.57-0.08-1.21-0.06-1.94,0.06c-0.73,0.12-1.43,0.32-2.12,0.61c-0.69,0.28-1.43,0.4-2.24,0.36
			c-0.81-0.04-1.53-0.14-2.18-0.3c-0.65-0.16-1.37-0.22-2.18-0.18c-0.81,0.04-1.62,0.2-2.42,0.48c-0.81,0.28-1.37,0.38-1.69,0.3
			c-0.32-0.08-0.63-0.28-0.91-0.61c-0.28-0.32-0.59-0.57-0.91-0.73c0.16-1.29,0.32-2.22,0.48-2.78c0.65-0.4,1.37-0.65,2.18-0.73
			c0.81-0.08,1.47-0.2,2-0.36c0.52-0.16,0.99-0.32,1.39-0.48c0.4-0.16,0.85-0.32,1.33-0.48c0.48-0.16,0.97-0.28,1.45-0.36
			c0.48-0.08,0.95-0.32,1.39-0.73c0.44-0.4,0.68-0.65,0.73-0.73c0.04-0.08,0.28-0.48,0.73-1.21c0.44-0.73,0.6-1.27,0.48-1.63
			c-0.12-0.36-0.18-0.79-0.18-1.27l0.24-1.45c-0.16-0.97-0.24-2.14-0.24-3.51c0-1.37-0.06-2.24-0.18-2.6s-0.24-0.73-0.36-1.09
			c-0.12-0.36-0.1-0.69,0.06-0.97c0.16-0.28,0.24-0.62,0.24-1.03c-0.73-1.61-1.09-4.16-1.09-7.63c0-3.47-0.08-6.33-0.24-8.59
			l0.24-1.82l-0.24-1.82c0.16-1.13,0.08-1.98-0.24-2.54c0.73-1.86,0.44-3.83-0.85-5.93c0.4-0.4,0.56-0.83,0.48-1.27
			c-0.08-0.44-0.04-1.13,0.12-2.06c0.16-0.93,0.16-1.63,0-2.12c-0.16-0.48-0.28-0.97-0.36-1.45c-0.08-0.48-0.1-0.89-0.06-1.21
			c0.04-0.32,0.06-0.68,0.06-1.09l-0.48-1.33l0.24-1.57c0-1.21,0.04-1.86,0.12-1.94c-0.4-0.81-0.6-1.9-0.6-3.27v-4.36l-0.12-5.21
			c0-0.16,0.04-0.46,0.12-0.91c0.08-0.44,0.08-0.77,0-0.97c-0.08-0.2-0.24-0.38-0.48-0.54c-0.24-0.16-0.28-0.44-0.12-0.85
			c-0.57-0.16-0.95-0.1-1.15,0.18c-0.2,0.28-0.54,0.42-1.03,0.42l-5.69-0.24l-1.69-0.36l-4.72,0.12c-0.48,0.24-0.91,0.54-1.27,0.91
			c-0.36,0.36-0.91,0.5-1.63,0.42c-0.4,0.4-0.93,0.75-1.57,1.03c-0.65,0.28-1.05,0.63-1.21,1.03c0.16,1.21-0.02,2.08-0.54,2.6
			c-0.53,0.53-0.89,1.03-1.09,1.51c-0.2,0.48-0.32,1.03-0.36,1.63c-0.04,0.61-0.38,0.85-1.03,0.73c-0.65-0.12-1.27-0.2-1.88-0.24
			c-0.61-0.04-0.87-0.38-0.79-1.03c-0.4-0.24-0.61-0.42-0.61-0.54s0.12-0.62,0.36-1.51c0.24-0.89,0.24-1.9,0-3.03
			c0.16-0.97,0.18-1.71,0.06-2.24c-0.12-0.52-0.18-0.99-0.18-1.39l0.36-2.78c0-0.4-0.1-0.75-0.3-1.03c-0.2-0.28-0.1-0.5,0.3-0.67
			c-0.48-0.48-0.69-1.07-0.61-1.76c0.08-0.68-0.08-1.35-0.48-2c0.64-0.97,0.77-2.14,0.36-3.51c0.89-1.13,2.42-1.41,4.6-0.85
			c0.48,0.81,0.85,1.74,1.09,2.78c0.24,1.05,0.52,2.14,0.85,3.27c0.81,0.57,1.82,0.85,3.03,0.85l1.94-0.36
			c1.21,0.24,2.32,0.26,3.33,0.06c1.01-0.2,1.92-0.34,2.72-0.42c0.81-0.08,1.69-0.08,2.66,0c0.97,0.08,1.65,0.16,2.06,0.24
			c0.4,0.08,0.81,0.04,1.21-0.12c0.73,0.08,1.17,0.06,1.33-0.06c0.16-0.12,0.36-0.22,0.61-0.3l2.3,0.12l2.3-0.12
			c0.48,0,2.42-0.12,5.81-0.36c1.29,0.08,2.54,0,3.75-0.24c1.37-0.08,2.82-0.06,4.36,0.06c1.53,0.12,2.98,0.18,4.36,0.18
			c0.89-0.24,1.37-0.32,1.45-0.24c0.08,0.08,0.28,0.12,0.61,0.12c0.97-0.48,1.67-0.73,2.12-0.73c0.44,0,0.81-0.08,1.09-0.24
			c0.28-0.16,0.68-0.38,1.21-0.67c0.52-0.28,0.95-0.58,1.27-0.91v-0.73l0.73-1.94c-0.08-0.16,0.02-0.44,0.3-0.85
			c0.28-0.4,0.42-0.73,0.42-0.97c0-0.24,0.22-0.83,0.67-1.76c0.44-0.93,0.97-1.41,1.57-1.45c0.61-0.04,1.09,0.2,1.45,0.73
			c0.36,0.53,0.83,0.99,1.39,1.39c0.08,0.89,0.1,1.59,0.06,2.12c-0.04,0.53-0.06,1.19-0.06,2l0.24,1.33
			c-0.32,0.73-0.42,1.19-0.3,1.39c0.12,0.2,0.22,0.5,0.3,0.91c-0.41,0.16-0.57,0.42-0.48,0.79c0.08,0.36,0.04,0.99-0.12,1.88
			c-0.16,0.89-0.24,1.86-0.24,2.91L879.25,242.26z"/>
		<path d="M894.01,239.24l0.36-1.69c0.08-0.4,0.08-0.81,0-1.21c-0.16-0.81-0.06-1.96,0.3-3.45c0.36-1.49,0.48-3.07,0.36-4.72
			c-0.12-1.65-0.12-2.92,0-3.81c0.12-0.89,0.22-1.33,0.3-1.33c0.4,0,0.52-0.4,0.36-1.21c-0.32-0.73-0.04-1.77,0.85-3.15
			c-0.16-0.81-0.16-1.47,0-2c0.16-0.52,0.32-1.15,0.48-1.88c3.47-1.29,5.85-0.89,7.14,1.21c0.48,0.73,1.17,1.13,2.06,1.21
			c0.16,0.48,0.42,0.93,0.79,1.33c0.36,0.4,0.67,0.83,0.91,1.27c0.24,0.44,0.46,0.87,0.67,1.27c0.2,0.4,0.5,0.81,0.91,1.21
			c0.48,3.87,1.05,7.02,1.7,9.44c0.08,0.97,0.26,1.68,0.54,2.12c0.28,0.44,0.52,0.89,0.73,1.33c0.2,0.44,0.36,0.93,0.48,1.45
			c0.12,0.53,0.26,1.05,0.42,1.57c0.16,0.53,0.36,1.03,0.61,1.51s0.44,0.97,0.6,1.45c0,0.81,0.06,1.23,0.18,1.27
			c0.12,0.04,0.22,0.2,0.3,0.48c0.08,0.28,0.2,0.75,0.36,1.39c0.73,2.83,1.57,4.44,2.54,4.84c0.08,0.48-0.02,0.75-0.3,0.79
			c-0.28,0.04-0.26,0.53,0.06,1.45c0.32,0.93,0.63,2.24,0.91,3.93c0.28,1.69,0.87,3.11,1.76,4.24c-0.08,0.89,0.16,2.22,0.73,3.99
			c0.56,1.78,0.73,3.11,0.48,4c0.16,0.4,0.46,0.87,0.91,1.39c0.44,0.53,0.77,1.43,0.97,2.72c0.2,1.29,0.38,2.22,0.54,2.78l0.36,1.33
			l0.85,2.66c0.24,0.65,0.46,1.35,0.67,2.12c0.2,0.77,0.71,1.35,1.51,1.76c0.89,0,1.45-0.32,1.7-0.97c0.4-1.21,0.81-1.98,1.21-2.3
			c0.16-0.89,0.65-1.67,1.45-2.36c0.81-0.68,1.49-1.31,2.06-1.88c0.16-0.89,0.54-1.69,1.15-2.42c0.61-0.73,0.99-1.57,1.15-2.54
			c0.81-0.4,1.41-1.21,1.82-2.42c0.73-0.24,1.29-0.73,1.69-1.45l0.85-1.82c0.24-0.48,0.4-0.87,0.48-1.15
			c0.08-0.28,0.22-0.52,0.42-0.73c0.2-0.2,0.38-0.58,0.54-1.15c0.16-0.56,0.38-1.11,0.67-1.63c0.28-0.52,0.95-0.99,2-1.39
			c0-0.65,0.16-1.09,0.48-1.33c0.32-0.24,0.44-0.73,0.36-1.45c0.24-0.08,0.44-0.32,0.61-0.73c0.16-0.4,0.34-0.83,0.54-1.27
			c0.2-0.44,0.38-0.87,0.54-1.27c0.16-0.4,0.36-0.68,0.61-0.85c0.16-0.81,0.81-2.1,1.94-3.87c1.21-2.34,2.1-4.44,2.66-6.29
			c1.45-1.13,2.64-2.7,3.57-4.72c0.93-2.02,1.39-3.35,1.39-3.99c0.56-0.4,0.93-0.87,1.09-1.39c0.16-0.52,0.38-1.13,0.67-1.82
			c0.28-0.68,0.56-1.63,0.85-2.84c0.28-1.21,0.67-1.98,1.15-2.3c-0.16-0.65-0.08-1.19,0.24-1.63c0.32-0.44,0.56-0.95,0.73-1.51
			l0.73-2.18c0.32-0.89,0.77-1.65,1.33-2.3c0.89,0,1.67-0.1,2.36-0.3c0.69-0.2,1.59-0.22,2.72-0.06c0.4,0.32,0.71,0.75,0.91,1.27
			c0.2,0.53,0.5,0.99,0.91,1.39c0,0.65,0.22,1.39,0.67,2.24c0.44,0.85,0.67,1.56,0.67,2.12l1.57,5.93l-0.12,2.06l0.97,3.87
			c0,0.32,0.12,0.85,0.36,1.57c0.24,0.73,0.32,1.25,0.24,1.57c-0.08,0.32-0.02,0.79,0.18,1.39c0.2,0.61,0.24,0.97,0.12,1.09
			c-0.12,0.12-0.14,0.3-0.06,0.54l0.48,1.82l-0.12,1.57c0.48,1.37,0.71,2.54,0.67,3.51c-0.04,0.97-0.04,1.84,0,2.6
			c0.04,0.77,0.16,1.41,0.36,1.94c0.2,0.53,0.24,1.11,0.12,1.76c-0.12,0.65-0.08,1.17,0.12,1.57c0.2,0.4,0.3,1.41,0.3,3.03
			c0.16,1.13,0.26,2.36,0.3,3.69c0.04,1.33,0.14,2.4,0.3,3.21c0.16,0.81,0.3,1.39,0.42,1.76c0.12,0.36,0.24,0.79,0.36,1.27
			s0.14,1.07,0.06,1.76c-0.08,0.69,0.16,1.27,0.73,1.76c-0.32,1.05-0.36,2.14-0.12,3.27c0.48,2.34,0.65,3.96,0.48,4.84
			c-0.16,0.89-0.08,1.62,0.24,2.18c0.48,1.13,0.73,2.26,0.73,3.39v2.06l-0.24,2.3l0.48,1.57l0.12,1.33
			c0.32,0.97,0.48,2.02,0.48,3.15l-0.24,3.51c0,0.48,0.06,1.01,0.18,1.57c0.12,0.57,0.22,1.15,0.3,1.75c0.08,0.61,0.08,1.31,0,2.12
			c-0.08,0.81,0.2,1.49,0.85,2.06c0.64-0.16,1.29-0.28,1.94-0.36c0.65-0.08,1.21-0.2,1.7-0.36c0.48-0.16,0.93-0.4,1.33-0.73
			c0.4-0.32,0.87-0.56,1.39-0.73c0.52-0.16,0.77,0,0.73,0.48c-0.04,0.48,0.14,0.85,0.54,1.09c0.4,0.24,0.64,0.71,0.73,1.39
			c0.08,0.69-0.04,1.23-0.36,1.63c-0.32,0.41-0.93,0.81-1.82,1.21c-0.89,0.4-1.51,0.59-1.88,0.54c-0.36-0.04-0.77,0.02-1.21,0.18
			c-0.44,0.16-0.97,0.3-1.57,0.42c-0.61,0.12-1.07,0.24-1.39,0.36c-0.32,0.12-0.61,0.24-0.85,0.36s-0.5,0.24-0.79,0.36
			c-0.28,0.12-0.61,0.16-0.97,0.12c-0.36-0.04-0.69-0.02-0.97,0.06c-0.28,0.08-0.53,0.2-0.73,0.36c-0.2,0.16-0.54,0.3-1.03,0.42
			s-1.11,0.16-1.88,0.12c-0.77-0.04-1.47,0.02-2.12,0.18c-0.65,0.16-1.17,0.36-1.57,0.6c-0.41,0.24-0.77,0.42-1.09,0.54
			c-0.32,0.12-0.67,0.14-1.03,0.06c-0.36-0.08-0.81-0.02-1.33,0.18c-0.53,0.2-0.91,0.26-1.15,0.18c-0.24-0.08-0.57-0.02-0.97,0.18
			c-0.4,0.2-0.81,0.5-1.21,0.91c-0.41,0.4-0.85,0.63-1.33,0.67c-0.48,0.04-0.91-0.06-1.27-0.3c-0.36-0.24-0.71-0.4-1.03-0.48
			c-0.73-1.61-0.41-3.03,0.97-4.24c0.48-0.4,0.81-0.6,0.97-0.6c0.16,0,0.38-0.12,0.67-0.36c0.28-0.24,0.48-0.34,0.61-0.3
			c0.12,0.04,0.44-0.12,0.97-0.48c0.52-0.36,1.23-0.77,2.12-1.21c0.89-0.44,1.57-0.95,2.06-1.51c-0.08-0.48-0.08-0.95,0-1.39
			c0.08-0.44,0.08-0.97,0-1.57c-0.08-0.61-0.28-1.19-0.61-1.76c-0.32-0.56-0.54-1.09-0.67-1.57s-0.14-0.89-0.06-1.21
			c0.16-0.73,0.06-1.51-0.3-2.36s-0.54-2.06-0.54-3.63c0-1.57-0.32-2.8-0.97-3.69c0.4-2.34,0.38-4.72-0.06-7.14
			c-0.44-2.42-0.73-3.81-0.85-4.18s-0.18-0.75-0.18-1.15l0.36-2.78l-1.7-8.84v-2.66l-0.36-1.82c-0.08-0.32-0.06-0.65,0.06-0.97
			c0.12-0.32,0.18-0.65,0.18-0.97l-0.85-2.66c0.24-0.81,0.28-1.49,0.12-2.06c-0.4-1.45-0.5-3.63-0.3-6.54
			c0.2-2.91-0.1-5.29-0.91-7.14c0.32,0,0.42-0.2,0.3-0.6c-0.12-0.4-0.06-0.65,0.18-0.73c-0.24-0.81-0.24-1.43,0-1.88
			c0.24-0.44,0.04-0.95-0.61-1.51c-0.24,0.48-0.69,1.19-1.33,2.12c-0.65,0.93-1.05,1.8-1.21,2.6c-0.32,0.08-0.54,0.28-0.67,0.61
			c-0.12,0.32-0.42,0.48-0.91,0.48c0,0.73-0.16,1.25-0.48,1.57c-0.32,0.32-0.57,0.73-0.73,1.21c-0.24,0.24-0.28,0.5-0.12,0.79
			c0.16,0.28,0.12,0.71-0.12,1.27c-0.24,0.73-1.17,2.32-2.78,4.78c-1.62,2.46-2.58,4.34-2.91,5.63c-0.4,0.32-0.77,0.71-1.09,1.15
			c-0.32,0.44-0.71,0.87-1.15,1.27c-0.44,0.4-0.89,1.11-1.33,2.12c-0.45,1.01-0.87,1.68-1.27,2c-0.08,0.4-0.12,0.77-0.12,1.09v1.09
			c-0.73,0.32-1.29,0.81-1.69,1.45c-0.41,0.65-0.93,1.21-1.57,1.69c-1.05,1.69-2.02,2.87-2.91,3.51c-0.24,0.48-0.48,1.33-0.73,2.54
			c-0.73,0.4-1.27,0.97-1.63,1.69c-0.36,0.73-0.79,1.43-1.27,2.12c-0.48,0.69-0.77,1.13-0.85,1.33c-0.08,0.2-0.18,0.44-0.3,0.73
			c-0.12,0.28-0.2,0.63-0.24,1.03c-0.04,0.4-0.3,0.65-0.79,0.73c-0.16,0.57-0.16,1.25,0,2.06c-0.89,0.65-1.69,1.53-2.42,2.66
			c-0.32,0.89-0.59,1.33-0.79,1.33c-0.2,0-0.38,0.26-0.54,0.79c-0.16,0.53-0.4,0.83-0.73,0.91c-0.16,0.32-0.26,0.69-0.3,1.09
			c-0.04,0.4-0.14,0.77-0.3,1.09c-1.78,0.16-3.71,0.65-5.81,1.45c-0.73-0.24-1.33-0.62-1.82-1.15c-0.48-0.52-0.97-0.99-1.45-1.39
			c-0.32-2.34-0.93-4.12-1.82-5.33c0.16-0.65,0.16-1.23,0-1.76c-0.16-0.52-0.3-1.07-0.42-1.63c-0.12-0.56-0.2-1.11-0.24-1.63
			c-0.04-0.52-0.14-1.05-0.3-1.57c-0.16-0.52-0.3-1.03-0.42-1.51s-0.26-0.99-0.42-1.51c-0.16-0.52-0.28-1.05-0.36-1.57
			c-0.08-0.52-0.22-1.09-0.42-1.69c-0.2-0.61-0.34-1.15-0.42-1.63l-0.36-1.82c-0.08-0.73-0.4-1.41-0.97-2.06
			c0.24-1.94-0.41-3.83-1.94-5.69c-0.16-0.24-0.32-0.91-0.48-2c-0.16-1.09-0.46-2.7-0.91-4.84c-0.44-2.14-1.03-3.21-1.76-3.21
			c-0.73,0-1.19,0.1-1.39,0.3c-0.2,0.2-0.26,0.5-0.18,0.91c0.08,0.4,0.18,0.89,0.3,1.45c0.12,0.57,0.1,1.09-0.06,1.57
			c-0.16,0.48-0.3,1.05-0.42,1.69c-0.12,0.65-0.3,1.17-0.54,1.57c0.16,1.05,0.1,2.18-0.18,3.39c-0.28,1.21-0.42,2.42-0.42,3.63
			l-0.48,6.17c0,0.24-0.04,0.47-0.12,0.67c-0.08,0.2,0,0.42,0.24,0.67c-0.4,0.4-0.6,0.93-0.6,1.57c0,0.65-0.08,1.35-0.24,2.12
			c-0.16,0.77-0.32,1.35-0.48,1.76c-0.16,0.4-0.16,1.01,0,1.82c-0.16,1.94-0.38,3.41-0.67,4.42c-0.28,1.01-0.46,1.94-0.54,2.78
			c-0.08,0.85-0.08,1.41,0,1.69c0.08,0.28,0.12,0.54,0.12,0.79l-0.73,1.82c-0.08,0.48-0.08,1.01,0,1.57c0.08,0.57,0.08,0.97,0,1.21
			c-0.08,0.57-0.3,1.41-0.67,2.54c-0.36,1.13-0.54,1.74-0.54,1.82c0.64,0.48,0.64,1.49,0,3.03l-0.24,2.3c0,0.97,0.3,1.55,0.91,1.76
			c0.6,0.2,1.55,0.44,2.84,0.73c1.29,0.28,1.94,0.57,1.94,0.85c0,0.28,0.1,0.77,0.3,1.45c0.2,0.69,0.22,1.15,0.06,1.39
			c-0.16,0.24-0.28,0.44-0.36,0.61c-0.08,0.48-0.48,0.75-1.21,0.79c-0.73,0.04-1.17,0.14-1.33,0.3c-0.16-0.08-0.32-0.12-0.48-0.12
			h-0.85l-3.99,0.36c-0.32,0-0.87-0.02-1.63-0.06c-0.77-0.04-1.59-0.08-2.48-0.12c-0.89-0.04-1.75-0.08-2.6-0.12
			c-0.85-0.04-1.55,0-2.12,0.12c-0.57,0.12-1.31,0.1-2.24-0.06c-0.93-0.16-1.94-0.24-3.03-0.24c-1.09,0-2.3,0.06-3.63,0.18
			c-1.33,0.12-2.44-0.1-3.33-0.67c-0.08-0.4-0.2-0.93-0.36-1.57c-0.16-0.64-0.04-1.17,0.36-1.57c0.16-0.48,0.53-0.77,1.09-0.85
			c0.57-0.08,1.05-0.18,1.45-0.3c0.4-0.12,0.75-0.16,1.03-0.12c0.28,0.04,0.65-0.04,1.09-0.24c0.44-0.2,0.89-0.26,1.33-0.18
			c0.44,0.08,0.75,0.12,0.91,0.12c0.48-0.56,0.79-0.83,0.91-0.79c0.12,0.04,0.26,0.02,0.42-0.06c0.24-0.4,0.68-0.77,1.33-1.09
			c0.16-1.13,0.24-2.44,0.24-3.93c0-1.49,0.16-2.72,0.48-3.69c0-1.21,0.08-1.98,0.24-2.3c0.4-0.64,0.46-1.39,0.18-2.24
			c-0.28-0.85-0.26-1.57,0.06-2.18c0.32-0.61,0.56-1.15,0.73-1.63c0.16-0.48,0.18-1.01,0.06-1.57c-0.12-0.56-0.14-1.21-0.06-1.94
			c0.08-0.73,0.18-1.53,0.3-2.42c0.12-0.89,0.18-1.82,0.18-2.78l-0.12-2.06c0.08-0.4,0.28-0.89,0.6-1.45
			c0.32-0.56,0.48-1.9,0.48-3.99l0.61-8.35c0-1.61,0.12-2.84,0.36-3.69c0.24-0.85,0.32-1.43,0.24-1.76
			c-0.08-0.32,0.02-0.79,0.3-1.39c0.28-0.61,0.46-1.19,0.54-1.76l-0.36-1.82c0.16-0.89,0.2-1.37,0.12-1.45
			c0.48-2.26,0.52-3.75,0.12-4.48c0.73-0.73,1.03-1.71,0.91-2.97c-0.12-1.25-0.04-2.18,0.24-2.78c0.28-0.61,0.38-1.39,0.3-2.36
			C893.93,241.29,893.93,240.29,894.01,239.24z"/>
		<path d="M1049.45,286.69l1.21,2.54l-0.24,1.33c0.48,0.97,0.73,1.62,0.73,1.94c0.32,0.73,0.46,1.19,0.42,1.39
			c-0.04,0.2,0,0.42,0.12,0.67s0.24,0.53,0.36,0.85c0.12,0.32,0.28,0.75,0.48,1.27c0.2,0.53,0.42,1.05,0.67,1.57
			c0.24,0.53,0.46,1.03,0.67,1.51c0.2,0.48,0.32,0.91,0.36,1.27c0.04,0.36,0.14,0.73,0.3,1.09c0.16,0.36,0.34,0.69,0.54,0.97
			c0.2,0.28,0.4,0.63,0.6,1.03c0.2,0.41,0.36,0.83,0.48,1.27c0.12,0.44,0.32,1.07,0.61,1.88c0.28,0.81,0.61,1.49,0.97,2.06
			c0.36,0.57,0.67,1.09,0.91,1.57c-0.16,0.48-0.12,0.97,0.12,1.45c0.24,0.48,0.44,1.03,0.61,1.63c0.16,0.6,0.34,1.29,0.54,2.06
			c0.2,0.77,0.44,1.37,0.73,1.82c0.28,0.45,0.4,0.73,0.36,0.85c-0.04,0.12,0.02,0.38,0.18,0.79c0.4,0.4,0.83,0.85,1.27,1.33
			c0.44,0.48,0.93,0.79,1.45,0.91c0.52,0.12,0.97,0.1,1.33-0.06c0.36-0.16,0.79-0.12,1.27,0.12c1.69-1.21,3.03-1.41,4-0.61
			c1.45,0.56,2.2,1.45,2.24,2.66c0.04,1.21-0.3,1.98-1.03,2.3c-1.13,0.32-1.82,0.6-2.06,0.85c-0.32,0-0.69-0.04-1.09-0.12
			c-0.4-0.08-0.83-0.06-1.27,0.06c-0.45,0.12-0.91,0.32-1.39,0.61c-0.48,0.28-1.11,0.65-1.88,1.09c-0.77,0.44-1.59,0.46-2.48,0.06
			c-0.65,0.24-1.33,0.64-2.06,1.21c-0.4-0.16-0.75-0.12-1.03,0.12c-0.28,0.24-0.61,0.4-0.97,0.48c-0.36,0.08-0.73,0.1-1.09,0.06
			c-0.36-0.04-0.79-0.06-1.27-0.06c-1.05,0.4-1.7,0.61-1.94,0.61l-3.03,0.73c-0.48-0.08-0.93-0.28-1.33-0.61
			c-0.41-0.32-0.81-0.61-1.21-0.85v-2.54c0.32-0.08,0.54-0.26,0.67-0.54c0.12-0.28,0.32-0.5,0.61-0.67
			c0.28-0.16,0.58-0.24,0.91-0.24c1.13,0,1.94-0.36,2.42-1.09c0.16-0.65,0.08-1.17-0.24-1.57c-0.32-0.4-0.32-0.85,0-1.33
			c-0.41-0.32-0.54-0.81-0.42-1.45c0.12-0.65,0-1.19-0.36-1.63s-0.63-0.89-0.79-1.33c-0.16-0.44-0.22-0.97-0.18-1.57
			c0.04-0.61-0.04-1.19-0.24-1.76c-0.2-0.56-0.48-1.13-0.85-1.69c-0.36-0.56-0.59-1.33-0.67-2.3c-0.73-0.16-1.53-0.34-2.42-0.54
			c-0.89-0.2-1.66-0.1-2.3,0.3c-0.4-0.08-0.75-0.22-1.03-0.42c-0.28-0.2-0.85-0.38-1.7-0.54c-0.85-0.16-1.9-0.14-3.15,0.06
			c-1.25,0.2-2.4,0.02-3.45-0.54c-0.48,0.16-0.93,0.24-1.33,0.24l-1.45-0.48c-0.4,0-0.87,0.12-1.39,0.36
			c-0.53,0.24-1.11,0.42-1.76,0.54c-0.65,0.12-1.37,0.14-2.18,0.06c-1.78-0.32-3.31-0.4-4.6-0.24c-1.78,0.41-3.03,0.54-3.75,0.42
			s-1.45-0.04-2.18,0.24c-0.73,0.28-1.25,0.38-1.57,0.3c-0.32-0.08-0.65-0.06-0.97,0.06c-0.32,0.12-0.65,0.41-0.97,0.85
			c-0.32,0.44-0.69,0.75-1.09,0.91c-0.08,0.73-0.36,1.41-0.85,2.06c-0.08,0.32-0.1,0.65-0.06,0.97c0.04,0.32-0.04,0.81-0.24,1.45
			c-0.2,0.65-0.26,1.09-0.18,1.33c0.08,0.24,0.06,0.51-0.06,0.79c-0.12,0.28-0.32,0.58-0.61,0.91c-0.28,0.32-0.5,0.71-0.67,1.15
			c-0.16,0.44-0.28,0.89-0.36,1.33c-0.08,0.44-0.24,0.87-0.48,1.27c0.16,0.64,0.42,1.11,0.79,1.39c0.36,0.28,0.89,0.58,1.57,0.91
			c0.69,0.32,1.53,0.48,2.54,0.48c1.01,0,1.83,0.24,2.48,0.73c0.16,0.4,0.26,0.97,0.3,1.7c0.04,0.73-0.14,1.21-0.54,1.45
			c-0.32,0.08-0.59,0.18-0.79,0.3c-0.2,0.12-0.46,0.14-0.79,0.06l-1.33-0.36c-0.48-0.08-0.99-0.06-1.51,0.06
			c-0.53,0.12-1.01,0.1-1.45-0.06c-0.44-0.16-0.79-0.34-1.03-0.54c-0.24-0.2-0.48-0.38-0.73-0.54c-0.4,0.16-0.83,0.16-1.27,0
			c-0.44-0.16-0.91-0.18-1.39-0.06s-0.83,0.22-1.03,0.3c-0.2,0.08-0.42,0.16-0.67,0.24l-1.82-0.24l-8.72,0.24
			c-1.05-0.73-1.78-0.97-2.18-0.73s-0.81,0.32-1.21,0.24c0-0.41-0.16-0.63-0.48-0.67c-0.32-0.04-0.4-0.3-0.24-0.79v-2.3
			c0.97-0.24,1.98-0.32,3.03-0.24c1.05,0.08,1.94,0.06,2.66-0.06c0.73-0.12,1.23-0.26,1.51-0.42c0.28-0.16,0.62-0.16,1.03,0
			c0.24-0.4,0.32-0.81,0.24-1.21c-0.08-0.41,0-0.91,0.24-1.51s0.28-1.07,0.12-1.39c-0.16-0.32-0.12-0.75,0.12-1.27
			c0.24-0.52,0.42-1.07,0.54-1.63c0.12-0.56,0.16-1.21,0.12-1.94c-0.04-0.73,0.18-1.37,0.67-1.94c0.08-0.32,0.04-0.54-0.12-0.67
			c-0.16-0.12-0.04-0.68,0.36-1.69c0.4-1.01,0.75-2.42,1.03-4.24c0.28-1.82,0.71-3.49,1.27-5.02c-0.08-0.16-0.08-0.42,0-0.79
			c0.08-0.36,0-0.54-0.24-0.54c0.89-2.18,1.37-3.87,1.45-5.08c0.32-0.32,0.62-0.83,0.91-1.51c0.28-0.68,0.34-1.27,0.18-1.75
			c0.32-0.08,0.5-0.24,0.54-0.48c0.04-0.24,0.14-0.44,0.3-0.61c0.32-1.86,0.52-3.57,0.61-5.14c0.08-1.57,0.52-2.97,1.33-4.18v-2.3
			c0.89-1.29,1.25-2.34,1.09-3.15c-0.16-1.29,0.12-2.66,0.85-4.12c0.08-0.65,0.2-1.07,0.36-1.27c0.16-0.2,0.32-0.42,0.48-0.67
			c0-0.4,0.08-1.01,0.24-1.82c0.48-1.29,0.71-2.16,0.67-2.6c-0.04-0.44,0.02-1.13,0.18-2.06c0.16-0.93,0.48-1.96,0.97-3.09
			c0.48-1.13,0.77-2.26,0.85-3.39c0.32-0.65,0.61-1.39,0.85-2.24c0.24-0.85,0.5-1.65,0.79-2.42c0.28-0.77,0.52-1.51,0.73-2.24
			c0.2-0.73,0.62-1.41,1.27-2.06c0.16-0.56,0.3-1.11,0.42-1.63c0.12-0.52,0.26-1.03,0.42-1.51c0.56-0.81,0.83-1.33,0.79-1.57
			c-0.04-0.24,0.1-0.75,0.42-1.51c0.32-0.77,0.48-1.47,0.48-2.12c0.64-0.4,0.97-0.91,0.97-1.51c0-0.61,0.12-1.19,0.36-1.76
			c0.56-0.56,0.83-0.91,0.79-1.03c-0.04-0.12,0.06-0.32,0.3-0.61c0.24-0.28,0.61-0.67,1.09-1.15c0.48-0.48,0.85-1.01,1.09-1.57
			l0.24-1.94c1.29-1.69,2.66-2.38,4.12-2.06c0.97,0.32,1.45,0.97,1.45,1.94c0,0.24,0.08,0.48,0.24,0.73
			c0.56,0.48,0.93,1.03,1.09,1.63c0.16,0.6,0.5,1.29,1.03,2.06c0.52,0.77,0.95,1.25,1.27,1.45c0.32,0.2,0.61,0.59,0.85,1.15
			c0.24,0.57,0.5,1.11,0.79,1.63c0.28,0.53,0.54,1.05,0.79,1.57c0.24,0.53,0.36,1.21,0.36,2.06s0.4,1.43,1.21,1.76
			c0.24,0.73,0.4,1.09,0.48,1.09c0.08,0,0.2,0.2,0.36,0.61c0.24,0.57,0.56,1.41,0.97,2.54c0.4,1.13,0.36,1.94-0.12,2.42
			c0.4,0.24,0.63,0.63,0.67,1.15c0.04,0.53,0.1,1.07,0.18,1.63c0.4,0.65,0.56,1.09,0.48,1.33c0.16,0.4,0.68,1.13,1.57,2.18v1.45
			c0.4,0.97,0.79,1.84,1.15,2.6c0.36,0.77,0.5,1.35,0.42,1.76c-0.08,0.4-0.04,0.87,0.12,1.39c0.16,0.53,0.38,1.03,0.67,1.51
			c0.28,0.48,0.34,1.01,0.18,1.57c0.24,0.48,0.48,0.91,0.73,1.27s0.38,0.69,0.42,0.97c0.04,0.28,0.2,0.71,0.48,1.27
			c0.28,0.57,0.42,0.99,0.42,1.27c0,0.28,0.16,0.67,0.48,1.15c0.32,0.48,0.46,0.93,0.42,1.33c-0.04,0.4,0.06,0.99,0.3,1.76
			c0.24,0.77,0.24,1.51,0,2.24c0.56,0.73,0.85,1.21,0.85,1.45s0.12,0.63,0.36,1.15c0.24,0.53,0.48,0.87,0.73,1.03
			c0.24,0.16,0.36,0.65,0.36,1.45L1049.45,286.69z M1038.8,274.83l-0.97-2.91l-0.6-3.03c0-0.48-0.12-0.91-0.36-1.27
			s-0.34-0.69-0.3-0.97c0.04-0.28,0.02-0.6-0.06-0.97c-0.08-0.36-0.16-0.73-0.24-1.09c-0.08-0.36-0.1-0.73-0.06-1.09
			c0.04-0.36-0.02-0.73-0.18-1.09c-0.16-0.36-0.41-0.75-0.73-1.15c-0.32-0.4-0.53-0.83-0.61-1.27c-0.08-0.44-0.1-0.81-0.06-1.09
			c0.04-0.28,0.06-0.62,0.06-1.03c-1.05-1.21-1.57-2.74-1.57-4.6c-0.48-0.16-0.83-0.5-1.03-1.03c-0.2-0.52-0.63-0.87-1.27-1.03
			c0.08-0.65,0.12-1.09,0.12-1.33c0-0.24-0.08-0.68-0.24-1.33c-0.97-0.32-1.66-0.4-2.06-0.24c-0.4,0.73-0.75,1.49-1.03,2.3
			c-0.28,0.81-0.54,1.45-0.79,1.94c-0.24,0.48-0.36,0.87-0.36,1.15c0,0.28-0.04,0.71-0.12,1.27c-0.4,0.4-0.61,0.69-0.61,0.85
			c0,0.16-0.18,0.63-0.54,1.39c-0.36,0.77-0.59,1.75-0.67,2.97c-0.16,0.24-0.36,0.47-0.61,0.67c-0.24,0.2-0.38,0.61-0.42,1.21
			c-0.04,0.61-0.12,0.99-0.24,1.15c-0.12,0.16-0.22,0.4-0.3,0.73c-0.08,0.32-0.1,0.75-0.06,1.27c0.04,0.53-0.1,1.27-0.42,2.24
			c-0.32,0.97-0.67,1.86-1.03,2.66c-0.36,0.81-0.54,1.69-0.54,2.66c-0.73,0.57-1.17,1.9-1.33,4c-0.24,0.16-0.22,0.34,0.06,0.54
			c0.28,0.2,0.32,0.44,0.12,0.73c-0.2,0.28-0.42,0.53-0.67,0.73c-0.24,0.2-0.36,0.51-0.36,0.91c-0.24,0.32-0.34,0.79-0.3,1.39
			c0.04,0.61-0.08,1.25-0.36,1.94c-0.28,0.69-0.5,1.11-0.67,1.27c-0.16,0.16-0.2,0.4-0.12,0.73c0.08,0.32,0.1,0.51,0.06,0.54
			c-0.04,0.04-0.12,0.26-0.24,0.67c-0.12,0.4-0.34,0.83-0.67,1.27c-0.32,0.44-0.5,0.99-0.54,1.63c-0.04,0.65-0.12,1.33-0.24,2.06
			c-0.12,0.73-0.18,1.53-0.18,2.42c-0.41,0.4-0.63,0.85-0.67,1.33c-0.04,0.48-0.18,1.07-0.42,1.76c-0.24,0.69-0.36,1.15-0.36,1.39
			l-1.21,3.63c0,0.24-0.04,0.53-0.12,0.85c0.48,0.81,0.79,1.19,0.91,1.15c0.12-0.04,0.3,0.08,0.54,0.36
			c0.24,0.28,0.54,0.42,0.91,0.42s0.68,0.06,0.97,0.18c0.28,0.12,0.5,0.26,0.67,0.42c0.4,0.24,0.97,0.28,1.7,0.12
			c0.73-0.16,1.35-0.12,1.88,0.12c0.52,0.24,0.95,0.4,1.27,0.48c1.61-0.4,3.27-0.58,4.96-0.54c1.7,0.04,3.31-0.18,4.84-0.67
			c0.32,0.08,0.54,0.18,0.67,0.3s0.44,0.24,0.97,0.36c0.52,0.12,1.17,0.1,1.94-0.06c0.77-0.16,1.59-0.24,2.48-0.24
			c1.94,0.32,3.03,0.48,3.27,0.48l2.3-0.24l1.94,0.48c1.29-0.24,1.94-0.77,1.94-1.57c0.08-0.4-0.04-0.73-0.36-0.97
			c-0.32-0.24-0.51-0.58-0.54-1.03c-0.04-0.44-0.16-0.83-0.36-1.15c-0.2-0.32-0.36-0.71-0.48-1.15c-0.12-0.44-0.18-1.21-0.18-2.3
			c0-1.09-0.53-2.4-1.57-3.93c0.24-0.4,0.24-0.93,0-1.57c-0.24-0.64-0.24-1.21,0-1.69c-0.81-1.05-1.29-2.98-1.45-5.81
			c-0.4-0.48-0.71-1.01-0.91-1.57c-0.2-0.56-0.5-1.39-0.91-2.48c-0.41-1.09-0.61-2.02-0.61-2.78c0-0.77-0.2-1.35-0.61-1.76V274.83z"
			/>
		<path d="M1090,223.14l3.99-0.97c0.48,0.24,0.99,0.47,1.51,0.67c0.52,0.2,1.03,0.42,1.51,0.67c0.48,1.05,1.13,1.62,1.94,1.69
			c1.13,0,2.02,0.57,2.66,1.69c0.56,0.81,1.13,1.49,1.69,2.06c1.53,0.73,2.74,0.69,3.63-0.12l1.69-1.94
			c0.89-0.81,1.77-0.56,2.66,0.73c0.48,0.65,0.64,1.41,0.48,2.3c-0.4,0.89-0.71,1.72-0.91,2.48c-0.2,0.77-0.41,1.39-0.61,1.88
			c-0.2,0.48-0.54,1.07-1.03,1.75c-0.48,0.69-0.73,1.27-0.73,1.76c-1.94,1.45-2.99,3.15-3.15,5.08c-0.81,0.97-1.29,1.74-1.45,2.3
			c-0.73,0.08-1.37,0.24-1.94,0.48c-0.57,0.24-1.17,0.24-1.82,0c-0.16-0.65-0.32-1.19-0.48-1.63c-0.16-0.44-0.22-1.07-0.18-1.88
			c0.04-0.81,0.42-1.71,1.15-2.72c0.73-1.01,0.91-2.06,0.54-3.15c-0.36-1.09-0.81-1.73-1.33-1.94c-0.53-0.2-0.87-0.75-1.03-1.63
			c-1.21-0.56-2.26-1.41-3.15-2.54c-1.13,0.08-1.98-0.36-2.54-1.33c-1.05-0.08-1.94,0.2-2.66,0.85l-1.69,1.57
			c-0.41,0.32-0.85,0.6-1.33,0.85c-0.81,1.37-1.19,2.64-1.15,3.81c0.04,1.17,0,2.14-0.12,2.91c-0.12,0.77-0.1,1.51,0.06,2.24
			c0.16,0.73,0.32,1.35,0.48,1.88c0.16,0.53,0.22,1.21,0.18,2.06c-0.04,0.85,0.04,1.69,0.24,2.54c0.2,0.85,0.4,1.59,0.61,2.24
			c0.2,0.65,0.34,1.23,0.42,1.76c0.08,0.53,0.34,1.27,0.79,2.24c0.44,0.97,0.75,1.84,0.91,2.6c0.16,0.77,0.4,1.47,0.73,2.12
			c0.65,0.73,1.13,1.53,1.45,2.42c0.32,0.89,0.73,1.74,1.21,2.54c0.48,0.81,0.99,1.49,1.51,2.06c0.52,0.57,0.91,1.21,1.15,1.94
			c0.73,0.48,1.37,0.73,1.94,0.73c0,0.81,0.12,1.69,0.36,2.66c0.24,0.48,0.54,0.97,0.91,1.45c0.36,0.48,0.67,0.99,0.91,1.51
			c0.24,0.53,0.48,1.07,0.73,1.63c0.24,0.57,0.5,1.11,0.79,1.63c0.28,0.53,0.61,1.05,0.97,1.57c0.36,0.53,0.67,1.03,0.91,1.51
			c0.56,0.65,0.83,1.05,0.79,1.21c-0.04,0.16,0.1,0.48,0.42,0.97c0.32,0.48,0.85,1.76,1.57,3.81c0.73,2.06,1.49,3.49,2.3,4.3
			c-0.16,0.65-0.18,1.25-0.06,1.82c0.12,0.57,0.18,1.17,0.18,1.82c0,0.65,0.08,1.59,0.24,2.85c0.16,1.25,0.12,2.38-0.12,3.39
			c-0.24,1.01-0.34,1.66-0.3,1.94c0.04,0.28-0.1,0.69-0.42,1.21c-0.32,0.53-0.61,1.03-0.85,1.51s-0.47,0.91-0.67,1.27
			c-0.2,0.36-0.38,0.69-0.54,0.97c-0.16,0.28-0.28,0.59-0.36,0.91c-0.08,0.32-0.16,0.57-0.24,0.73c-0.73,0.48-1.09,0.77-1.09,0.85
			c0,0.16-0.53,0.61-1.57,1.33l-0.73,1.09c-0.73,1.29-1.33,2.06-1.82,2.3c-0.89,0.24-1.35,0.44-1.39,0.6
			c-0.04,0.16-0.14,0.12-0.3-0.12c-0.41,0.65-0.67,0.95-0.79,0.91c-0.12-0.04-0.24,0-0.36,0.12s-0.24,0.28-0.36,0.48
			c-0.12,0.2-0.32,0.4-0.61,0.61c-0.28,0.2-0.65,0.36-1.09,0.48c-0.44,0.12-0.83,0.24-1.15,0.36c-0.32,0.12-0.61,0.22-0.85,0.3
			l-1.45,0.48c-1.62,0.56-2.71,1.13-3.27,1.7c-0.24-0.08-0.44-0.2-0.61-0.36c-0.16-0.16-0.53-0.22-1.09-0.18
			c-0.57,0.04-0.89,0.3-0.97,0.79c-0.48-0.32-1.01-0.38-1.57-0.18c-0.57,0.2-1.09,0.3-1.57,0.3l-1.7-0.24
			c-1.21,0.16-2.02,0.14-2.42-0.06c-0.4-0.2-1.05-0.47-1.94-0.79c-0.89-0.32-1.55-0.54-2-0.67c-0.45-0.12-0.71-0.58-0.79-1.39
			c-0.65,0-1.31-0.18-2-0.54c-0.69-0.36-1.11-0.67-1.27-0.91c-0.16-0.24-0.48-0.61-0.97-1.09c-0.48-0.48-0.81-0.89-0.97-1.21
			c-0.16-0.32-0.26-0.75-0.3-1.27c-0.04-0.52-0.14-1.07-0.3-1.63c-0.48-0.73-0.71-1.31-0.67-1.75c0.04-0.44-0.26-0.75-0.91-0.91
			c0.08-0.48,0.04-0.85-0.12-1.09c-0.16-0.24-0.24-0.64-0.24-1.21c0-0.56-0.2-0.89-0.6-0.97c-0.41-0.08-0.61-0.4-0.61-0.97
			c0-0.56,0.08-1.09,0.24-1.57c0.64-1.94,0.77-3.43,0.36-4.48c0.81-1.13,1.55-2.18,2.24-3.15c0.68-0.97,1.39-1.94,2.12-2.9
			c1.37-0.08,2.46-0.68,3.27-1.82c0.56,0.4,1.09,0.36,1.57-0.12c0.48-0.48,0.97-0.68,1.45-0.6c0.48,0.08,0.87,0.02,1.15-0.18
			c0.28-0.2,1.07-0.18,2.36,0.06c1.29,0,2.36,0.14,3.21,0.42c0.85,0.28,1.27,0.54,1.27,0.79c1.37,0.65,2.22,1.23,2.54,1.75
			c0.32,0.53,0.68,1.11,1.09,1.76c0.16,0,0.32,0.16,0.48,0.48c0.16,0.32,0.32,0.61,0.48,0.85c0.97,1.13,1.33,3.15,1.09,6.05
			c0,0.73-0.14,1.43-0.42,2.12c-0.28,0.69-0.47,1.39-0.54,2.12c-0.16,1.62-1.21,2.3-3.15,2.06c-0.48,0-0.91-0.3-1.27-0.91
			c-0.36-0.6-0.83-0.95-1.39-1.03c-0.16-0.81-0.34-1.57-0.54-2.3c-0.2-0.73-0.42-1.53-0.67-2.42c-0.73-3.63-1.49-5.57-2.3-5.81
			c-0.41-0.16-1.05-0.18-1.94-0.06c-0.89,0.12-1.51,0.41-1.88,0.85c-0.36,0.44-0.65,0.65-0.85,0.61c-0.2-0.04-0.46,0.06-0.79,0.3
			c-0.32,0.24-0.67,0.59-1.03,1.03c-0.36,0.44-0.75,0.79-1.15,1.03c-1.29,3.87-0.97,6.54,0.97,7.99c0,0.81,0.12,1.33,0.36,1.57
			c0.08,0.65,0.16,1.03,0.24,1.15c0.08,0.12,0.12,0.59,0.12,1.39c0.48,0.4,0.95,0.77,1.39,1.09c0.44,0.32,0.79,0.81,1.03,1.45
			c0.97,0,1.7,0.24,2.18,0.73c0.48,0.48,1.05,0.93,1.7,1.33c0.64-0.24,1.19-0.28,1.63-0.12c0.44,0.16,0.99,0.36,1.63,0.61
			c2.58-0.24,4.96-1.13,7.14-2.66c0.32-0.4,0.65-0.63,0.97-0.67c0.32-0.04,1.01-0.71,2.06-2c0.89-0.64,1.41-1.11,1.57-1.39
			c0.16-0.28,0.73-0.99,1.69-2.12c0.97-1.13,1.37-2.1,1.21-2.91c-0.16-0.81-0.16-1.69,0-2.66c-0.16-0.97-0.22-1.69-0.18-2.18
			c0.04-0.48-0.04-0.97-0.24-1.45c-0.2-0.48-0.36-0.97-0.48-1.45c-0.12-0.48-0.36-1.17-0.73-2.06c-0.36-0.89-0.97-1.94-1.82-3.15
			s-1.35-2.74-1.51-4.6c-0.48-0.81-0.99-1.51-1.51-2.12c-0.53-0.61-0.99-1.31-1.39-2.12c-0.57-0.65-1.11-1.29-1.63-1.94
			c-0.53-0.65-0.91-1.49-1.15-2.54c-0.73-0.73-1.33-1.57-1.82-2.54c-0.48-0.97-0.99-1.8-1.51-2.48c-0.53-0.68-0.79-1.15-0.79-1.39
			c0-0.48-0.32-0.99-0.97-1.51c-0.65-0.52-0.97-1.71-0.97-3.57c-0.4-0.24-0.69-0.56-0.85-0.97c-0.48-0.97-1.13-1.77-1.94-2.42
			c-1.21-1.13-1.62-2.74-1.21-4.84c-0.16-0.48-0.38-0.81-0.67-0.97c-0.28-0.16-0.48-0.46-0.61-0.91c-0.12-0.44-0.2-0.93-0.24-1.45
			c-0.04-0.52-0.12-1.03-0.24-1.51s-0.24-0.95-0.36-1.39c-0.12-0.44-0.14-0.87-0.06-1.27l-0.12-1.82c0-0.08-0.16-0.61-0.48-1.57
			l-0.24-2.06l0.48-1.82l-0.24-2.3c0-2.42,0.16-3.95,0.48-4.6c0.32-0.65,0.54-1.25,0.67-1.82c0.12-0.56,0.2-1.11,0.24-1.63
			c0.04-0.52,0.26-1.03,0.67-1.51c0.64-0.48,0.95-0.81,0.91-0.97c-0.04-0.16,0.08-0.46,0.36-0.91c0.28-0.44,0.58-0.79,0.91-1.03
			c0.32-0.24,0.62-0.5,0.91-0.79c0.28-0.28,0.5-0.56,0.67-0.85c0.16-0.28,0.38-0.5,0.67-0.67c0.28-0.16,0.52-0.26,0.73-0.3
			c0.2-0.04,0.79-0.28,1.76-0.73c0.97-0.44,1.82-0.95,2.54-1.51c0.73-0.56,1.35-0.91,1.88-1.03c0.52-0.12,0.91-0.12,1.15,0
			S1089.52,223.14,1090,223.14z"/>
	</g>
</g>
</svg>
