<?xml version="1.0" encoding="utf-8"?>
<!-- Generator: Adobe Illustrator 24.0.0, SVG Export Plug-In . SVG Version: 6.00 Build 0)  -->
<svg version="1.1" xmlns="http://www.w3.org/2000/svg" xmlns:xlink="http://www.w3.org/1999/xlink" x="0px" y="0px"
	 viewBox="0 0 1200 582" style="enable-background:new 0 0 1200 582;" xml:space="preserve">
<style type="text/css">
	.st0{fill:none;stroke:none;stroke-miterlimit:10;}
	.st1{fill:#F4F3EA;}
	.st2{fill:#FFFFFB;}
	.st3{fill:#F26A21;}
	.st4{fill:#ED2024;}
	.st5{fill:#9F1D20;}
	.st6{fill:none;stroke:#754C29;stroke-width:3;stroke-miterlimit:10;}
	.st7{fill:#EFE925;}
	.st8{fill:#D9D7C7;}
	.st9{fill:#6A5D26;}
	.st10{fill:#219A47;}
	.st11{fill:#348E4E;}
	.st12{fill:#1A7D3F;}
	.st13{fill:#156D38;}
	.st14{fill:#96853B;}
	.st15{fill:#307F46;}


	

	#Snowman{
		animation:bouncy 3s linear infinite;
	}

		@keyframes bouncy {
  	0% { transform: translate(0,0); }
    5% { transform: translate(0,5%); }
	20% { transform: translate(0,0); }
    25% { transform: translate(0,5%); }
	50% { transform: translate(0,0); }
    55% { transform: translate(0,5%); }
	60% { transform: translate(0,0); }
    85% { transform: translate(0,5%); }
	90% { transform: translate(0,0); }
	100% { transform: translate(0,0); }
	}


	#cloud1{
		animation:moves 5s linear infinite;
	}

	#cloud2{
		animation:moves2 30s linear infinite;
	}

	#cloud3{
		animation:moves3 30s linear infinite;
	}


	@keyframes moves {
  0% { transform: translate(0,0); }
    10% { transform: translate(0,0); }
    50% { transform: translate(-5%,0%); } 
    100% { transform: translate(0%,0%); }
	}

		@keyframes moves2 {
50% { transform:translate3d(0,10%,0) }
100% { transform:translate3d(0,0%,0) }
	}

		@keyframes moves3 {
  0% { transform: translate(0,0); }
    10% { transform: translate(0,0); }
    50% { transform: translate(5%,0%); } 
    100% { transform: translate(0%,0%); }
	}

</style>
<g id="Layer_2">
	<rect y="-7.89" class="st0" width="1200" height="631.58"/>
</g>
<g id="ice">
	<g>
		<path class="st1" d="M0,426.25c0,0,223.67,151.11,503.79,111.15c242.2-34.55,531.47-275.88,696.21-111.15l145.17,260.64
			c0,0-1000.62,16.34-1039.54,16.34s-365.73-10.21-373.91-16.34s-24.51-124.48-24.51-124.48"/>
	</g>
</g>
<g id="Layer_1">
	<g id="Snowman">
		<ellipse class="st2" cx="820.69" cy="497.12" rx="56.8" ry="58.14"/>
		<circle class="st2" cx="820.69" cy="419.99" r="35.62"/>
		<circle cx="821.61" cy="486.26" r="3.42"/>
		<circle cx="820.69" cy="497.32" r="3.42"/>
		<circle cx="820.69" cy="510.32" r="3.42"/>
		<circle cx="804.73" cy="412.84" r="5.84"/>
		<circle cx="830.66" cy="406.66" r="5.84"/>
		<g>
			<path class="st3" d="M827.49,434.69c-0.03-1.45-0.43-4.58-1.08-8.19c-0.48-2.69-1-5.09-1.43-6.7l28.17,4.28L827.49,434.69z"/>
			<path class="st3" d="M826.41,426.5c0.65,3.61,1.05,6.74,1.08,8.19l-0.49,0.2c-0.48-1.31-1.21-4.46-1.87-8.16
				c-0.52-2.89-0.88-5.48-1.02-7.13l0.15,0.09l0.72,0.11C825.41,421.4,825.92,423.8,826.41,426.5z"/>
		</g>
		<path class="st4" d="M846.73,444.28c0,0-27.88,6.32-52.08,0c-24.2-6.32-43.86,55.21-43.86,55.21l8.68-2.37l0.51,6.45l10.8-27
			c1.97-4.93,4.86-9.45,8.5-13.31l11.34-12.02c0,0,41.63,6.13,57.07-3.32"/>
		<path class="st5" d="M846.79,445.7c0,0-44.94,5.79-57.19,2.89c0,0-34.38,31.49-36.09,46.98l4.26-3.4c0,0,25.02-41.87,31.83-41.7
			c6.81,0.17,54.99-2.6,56.51-3.57"/>
		<g>
			<line class="st6" x1="753.51" y1="427.24" x2="788.57" y2="460.68"/>
			<line class="st6" x1="760.5" y1="422.21" x2="761.35" y2="434.69"/>
			<line class="st6" x1="748.91" y1="433.11" x2="762.7" y2="434.69"/>
		</g>
		<g>
			<line class="st6" x1="888.65" y1="425.33" x2="858.12" y2="462.97"/>
			<line class="st6" x1="894.22" y1="431.9" x2="881.85" y2="433.75"/>
			<line class="st6" x1="882.43" y1="421.22" x2="881.96" y2="435.09"/>
		</g>
		<path d="M779.25,293.27c-0.12,0.03-0.24,0.06-0.36,0.09v-0.09H779.25z"/>
		<g>
			<path d="M830.82,339.81l0.05,0.21c-0.27-0.02-0.56-0.02-0.86-0.02L830.82,339.81z"/>
			<path d="M831.71,343.52l3.64,30.74l0.38,3.21l0.01,0.05l0.29,2.44l-50.9,12.19l-0.85-2.31l-0.02-0.05l-1.5-4.08l-10.29-27.88
				c5.73,0.07,17.09-1.67,29.96-4.75C815.65,349.92,826.84,346.2,831.71,343.52z"/>
			<path d="M834.32,341.04c0.15,0.63-0.8,1.48-2.61,2.48c-4.87,2.68-16.05,6.39-29.29,9.56c-12.87,3.08-24.23,4.81-29.96,4.75
				c-2.37-0.02-3.78-0.35-3.94-1.03c-0.16-0.68,0.94-1.61,3.04-2.71c0.11-0.06,0.22-0.11,0.33-0.17c5.22-2.64,15.94-6.15,28.53-9.17
				c12.58-3.01,23.74-4.74,29.59-4.75c0.3,0,0.59,0,0.86,0.02C832.94,340.08,834.17,340.41,834.32,341.04z"/>
			<path d="M861.36,376.52c0.75,3.15-21.11,11.09-48.83,17.73c-27.74,6.64-50.82,9.47-51.58,6.31c-0.49-2.05,8.58-6.13,22.6-10.55
				l0.02,0c0.23-0.08,0.45-0.14,0.68-0.21c7.4-2.32,16.14-4.72,25.54-6.97c9.4-2.25,18.28-4.07,25.94-5.36
				c0.23-0.03,0.45-0.08,0.68-0.11l0.02,0C850.93,374.95,860.86,374.47,861.36,376.52z"/>
			<path class="st4" d="M836.4,377.36l-52.84,12.65c0.23-0.08,0.45-0.14,0.68-0.21l-1.5-4.08c8.77-1.4,41.86-6.87,52.6-11.45
				l0.38,3.21C835.95,377.44,836.18,377.39,836.4,377.36z"/>
		</g>
	</g>
	<path id="moon" class="st7" d="M586.88,147.13c-10.39,26.56-34.28,47.02-64.51,51.66c-45.16,6.93-87.39-24.06-94.32-69.22
		s24.07-87.38,69.23-94.31c13.53-2.08,26.8-0.75,38.93,3.35c-3.89-0.09-7.84,0.15-11.81,0.76c-36.52,5.6-61.58,39.75-55.98,76.26
		c5.6,36.52,39.75,61.57,76.27,55.97C562.01,168.94,576.77,159.86,586.88,147.13z"/>
	<path id="cloud3" class="st8" d="M403.76,135.53c0,15.74-38.61,28.5-86.24,28.5c-14.11,0-27.42-1.12-39.17-3.1
		c-11.2,2.24-23.42,3.47-36.21,3.47c-9.23,0-18.16-0.64-26.62-1.84c-12.63,3.49-27.84,5.54-44.21,5.54
		c-43.74,0-79.21-14.58-79.21-32.57c0-14.42,22.77-26.65,54.33-30.93c9.62-22.11,48.82-38.66,95.71-38.66
		c49.21,0,89.95,18.23,96.92,41.98c0.01,0,0.01,0,0.01,0C376.28,111.09,403.76,122.25,403.76,135.53z"/>
	<path id="cloud2" class="st8" d="M859.97,98.06c0,19.78-26.44,35.81-59.06,35.81c-13.72,0-26.34-2.84-36.36-7.6
		c-14.31,4.26-31.29,6.95-49.56,7.39c-51.73,1.27-94.1-15.85-94.65-38.22c-0.32-13.14,13.85-25.17,36.08-33.11
		c4.02-22.65,35.37-40.29,73.44-40.29c38.05,0,69.38,17.61,73.43,40.24C834.81,63.04,859.97,78.77,859.97,98.06z"/>
	<path id="cloud1" class="st8" d="M720.68,240.75c0,24.77-27.71,44.85-61.9,44.85c-8.99,0-17.52-1.39-25.23-3.89
		c-10.28,3.7-22.63,5.86-35.91,5.86c-35.76,0-64.75-15.64-64.75-34.94c0-13.72,14.66-25.6,36-31.31c-0.21-1.36-0.31-2.74-0.31-4.14
		c0-21.8,25.61-39.48,57.2-39.48c21.22,0,39.75,7.98,49.62,19.83C701.52,202.79,720.68,220.15,720.68,240.75z"/>
	<g>
		<rect x="305.63" y="430.71" class="st9" width="29.56" height="125.85"/>
		<g>
			<rect x="60.17" y="484.03" class="st9" width="14.43" height="61.46"/>
			<path class="st10" d="M125.49,531.61l-51.26-13.25c-4.49-1.16-9.2-1.16-13.69,0L9.29,531.61l27.79-48.13l-12.89,3.33l21.6-37.42
				l0.76-1.31l-14.11,3.65l17.48-30.27l17.48-30.27l17.48,30.27l17.48,30.27l-14.11-3.65l0.76,1.31l21.6,37.42l-12.89-3.33
				L125.49,531.61z"/>
		</g>
		<rect x="132.18" y="468.34" class="st9" width="19.13" height="81.44"/>
		<rect x="192.63" y="395.52" class="st9" width="14.43" height="61.46"/>
		<path class="st11" d="M257.95,443.1l-51.26-13.25c-4.49-1.16-9.2-1.16-13.69,0l-51.26,13.25l27.79-48.13l-12.89,3.33l21.6-37.42
			l0.76-1.31l-14.11,3.65l17.48-30.27l17.48-30.27l17.48,30.27l17.48,30.27l-14.11-3.65l0.76,1.31l21.6,37.42l-12.89-3.33
			L257.95,443.1z"/>
		<path class="st12" d="M218.73,531.38l-67.92-17.56c-5.95-1.54-12.19-1.54-18.14,0l-67.92,17.56l36.82-63.78l-17.08,4.41
			l28.62-49.58l1-1.74l-18.7,4.83l23.16-40.11l23.16-40.11l23.16,40.11l23.16,40.11l-18.7-4.83l1,1.74l28.62,49.58l-17.08-4.41
			L218.73,531.38z"/>
		<g>
			<rect x="223.77" y="484.03" class="st9" width="14.43" height="61.46"/>
			<path class="st10" d="M289.09,531.61l-51.26-13.25c-4.49-1.16-9.2-1.16-13.69,0l-51.26,13.25l27.79-48.13l-12.89,3.33l21.6-37.42
				l0.76-1.31l-14.11,3.65l17.48-30.27l17.48-30.27l17.48,30.27l17.48,30.27l-14.11-3.65l0.76,1.31l21.6,37.42l-12.89-3.33
				L289.09,531.61z"/>
		</g>
		<g>
			<rect x="395.83" y="484.03" class="st9" width="14.43" height="61.46"/>
			<path class="st10" d="M461.15,531.61l-51.26-13.25c-4.49-1.16-9.2-1.16-13.69,0l-51.26,13.25l27.79-48.13l-12.89,3.33l21.6-37.42
				l0.76-1.31l-14.11,3.65l17.48-30.27l17.48-30.27l17.48,30.27L438,451.72l-14.11-3.65l0.76,1.31l21.6,37.42l-12.89-3.33
				L461.15,531.61z"/>
		</g>
		<path class="st13" d="M439.38,528.14l-104.96-27.13c-9.19-2.38-18.83-2.38-28.03,0l-104.96,27.13l56.9-98.56l-26.39,6.82
			l44.23-76.61l1.55-2.69l-28.9,7.47l35.79-61.98l35.79-61.98l35.79,61.98l35.79,61.98l-28.9-7.47l1.55,2.69l44.23,76.61
			l-26.39-6.82L439.38,528.14z"/>
		<rect x="477.78" y="451.65" class="st14" width="26.01" height="110.76"/>
		<path class="st15" d="M595.5,537.4l-92.37-23.88c-8.09-2.09-16.58-2.09-24.67,0l-92.38,23.88l50.08-86.74l-23.23,6l38.93-67.43
			l1.36-2.37l-25.43,6.57l31.5-54.55l31.5-54.55l31.5,54.55l31.5,54.55l-25.43-6.57l1.36,2.37l38.93,67.43l-23.23-6L595.5,537.4z"/>
	</g>
</g>
</svg>
